<svg width="29" height="28" viewBox="0 0 29 28" fill="none" xmlns="http://www.w3.org/2000/svg">
<path d="M25.1551 14.7493H18.8151C17.9458 14.7504 17.1123 15.0885 16.4976 15.6895C15.8829 16.2905 15.5371 17.1054 15.5361 17.9554V24.1504C15.5371 25.0004 15.8829 25.8153 16.4976 26.4163C17.1123 27.0173 17.9458 27.3554 18.8151 27.3564H25.1551C26.0251 27.3564 26.8595 27.0188 27.4751 26.4177C28.0907 25.8165 28.437 25.0011 28.4381 24.1504V17.9515C28.436 17.1015 28.0891 16.287 27.4737 15.6868C26.8582 15.0865 26.0244 14.7493 25.1551 14.7493ZM26.2551 24.1504C26.2559 24.2919 26.228 24.4321 26.173 24.5629C26.118 24.6938 26.037 24.8126 25.9347 24.9127C25.8324 25.0127 25.7108 25.0919 25.577 25.1456C25.4432 25.1994 25.2998 25.2267 25.1551 25.2259H18.8151C18.6713 25.2253 18.5291 25.197 18.3966 25.1425C18.264 25.0881 18.1437 25.0087 18.0426 24.9088C17.9415 24.809 17.8615 24.6906 17.8071 24.5604C17.7528 24.4303 17.7253 24.291 17.7261 24.1504V17.9515C17.7263 17.6681 17.8416 17.3965 18.0465 17.1961C18.2514 16.9957 18.5293 16.8831 18.8191 16.8828H25.1551C25.2995 16.882 25.4427 16.9092 25.5763 16.9628C25.7099 17.0164 25.8313 17.0953 25.9336 17.195C26.0359 17.2948 26.1169 17.4133 26.1721 17.5438C26.2273 17.6743 26.2555 17.8142 26.2551 17.9554V24.1504ZM10.0741 14.7493H3.73408C2.86476 14.7504 2.03135 15.0885 1.41664 15.6895C0.801942 16.2905 0.456137 17.1054 0.455078 17.9554L0.455078 24.1504C0.456137 25.0004 0.801942 25.8153 1.41664 26.4163C2.03135 27.0173 2.86476 27.3554 3.73408 27.3564H10.0741C10.9437 27.3559 11.7777 27.018 12.3928 26.417C13.0079 25.8159 13.354 25.0007 13.3551 24.1504V17.9515C13.353 17.1018 13.0064 16.2877 12.3914 15.6874C11.7764 15.0872 10.9431 14.7499 10.0741 14.7493ZM11.1671 24.1504C11.1679 24.2913 11.1402 24.4309 11.0856 24.5613C11.0311 24.6917 10.9507 24.8103 10.8491 24.9102C10.7476 25.0102 10.6268 25.0895 10.4938 25.1437C10.3608 25.1978 10.2182 25.2258 10.0741 25.2259H3.73408C3.58999 25.2258 3.44735 25.1978 3.31434 25.1437C3.18133 25.0895 3.06058 25.0102 2.95902 24.9102C2.85746 24.8103 2.77709 24.6917 2.72253 24.5613C2.66797 24.4309 2.64029 24.2913 2.64108 24.1504V17.9515C2.64134 17.6681 2.75658 17.3965 2.9615 17.1961C3.16642 16.9957 3.44428 16.8831 3.73408 16.8828H10.0741C10.3639 16.8831 10.6417 16.9957 10.8467 17.1961C11.0516 17.3965 11.1668 17.6681 11.1671 17.9515V24.1504ZM10.0741 0H3.73408C2.86476 0.00103498 2.03135 0.339146 1.41664 0.940171C0.801942 1.5412 0.456137 2.35606 0.455078 3.20604L0.455078 9.40497C0.455607 10.2553 0.801179 11.0707 1.41594 11.6721C2.0307 12.2736 2.86441 12.6119 3.73408 12.613H10.0741C10.9441 12.6124 11.7783 12.2743 12.3935 11.6728C13.0087 11.0713 13.3545 10.2556 13.3551 9.40497V3.20604C13.354 2.35572 13.0079 1.54056 12.3928 0.93948C11.7777 0.338399 10.9437 0.000517381 10.0741 0V0ZM11.1671 9.40497C11.1668 9.68832 11.0516 9.95999 10.8467 10.1604C10.6417 10.3607 10.3639 10.4734 10.0741 10.4736H3.73408C3.44428 10.4734 3.16642 10.3607 2.9615 10.1604C2.75658 9.95999 2.64134 9.68832 2.64108 9.40497V3.20604C2.64134 2.92269 2.75658 2.65102 2.9615 2.45065C3.16642 2.25029 3.44428 2.13762 3.73408 2.13736H10.0741C10.3639 2.13762 10.6417 2.25029 10.8467 2.45065C11.0516 2.65102 11.1668 2.92269 11.1671 3.20604V9.40497ZM25.1551 0H18.8151C17.9458 0.00103498 17.1123 0.339146 16.4976 0.940171C15.8829 1.5412 15.5371 2.35606 15.5361 3.20604V9.40497C15.5366 10.256 15.8827 11.0719 16.4984 11.6735C17.114 12.275 17.9487 12.613 18.8191 12.613H25.1551C26.0244 12.6119 26.8578 12.2738 27.4725 11.6728C28.0872 11.0718 28.433 10.2569 28.4341 9.40693V3.20604C28.433 2.35606 28.0872 1.5412 27.4725 0.940171C26.8578 0.339146 26.0244 0.00103498 25.1551 0V0ZM26.2551 9.40497C26.2549 9.54585 26.2264 9.68532 26.1709 9.81537C26.1155 9.94542 26.0344 10.0635 25.9322 10.1628C25.83 10.2621 25.7087 10.3407 25.5753 10.394C25.442 10.4474 25.2992 10.4744 25.1551 10.4736H18.8151C18.5253 10.4734 18.2474 10.3607 18.0425 10.1604C17.8376 9.95999 17.7223 9.68832 17.7221 9.40497V3.20604C17.7223 2.92269 17.8376 2.65102 18.0425 2.45065C18.2474 2.25029 18.5253 2.13762 18.8151 2.13736H25.1551C25.2992 2.13659 25.442 2.16365 25.5753 2.217C25.7087 2.27035 25.83 2.34893 25.9322 2.44823C26.0344 2.54753 26.1155 2.66559 26.1709 2.79564C26.2264 2.92569 26.2549 3.06516 26.2551 3.20604V9.40497Z" fill="#284A6F"/>
</svg>
