<svg width="29" height="28" viewBox="0 0 29 28" fill="none" xmlns="http://www.w3.org/2000/svg">
<path d="M14.3187 21.939C18.6536 21.939 22.1677 18.2886 22.1677 13.7856C22.1677 9.28257 18.6536 5.63214 14.3187 5.63214C9.9838 5.63214 6.46968 9.28257 6.46968 13.7856C6.46968 18.2886 9.9838 21.939 14.3187 21.939Z" fill="#284A6F"/>
<path d="M1.07568 17.3182C0.94174 17.318 0.811844 17.2733 0.707344 17.1914C0.602845 17.1095 0.529962 16.9952 0.500678 16.8674C0.0443434 14.8446 0.0575885 12.7475 0.539439 10.7304C1.02129 8.7132 1.95949 6.82731 3.28503 5.21141C4.61057 3.5955 6.28973 2.29068 8.199 1.39293C10.1083 0.495169 12.1991 0.0273088 14.3177 0.0237588C16.4874 0.0166404 18.6291 0.501876 20.5745 1.44129C22.5198 2.3807 24.2157 3.74867 25.5287 5.43756C25.5758 5.49758 25.6103 5.56609 25.6303 5.63916C25.6503 5.71224 25.6554 5.78844 25.6452 5.86344C25.6351 5.93843 25.61 6.01075 25.5713 6.07624C25.5326 6.14174 25.4811 6.19915 25.4197 6.24518C25.3583 6.29121 25.2882 6.32497 25.2135 6.34452C25.1387 6.36408 25.0608 6.36905 24.9841 6.35915C24.9074 6.34926 24.8334 6.32469 24.7665 6.28684C24.6995 6.249 24.6408 6.19863 24.5937 6.1386C22.945 4.03592 20.6637 2.49138 18.0706 1.72216C15.4775 0.952931 12.7031 0.997717 10.1374 1.85021C7.57167 2.70271 5.34378 4.32004 3.76696 6.47479C2.19014 8.62954 1.34371 11.2133 1.34668 13.8628C1.34265 14.7896 1.44326 15.7139 1.64668 16.6191C1.67976 16.7678 1.65131 16.9232 1.56756 17.0515C1.4838 17.1797 1.35155 17.2703 1.19968 17.3035C1.15731 17.3126 1.11406 17.3172 1.07068 17.3172L1.07568 17.3182Z" fill="#284A6F"/>
<path d="M14.318 27.6951C12.1484 27.702 10.0068 27.2165 8.06157 26.2769C6.1164 25.3374 4.42073 23.9693 3.10796 22.2803C3.01288 22.1591 2.97095 22.0059 2.99139 21.8545C3.01184 21.703 3.09298 21.5657 3.21696 21.4727C3.34095 21.3798 3.49763 21.3388 3.65254 21.3588C3.80744 21.3787 3.94788 21.4581 4.04296 21.5793C5.69167 23.682 7.97295 25.2265 10.566 25.9957C13.1591 26.765 15.9336 26.7202 18.4993 25.8677C21.065 25.0152 23.2929 23.3979 24.8697 21.2431C26.4465 19.0884 27.2929 16.5046 27.29 13.8551C27.2947 12.9301 27.189 12.0077 26.975 11.1066C26.9531 11.0317 26.947 10.9532 26.957 10.8759C26.9671 10.7985 26.993 10.724 27.0333 10.6568C27.0736 10.5895 27.1274 10.531 27.1915 10.4846C27.2556 10.4383 27.3287 10.4051 27.4062 10.3871C27.4838 10.3692 27.5643 10.3667 27.6428 10.38C27.7213 10.3933 27.7963 10.422 27.8632 10.4644C27.9301 10.5067 27.9875 10.5619 28.032 10.6266C28.0765 10.6913 28.1071 10.7641 28.122 10.8407C28.3573 11.8292 28.4738 12.8412 28.469 13.8561C28.4647 17.5241 26.9726 21.0407 24.3198 23.6344C21.6671 26.2281 18.0705 27.6871 14.319 27.6912L14.318 27.6951Z" fill="#284A6F"/>
<path d="M3.17442 27.6939C3.01897 27.694 2.86981 27.634 2.75933 27.5271C2.64885 27.4201 2.586 27.2749 2.58442 27.1229L2.52542 21.363C2.5247 21.2869 2.53944 21.2114 2.5688 21.1409C2.59815 21.0704 2.64153 21.0063 2.69642 20.9524C2.75051 20.8969 2.81551 20.8527 2.88752 20.8225C2.95952 20.7922 3.03705 20.7766 3.11542 20.7764H9.01542C9.09487 20.7732 9.17417 20.7857 9.24855 20.8132C9.32292 20.8408 9.39084 20.8827 9.44822 20.9365C9.5056 20.9904 9.55125 21.055 9.58244 21.1265C9.61362 21.198 9.6297 21.275 9.6297 21.3528C9.6297 21.4305 9.61362 21.5075 9.58244 21.579C9.55125 21.6505 9.5056 21.7151 9.44822 21.769C9.39084 21.8228 9.32292 21.8647 9.24855 21.8923C9.17417 21.9198 9.09487 21.9323 9.01542 21.9291H3.71542L3.76842 27.1112C3.76974 27.1873 3.75565 27.2629 3.72697 27.3336C3.69829 27.4044 3.65558 27.4688 3.60129 27.5234C3.54701 27.5779 3.48223 27.6214 3.41068 27.6513C3.33914 27.6813 3.26224 27.6971 3.18442 27.6979H3.17442V27.6939Z" fill="#284A6F"/>
<path d="M25.5204 6.94132H19.6204C19.4683 6.93519 19.3244 6.87179 19.219 6.76436C19.1136 6.65694 19.0547 6.51382 19.0547 6.36494C19.0547 6.21605 19.1136 6.07293 19.219 5.96551C19.3244 5.85809 19.4683 5.79468 19.6204 5.78855H24.9344V0.600616C24.9311 0.522927 24.944 0.445393 24.9721 0.372673C25.0003 0.299952 25.0431 0.233546 25.0982 0.177445C25.1533 0.121344 25.2194 0.0767056 25.2925 0.0462123C25.3657 0.0157189 25.4444 0 25.5239 0C25.6034 0 25.6821 0.0157189 25.7553 0.0462123C25.8284 0.0767056 25.8945 0.121344 25.9496 0.177445C26.0047 0.233546 26.0476 0.299952 26.0757 0.372673C26.1039 0.445393 26.1167 0.522927 26.1134 0.600616V6.36934C26.1121 6.52199 26.0489 6.66791 25.9378 6.77513C25.8266 6.88234 25.6765 6.9421 25.5204 6.94132Z" fill="#284A6F"/>
<path d="M14.3172 20.7766C12.9179 20.7766 11.55 20.3709 10.3865 19.6107C9.22305 18.8506 8.31623 17.7702 7.78074 16.5062C7.24525 15.2422 7.10514 13.8513 7.37813 12.5094C7.65113 11.1676 8.32495 9.93496 9.31441 8.96752C10.3039 8.00008 11.5645 7.34124 12.9369 7.07433C14.3093 6.80741 15.7319 6.9444 17.0247 7.46798C18.3175 7.99155 19.4224 8.8782 20.1998 10.0158C20.9772 11.1534 21.3922 12.4908 21.3922 13.859C21.3903 15.6931 20.6443 17.4515 19.3179 18.7484C17.9915 20.0454 16.193 20.7747 14.3172 20.7766ZM14.3172 8.09418C13.1503 8.09418 12.0096 8.43251 11.0393 9.06638C10.0691 9.70026 9.31286 10.6012 8.8663 11.6553C8.41974 12.7094 8.3029 13.8693 8.53056 14.9883C8.75821 16.1073 9.32013 17.1352 10.1453 17.942C10.9704 18.7488 12.0217 19.2982 13.1662 19.5208C14.3106 19.7434 15.4969 19.6291 16.575 19.1925C17.6531 18.7559 18.5746 18.0165 19.2229 17.0678C19.8712 16.1192 20.2172 15.0038 20.2172 13.8629C20.2172 13.1053 20.0646 12.3552 19.7681 11.6553C19.4716 10.9554 19.037 10.3195 18.4891 9.7838C17.9413 9.24812 17.2908 8.8232 16.575 8.53329C15.8592 8.24339 15.092 8.09418 14.3172 8.09418Z" fill="white"/>
<path d="M16.6767 16.7423C16.5491 16.742 16.4249 16.7016 16.3227 16.6269L13.9647 14.8982C13.8914 14.8445 13.8318 14.7749 13.7909 14.6948C13.7499 14.6146 13.7286 14.5263 13.7287 14.4367V10.9774C13.735 10.8287 13.7998 10.6881 13.9097 10.585C14.0195 10.4819 14.1659 10.4243 14.3182 10.4243C14.4705 10.4243 14.6168 10.4819 14.7267 10.585C14.8366 10.6881 14.9014 10.8287 14.9077 10.9774V14.1483L17.0287 15.7039C17.128 15.7763 17.2013 15.8775 17.2384 15.9931C17.2754 16.1087 17.2743 16.2328 17.2351 16.3477C17.1959 16.4625 17.1206 16.5624 17.02 16.6331C16.9194 16.7038 16.7986 16.7416 16.6747 16.7413L16.6767 16.7423Z" fill="white"/>
</svg>
