<svg width="29" height="24" viewBox="0 0 29 24" fill="none" xmlns="http://www.w3.org/2000/svg">
<path d="M28.9656 13.4317L23.6336 0.341617C23.6067 0.275467 23.5668 0.215147 23.516 0.164106C23.4653 0.113065 23.4047 0.0723051 23.3379 0.0441552C23.271 0.0160052 23.1991 0.00101782 23.1263 5.0063e-05C23.0535 -0.00091769 22.9813 0.0121537 22.9136 0.0385157L1.28263 8.45987C1.19435 8.49701 1.11775 8.5564 1.06062 8.63195C0.972156 8.67697 0.89793 8.74474 0.845946 8.82796C0.793962 8.91118 0.76619 9.0067 0.765625 9.10421L0.765625 23.1955C0.765625 23.3392 0.823993 23.477 0.927888 23.5785C1.03178 23.6801 1.1727 23.7372 1.31963 23.7372H24.6026C24.7496 23.7372 24.8905 23.6801 24.9944 23.5785C25.0983 23.477 25.1566 23.3392 25.1566 23.1955V15.4987L28.6566 14.1357C28.7242 14.1093 28.7858 14.0702 28.8379 14.0205C28.89 13.9709 28.9316 13.9117 28.9603 13.8463C28.9889 13.7809 29.0042 13.7107 29.0051 13.6395C29.006 13.5684 28.9926 13.4978 28.9656 13.4317ZM24.0486 22.6539H1.87462V9.64979H24.0486V22.6539ZM10.0156 8.56351L19.2976 4.94584C19.7076 5.3671 20.2005 5.70293 20.7466 5.93313C21.2928 6.16333 21.8809 6.28314 22.4756 6.28535L23.4016 8.56156L10.0156 8.56351ZM25.1576 14.3322V9.10421C25.1576 8.96055 25.0993 8.82277 24.9954 8.72119C24.8915 8.6196 24.7506 8.56253 24.6036 8.56253H24.5946L23.4196 5.67817C23.4068 5.65408 23.3917 5.63117 23.3746 5.60973C23.3459 5.48356 23.2714 5.3718 23.165 5.29508C23.0586 5.21835 22.9274 5.18182 22.7956 5.19223C22.2451 5.24136 21.6908 5.1551 21.1831 4.9413C20.6753 4.72749 20.2304 4.39294 19.8886 3.96809C19.8051 3.86729 19.6871 3.79947 19.5564 3.77718C19.4257 3.75489 19.2911 3.77964 19.1776 3.84685C19.1514 3.84978 19.1253 3.85436 19.0996 3.86054L7.76562 8.27116C7.69819 8.29811 7.63693 8.33792 7.58541 8.38829C7.5339 8.43865 7.49318 8.49855 7.46562 8.56449H4.02063L22.8086 1.24995L27.7306 13.334L25.1576 14.3322Z" fill="#284A6F"/>
<path d="M3.38235 18.9949C3.91206 19.148 4.39425 19.4281 4.7851 19.8097C5.17594 20.1914 5.46306 20.6624 5.62035 21.1801C5.65367 21.2927 5.72344 21.3917 5.81919 21.4622C5.91493 21.5328 6.03148 21.571 6.15135 21.5713C6.18001 21.5694 6.20845 21.5652 6.23635 21.5585C6.26125 21.5656 6.28665 21.5709 6.31236 21.5742H19.6124C19.6353 21.5712 19.6581 21.5667 19.6804 21.5605C19.7462 21.5763 19.8146 21.5792 19.8816 21.5691C19.9486 21.559 20.0129 21.5361 20.0709 21.5017C20.1289 21.4672 20.1793 21.422 20.2194 21.3685C20.2594 21.315 20.2883 21.2543 20.3044 21.1899C20.4611 20.6716 20.748 20.1999 21.1389 19.8177C21.5298 19.4355 22.0123 19.155 22.5424 19.0017C22.6687 18.9639 22.7767 18.8827 22.8466 18.7731C22.9164 18.6635 22.9433 18.5328 22.9224 18.4053C22.9297 18.379 22.9351 18.3522 22.9384 18.3251V13.9888C22.935 13.9617 22.9293 13.9348 22.9214 13.9086C22.9423 13.7811 22.9154 13.6505 22.8456 13.5408C22.7757 13.4312 22.6677 13.35 22.5414 13.3122C22.0112 13.1589 21.5287 12.8783 21.138 12.4959C20.7472 12.1135 20.4607 11.6415 20.3044 11.123C20.2654 10.9989 20.1817 10.8927 20.0688 10.8244C19.9559 10.7561 19.8214 10.7301 19.6904 10.7515C19.6648 10.7443 19.6387 10.7391 19.6124 10.7358H6.31236C6.28428 10.7392 6.25652 10.7448 6.22935 10.7525C6.09896 10.7321 5.96544 10.7585 5.85336 10.8268C5.74129 10.8951 5.65819 11.0006 5.61935 11.124C5.46234 11.6421 5.17536 12.1136 4.78449 12.4956C4.39363 12.8775 3.91129 13.1579 3.38135 13.3112C3.25503 13.349 3.14697 13.4302 3.07712 13.5399C3.00727 13.6495 2.98036 13.7801 3.00135 13.9077C2.99399 13.934 2.98864 13.9608 2.98535 13.9878V18.3242C2.9887 18.3496 2.99405 18.3748 3.00135 18.3994C2.9811 18.5269 3.00846 18.6572 3.07842 18.7665C3.14839 18.8759 3.25628 18.9569 3.38235 18.9949ZM4.09535 14.2039C4.64623 13.9876 5.14666 13.6646 5.56651 13.2543C5.98636 12.844 6.31694 12.3548 6.53835 11.8162H19.3874C19.6088 12.3548 19.9394 12.844 20.3592 13.2543C20.779 13.6646 21.2795 13.9876 21.8304 14.2039V18.1002C21.2794 18.3166 20.7789 18.6398 20.359 19.0503C19.9392 19.4608 19.6087 19.9502 19.3874 20.4889H6.53335C6.31205 19.9502 5.98152 19.4608 5.56166 19.0503C5.14181 18.6398 4.64133 18.3166 4.09035 18.1002L4.09535 14.2039Z" fill="#284A6F"/>
<path d="M12.9616 19.4038C13.6193 19.4038 14.2622 19.2131 14.8091 18.8559C15.356 18.4987 15.7823 17.991 16.0342 17.397C16.286 16.8029 16.352 16.1492 16.2239 15.5184C16.0958 14.8877 15.7794 14.3082 15.3145 13.8533C14.8497 13.3984 14.2573 13.0884 13.6123 12.9626C12.9673 12.8368 12.2987 12.9008 11.6909 13.1465C11.0831 13.3922 10.5634 13.8086 10.1976 14.343C9.83179 14.8774 9.63621 15.5058 9.63562 16.1489C9.63523 16.5762 9.72097 16.9994 9.88794 17.3942C10.0549 17.7891 10.2998 18.148 10.6087 18.4503C10.9176 18.7525 11.2844 18.9924 11.6881 19.156C12.0919 19.3196 12.5246 19.4038 12.9616 19.4038ZM12.9616 13.9831C13.4001 13.9831 13.8287 14.1103 14.1933 14.3485C14.5579 14.5866 14.8421 14.9252 15.0099 15.3213C15.1777 15.7174 15.2216 16.1532 15.136 16.5737C15.0505 16.9942 14.8393 17.3804 14.5293 17.6836C14.2192 17.9867 13.8242 18.1932 13.3941 18.2768C12.9641 18.3605 12.5183 18.3176 12.1132 18.1535C11.7081 17.9894 11.3619 17.7116 11.1183 17.3551C10.8746 16.9986 10.7446 16.5795 10.7446 16.1508C10.7444 15.866 10.8015 15.5839 10.9128 15.3207C11.0241 15.0575 11.1874 14.8183 11.3933 14.6168C11.5991 14.4153 11.8436 14.2554 12.1127 14.1464C12.3819 14.0373 12.6703 13.9812 12.9616 13.9812V13.9831Z" fill="#284A6F"/>
<path d="M6.86325 16.9614C7.0278 16.9614 7.18866 16.9137 7.32549 16.8243C7.46231 16.7349 7.56895 16.6079 7.63192 16.4593C7.69489 16.3106 7.71136 16.147 7.67926 15.9892C7.64716 15.8314 7.56792 15.6865 7.45156 15.5727C7.3352 15.459 7.18696 15.3815 7.02557 15.3501C6.86417 15.3187 6.69689 15.3348 6.54486 15.3964C6.39283 15.458 6.26289 15.5622 6.17147 15.696C6.08005 15.8298 6.03125 15.9871 6.03125 16.148C6.03125 16.3637 6.11891 16.5706 6.27494 16.7232C6.43097 16.8757 6.64259 16.9614 6.86325 16.9614ZM6.86325 15.8771C6.91804 15.8771 6.97159 15.893 7.01714 15.9228C7.0627 15.9525 7.0982 15.9948 7.11916 16.0443C7.14013 16.0938 7.14561 16.1483 7.13493 16.2008C7.12424 16.2533 7.09786 16.3016 7.05912 16.3395C7.02038 16.3773 6.97102 16.4031 6.91729 16.4136C6.86356 16.424 6.80786 16.4187 6.75725 16.3982C6.70663 16.3777 6.66337 16.343 6.63293 16.2984C6.6025 16.2539 6.58625 16.2015 6.58625 16.148C6.58651 16.0763 6.61581 16.0077 6.66773 15.9571C6.71965 15.9065 6.78996 15.8781 6.86325 15.8781V15.8771Z" fill="#284A6F"/>
<path d="M19.0596 16.9614C19.2242 16.9614 19.385 16.9136 19.5219 16.8243C19.6587 16.7349 19.7653 16.6078 19.8283 16.4592C19.8913 16.3105 19.9077 16.147 19.8756 15.9892C19.8435 15.8314 19.7643 15.6864 19.6479 15.5727C19.5316 15.4589 19.3833 15.3814 19.2219 15.35C19.0605 15.3186 18.8933 15.3348 18.7412 15.3963C18.5892 15.4579 18.4593 15.5622 18.3678 15.6959C18.2764 15.8297 18.2276 15.987 18.2276 16.1479C18.2276 16.3636 18.3153 16.5705 18.4713 16.7231C18.6273 16.8757 18.839 16.9614 19.0596 16.9614ZM19.0596 15.877C19.1144 15.877 19.168 15.8929 19.2135 15.9227C19.2591 15.9524 19.2946 15.9947 19.3156 16.0442C19.3365 16.0937 19.342 16.1482 19.3313 16.2007C19.3206 16.2533 19.2942 16.3015 19.2555 16.3394C19.2168 16.3773 19.1674 16.4031 19.1137 16.4135C19.0599 16.424 19.0042 16.4186 18.9536 16.3981C18.903 16.3776 18.8598 16.3429 18.8293 16.2983C18.7989 16.2538 18.7826 16.2014 18.7826 16.1479C18.7829 16.0762 18.8122 16.0076 18.8641 15.957C18.916 15.9064 18.9863 15.878 19.0596 15.878V15.877Z" fill="#284A6F"/>
</svg>
