<svg width="30" height="30" viewBox="0 0 30 30" fill="none" xmlns="http://www.w3.org/2000/svg">
<path d="M23.816 0.000244141V1.81886H25.916L21.821 5.61448C20.9521 4.7434 19.8866 4.08341 18.7099 3.68736C17.5332 3.29131 16.278 3.17023 15.0448 3.3338C13.8116 3.49737 12.6348 3.94105 11.6085 4.62931C10.5823 5.31756 9.73513 6.23125 9.13498 7.29719C9.01798 7.2923 8.90098 7.28936 8.78298 7.28936C6.74462 7.28413 4.78156 8.04214 3.2969 9.40774C1.81224 10.7733 0.918652 12.6429 0.79963 14.6325C0.680608 16.6221 1.34518 18.5808 2.65689 20.1063C3.9686 21.6318 5.82789 22.6084 7.85298 22.8356V25.2526H5.06898V27.0712H7.85398V29.7111H9.71398V27.0712H12.62V25.2526H9.71398V22.8336C10.9738 22.6875 12.18 22.2501 13.2328 21.5578C14.2855 20.8655 15.1545 19.9381 15.768 18.8522C15.885 18.8571 16.002 18.86 16.119 18.86C17.5294 18.8606 18.9147 18.4954 20.1336 17.8016C21.3525 17.1078 22.3614 16.1103 23.0573 14.9108C23.7532 13.7113 24.1112 12.3528 24.0948 10.9738C24.0784 9.5949 23.6882 8.24489 22.964 7.06155L27.41 2.93936V5.19796H29.27V0.000244141H23.816ZM8.78398 21.0678C7.19437 21.0699 5.66639 20.4667 4.5238 19.3862C3.38121 18.3056 2.71379 16.8326 2.66295 15.2791C2.61212 13.7257 3.18186 12.2139 4.25147 11.0642C5.32107 9.91442 6.80649 9.217 8.39298 9.11971C7.88319 11.0649 8.15996 13.1274 9.16572 14.8782C10.1715 16.6289 11.8288 17.9332 13.793 18.5198C13.2291 19.307 12.4794 19.9496 11.6074 20.3931C10.7354 20.8367 9.7669 21.0681 8.78398 21.0678ZM14.628 16.8615C13.8218 16.6631 13.0655 16.3061 12.4051 15.8124C11.7447 15.3187 11.1941 14.6987 10.787 13.99C10.3798 13.2814 10.1246 12.4991 10.0369 11.6908C9.94925 10.8825 10.0309 10.0652 10.277 9.28886C11.0831 9.48729 11.8395 9.84425 12.4999 10.3379C13.1602 10.8316 13.7108 11.4517 14.118 12.1604C14.5251 12.869 14.7803 13.6513 14.868 14.4596C14.9557 15.2679 14.874 16.0851 14.628 16.8615ZM16.513 17.0297C17.0228 15.0845 16.746 13.022 15.7402 11.2712C14.7345 9.52047 13.0772 8.21616 11.113 7.62962C11.7067 6.80205 12.5054 6.13519 13.4343 5.69136C14.3632 5.24752 15.392 5.04121 16.4246 5.09171C17.4572 5.14221 18.4598 5.44787 19.3388 5.98012C20.2177 6.51236 20.9443 7.25382 21.4506 8.13519C21.957 9.01655 22.2264 10.009 22.2339 11.0199C22.2414 12.0307 21.9867 13.0269 21.4934 13.9154C21.0002 14.8038 20.2847 15.5555 19.4137 16.1001C18.5427 16.6448 17.5447 16.9646 16.513 17.0297Z" fill="#284A6F"/>
</svg>
