<svg width="1920" height="1080" viewBox="0 0 1920 1080" fill="none" xmlns="http://www.w3.org/2000/svg">
<mask id="mask0_429_277" style="mask-type:alpha" maskUnits="userSpaceOnUse" x="0" y="0" width="1920" height="1080">
<rect width="1920" height="1080" fill="#EEEEEE"/>
</mask>
<g mask="url(#mask0_429_277)">
<path d="M2214 -747C2214 -54.4349 1652.57 507 960 507C267.435 507 -294 -54.4349 -294 -747C-294 -1439.57 267.435 -2001 960 -2001C1652.57 -2001 2214 -1439.57 2214 -747Z" fill="#284A6F"/>
<path d="M1777.17 91.4293L1779.1 71.0402L1768.45 71.2721L1762.82 54L1764.03 76.0634L1774.84 75.793L1777.17 91.4293Z" fill="#E0E0E0"/>
<path d="M1772.26 94.3658L1764.78 82.7094L1759.2 87.2818L1749 80.4297L1758.85 91.661L1764.49 87.0114L1772.26 94.3658Z" fill="#E0E0E0"/>
<path d="M1784.09 92.9112L1792.46 84.565L1787.64 80.7396L1791.52 70.9766L1783.92 81.229L1788.81 85.093L1784.09 92.9112Z" fill="#E0E0E0"/>
<path d="M126 72.8434L137.914 56.1896L145.797 63.3509L161.381 54L145.99 69.8553L138.017 62.5652L126 72.8434Z" fill="#E0E0E0"/>
<path d="M127.777 78.2675L141.069 74.3906L142.28 81.4875L154.478 83.0202L139.666 85.0295L138.468 77.8167L127.777 78.2675Z" fill="#E0E0E0"/>
<path opacity="0.2" d="M1363.3 -3.08648C1360.76 -5.18976 1357.96 -6.94689 1354.96 -8.3118L1354.45 -17.479L1339.55 -20L1336.08 -11.5509C1332.8 -11.2461 1329.58 -10.5062 1326.49 -9.35075L1319.69 -15.4622L1307.39 -6.70753L1310.9 1.71104C1308.8 4.24826 1307.04 7.0535 1305.67 10.0532L1296.51 10.5574L1294 25.4542L1302.44 28.9224C1302.74 32.1995 1303.48 35.4213 1304.64 38.5022L1298.52 45.3165L1307.28 57.6159L1315.7 54.1018C1318.24 56.1998 1321.05 57.9565 1324.04 59.3271L1324.55 68.4943L1339.45 71L1342.92 62.5661C1346.2 62.254 1349.42 61.5143 1352.51 60.366L1359.31 66.4775L1371.61 57.7228L1368.1 49.3042C1370.2 46.7633 1371.95 43.9587 1373.33 40.962L1382.49 40.4578L1385 25.5611L1376.56 22.0929C1376.25 18.8123 1375.51 15.5866 1374.36 12.4978L1380.48 5.69878L1371.72 -6.52418L1363.3 -3.01008V-3.08648ZM1352.36 15.6605C1354.22 18.2702 1355.26 21.3721 1355.35 24.5741C1355.45 27.7761 1354.59 30.9342 1352.89 33.6491C1351.19 36.364 1348.72 38.5137 1345.8 39.8263C1342.88 41.1389 1339.63 41.5554 1336.47 41.0232C1333.31 40.4911 1330.38 39.0341 1328.05 36.8365C1325.72 34.639 1324.09 31.7996 1323.38 28.6775C1322.66 25.5553 1322.88 22.2907 1324.02 19.2965C1325.16 16.3023 1327.16 13.713 1329.77 11.8561C1333.27 9.36672 1337.62 8.36907 1341.85 9.0825C1346.09 9.79593 1349.87 12.162 1352.36 15.6605Z" fill="#E0E0E0" fill-opacity="0.2"/>
<path opacity="0.2" d="M791.563 -23.8195C787.184 -27.4483 782.344 -30.4798 777.168 -32.8346L776.298 -48.6506L750.592 -53L744.608 -38.4229C738.945 -37.8971 733.377 -36.6207 728.051 -34.6271L716.319 -45.1711L695.095 -30.0668L701.159 -15.5425C697.53 -11.1651 694.498 -6.32528 692.142 -1.14993L676.324 -0.280048L672 25.4209L686.553 31.4046C687.076 37.0584 688.353 42.6169 690.35 47.9323L679.804 59.6889L694.911 80.9087L709.437 74.8459C713.822 78.4657 718.661 81.4964 723.832 83.861L724.702 99.677L750.408 104L756.392 89.4493C762.053 88.9107 767.619 87.6346 772.949 85.6534L784.681 96.1974L805.905 81.0932L799.841 66.5688C803.461 62.185 806.493 57.3464 808.858 52.1763L824.676 51.3064L829 25.6054L814.447 19.6217C813.908 13.9619 812.632 8.39669 810.65 3.06764L821.196 -8.66254L806.089 -29.7505L791.563 -23.6877V-23.8195ZM772.686 8.52417C775.891 13.0266 777.69 18.3783 777.853 23.9026C778.016 29.4269 776.538 34.8755 773.604 39.5594C770.67 44.2434 766.412 47.9522 761.37 50.2168C756.328 52.4814 750.727 53.2 745.276 52.2819C739.825 51.3637 734.769 48.85 730.748 45.0586C726.726 41.2672 723.919 36.3685 722.682 30.982C721.444 25.5955 721.833 19.9632 723.797 14.7973C725.762 9.63151 729.215 5.16424 733.719 1.96053C739.757 -2.33434 747.254 -4.05556 754.562 -2.8247C761.869 -1.59384 768.388 2.48833 772.686 8.52417Z" fill="#E0E0E0" fill-opacity="0.2"/>
<path opacity="0.37" d="M1858.08 37.0331C1856.57 35.7823 1854.91 34.7375 1853.13 33.9262L1852.83 28.5156L1844.01 27L1841.95 32.0014C1840 32.1861 1838.09 32.6295 1836.26 33.32L1832.22 29.6977L1824.93 34.8961L1827.02 39.8975C1825.77 41.4081 1824.73 43.074 1823.91 44.8535L1818.51 45.1566L1817 53.9924L1822.01 56.0536C1822.19 58.0026 1822.62 59.9189 1823.31 61.7522L1819.71 65.7836L1824.9 73.0887L1829.92 71.0427C1831.43 72.2676 1833.09 73.2869 1834.87 74.0738L1835.17 79.4844L1844.01 81L1846.05 75.9834C1848 75.8056 1849.91 75.3672 1851.74 74.68L1855.78 78.2871L1863.07 73.0887L1860.98 68.0873C1862.23 66.5813 1863.28 64.9146 1864.09 63.1313L1869.49 62.8282L1871 53.9924L1865.99 51.9312C1865.82 49.9814 1865.38 48.0642 1864.69 46.2327L1868.29 42.2012L1863.1 34.8961L1858.12 36.9876L1858.08 37.0331ZM1851.57 48.1271C1852.68 49.6773 1853.3 51.5211 1853.36 53.425C1853.42 55.329 1852.91 57.2075 1851.9 58.8226C1850.89 60.4376 1849.43 61.7167 1847.69 62.4978C1845.96 63.2789 1844.03 63.5268 1842.16 63.2102C1840.28 62.8936 1838.54 62.0267 1837.16 60.7193C1835.78 59.4119 1834.81 57.7228 1834.39 55.8659C1833.96 54.009 1834.1 52.0678 1834.78 50.2882C1835.46 48.5086 1836.65 46.9706 1838.2 45.8689C1840.27 44.3921 1842.84 43.8004 1845.35 44.2239C1847.86 44.6474 1850.1 46.0514 1851.57 48.1271Z" fill="#EBEBEB" fill-opacity="0.2"/>
<path opacity="0.37" d="M257.079 37.0331C255.574 35.7823 253.911 34.7375 252.131 33.9262L251.829 28.5156L243.008 27L240.95 32.0014C239.004 32.1861 237.09 32.6295 235.261 33.32L231.221 29.6977L223.928 34.8961L226.016 39.8975C224.773 41.4081 223.73 43.074 222.915 44.8535L217.513 45.1566L216 53.9924L221.008 56.0536C221.187 58.0026 221.625 59.9189 222.309 61.7522L218.708 65.7836L223.898 73.0887L228.921 71.0427C230.43 72.2676 232.093 73.2869 233.869 74.0738L234.171 79.4844L243.008 81L245.05 75.9834C246.996 75.8056 248.91 75.3672 250.739 74.68L254.779 78.2871L262.072 73.0887L259.984 68.0873C261.234 66.5813 262.277 64.9146 263.085 63.1313L268.487 62.8282L270 53.9924L264.992 51.9312C264.818 49.9814 264.381 48.0642 263.691 46.2327L267.292 42.2012L262.102 34.8961L257.124 36.9876L257.079 37.0331ZM250.573 48.1271C251.678 49.6773 252.299 51.5211 252.357 53.425C252.416 55.329 251.908 57.2075 250.9 58.8226C249.892 60.4376 248.428 61.7167 246.694 62.4978C244.959 63.2789 243.032 63.5268 241.157 63.2102C239.282 62.8936 237.543 62.0267 236.16 60.7193C234.777 59.4119 233.812 57.7228 233.388 55.8659C232.964 54.009 233.1 52.0678 233.778 50.2882C234.456 48.5086 235.646 46.9706 237.198 45.8689C239.27 44.3921 241.844 43.8004 244.352 44.2239C246.86 44.6474 249.098 46.0514 250.573 48.1271Z" fill="#EBEBEB" fill-opacity="0.2"/>
</g>
</svg>
