<?xml version="1.0" encoding="UTF-8"?><svg id="Layer_1" xmlns="http://www.w3.org/2000/svg" xmlns:xlink="http://www.w3.org/1999/xlink" viewBox="0 0 264.71 474.46"><defs><clipPath id="clippath"><path d="m162.31,63.74s1-4.8,6.8-6.3c5.7-1.6,10,2.4,10,2.4-2,.4-2.8,3-8.4,4.9-5.6,1.9-8.4-1-8.4-1Z" style="fill:none;"/></clipPath><clipPath id="clippath-1"><path d="m143.11,63.54s-1-4.8-6.8-6.3c-5.7-1.6-10,2.4-10,2.4,2,.4,2.8,3,8.4,4.9s8.4-1,8.4-1Z" style="fill:none;"/></clipPath></defs><g id="OBJECTS"><path d="m159.51,124.94s9.8,23.4-12.5,25.8c-15.1,1.6-30.1-10.3-28.8-24.2-5.7,4.5-8.3,9.5-11.8,17.5-3.6,8,2.8,38,11.4,58.3,8.5,20.2,25.8,68.8,37.5,72.8,11.8,4,15.2-33,22.7-56.7s1.2-82.5,1.2-82.5c0,0-13.8-2.1-19.7-11Z" style="fill:#ffc112;"/><path d="m113.71,131.64s-20.7,15.1-44.7,21.5c-24,6.3-27.4,10.5-27.4,10.5,0,0,16.4,51.4,20.7,83.9,4.2,32.5,19.4,55.6,10.5,94.8s-19.6,92.3-20.9,112.5c-1.3,20.2,38.6,19,69.5,19.6,31,.6,43-14.5,49.9-30.3,7-15.8-7.6-123.9-7-137.8.6-13.9-8.3-58.8-26.6-88.5-18.1-29.7-26.1-70.5-24-86.2Z" style="fill:#fff;"/><path d="m101.31,348.04c8.9-39.2-30.8-88.2-33.7-120.8-4.9-53.7-25.9-63.6-25.9-63.6,0,0,16.4,51.4,20.7,83.9,4.2,32.5,19.4,55.6,10.5,94.8s-19.6,92.3-20.9,112.5c-.8,12.5,14.1,16.8,32.8,18.4,1.2-20.2,7.6-86,16.5-125.2Z" style="fill:#f0f6f7;"/><path d="m63.01,387.34l-2.3,12.3s6.2-2.9,11.5,1.8c5.3,4.6,20.2,4.4,26.7,2.4,6.5-2.1,31.1-22.4,31.1-22.4,0,0-7.3,5.2-18.5,3.8-11.2-1.4-33.8-16-33.8-16l-14.7,18.1Z" style="fill:#f0f6f7;"/><path d="m72.21,401.44s55.5-18.7,57.9-20.1c-6.7,11.3-49.9,26-57.9,20.1Z" style="fill:#dfeeef;"/><path d="m167.01,131.64s8.9,41.5,0,78.7-17.7,96-16.4,132c1.3,36,2.5,99.3,4.4,108.1,1.9,8.9,29.7,24.7,58.2,19s29.1-17.7,29.1-17.7c0,0-13.9-68.9-31-120.1s1.3-69.5,7.6-107.5c6.3-37.9.6-71.4.6-71.4,0,0-42.6-18.5-52.5-21.1Z" style="fill:#f0f6f7;"/><path d="m167.01,131.64s8.9,41.5,0,78.7-15.1,94.3-13.9,130.3c1.3,36,6.5,98.2,8.4,107.1s23.2,27.4,51.6,21.7c28.5-5.7,29.1-17.7,29.1-17.7,0,0-13.9-68.9-31-120.1s1.3-69.5,7.6-107.5c6.3-37.9.6-71.4.6-71.4,0,0-42.5-18.5-52.4-21.1Z" style="fill:#fff;"/><path d="m167.01,281.74c0,2.5-2,4.5-4.5,4.5s-4.5-2-4.5-4.5,2-4.5,4.5-4.5,4.5,2,4.5,4.5Z" style="fill:#dfeeef;"/><circle cx="159.81" cy="356.64" r="4.5" style="fill:#dfeeef;"/><path d="m168.81,430.94c0,2.5-2,4.5-4.5,4.5s-4.5-2-4.5-4.5,2-4.5,4.5-4.5,4.5,2,4.5,4.5Z" style="fill:#dfeeef;"/><path d="m211.31,331.64c-17.1-51.2,1.3-69.5,7.6-107.5-6.3,37.9-47,64.2-22.5,112.3,24.7,48.6,33.1,111.5,34.8,127.1,10.7-5.6,11.1-11.8,11.1-11.8,0,0-13.9-68.9-31-120.1Z" style="fill:#f0f6f7;"/><path d="m177.91,378.74s13.2,15.5,52.7,21.4c-30.4-11.3-52.7-21.4-52.7-21.4Z" style="fill:#dfeeef;"/><path d="m119.31,124.14s-7.6,24.1,5.7,61.7c13.3,37.6,36.7,69.3,30,97.1-3-18.3-16.4-38.5-36.7-53.1-20.2-14.5-28.7-37.3-28.7-37.3l24-15.9-26.1-3.7s12.7-28.2,15.7-33.9c5.3-10.3,16.1-14.9,16.1-14.9Z" style="fill:#dfeeef;"/><path d="m119.31,124.14s-7.6,24.1,5.7,61.7c13.3,37.6,35.9,58.3,31.2,88.6-5.7-16.2-17.9-33.6-38.1-48.1-20.2-14.5-27.1-44.8-27.1-44.8l22.7-4.8-25.4-9.3s12-22.6,15-28.3c5.2-10.4,16-15,16-15Z" style="fill:#f0f6f7;"/><path d="m159.51,124.94s11.4,23.1,10.2,50.7c-1.2,27.6-4,37.9-7.6,50.9s-6.4,31.2-8.9,65.6c6.6-40.8,30.9-55.4,40.2-80,7.9-21,9.3-28.6,9.3-28.6l-18.8-9.8,13.9-4.6-15-29.7s-13.3-12.9-23.3-14.5Z" style="fill:#dfeeef;"/><path d="m159.51,124.94s11.4,23.1,10.2,50.7c-1.2,27.6-4,37.9-7.6,50.9s-6.4,31.2-8.9,65.6c6.6-40.8,29.2-57.1,38.5-81.7,7.9-21,9.5-37.4,9.5-37.4l-17.3.8,14.1-10.7-15.2-23.6c0-.1-13.3-13-23.3-14.6Z" style="fill:#f0f6f7;"/><path d="m221.71,162.14s-10.3,16.9-8.8,39.5c1.6,22.6.5,59.4-8,82.5,16.1-32.6,16.4-49.6,14.2-64.5-2.1-14.8-6.2-36.3,2.6-57.5Z" style="fill:#f0f6f7;"/><path d="m219.61,152.64s10.7,5.1,13.3,21.5c2.5,16.4,4.5,22.4,11.9,35.7s9.1,27.1,15.2,57c-15.4,19.8-40.3,10.3-40.3,10.3,0,0-.2-31-4.5-49.9-4.4-18.9-1.9-68.9,4.4-74.6Z" style="fill:#fff;"/><path d="m216.81,158.84s-5.7,44.3,0,75.5c-.1,16-2.5,23.2-2.5,23.2,0,0-11.3-64.2,2.5-98.7Z" style="fill:#f0f6f7;"/><path d="m222.31,303.14s-4.1,19.8-4.2,25.9c-.1,6.2,7.1,9.8,14,9.1,6.9-.7,11.3-9,12.7-17.7,1.4-8.6-.8-31.7-7.7-34.1-6.9-2.4-9.7,8.2-10,9.7-.2,1.6-4.8,7.1-4.8,7.1Z" style="fill:#c6e2e5;"/><path d="m217.61,325.34s10.1,6,24.7-12.3c14.5-18.3-9.6-24.5-9.6-24.5l-10.2,11.6-4.9,25.2Z" style="fill:#cb7663;"/><path d="m229.91,298.64s6,19.3-4.7,27.1c-1.3.3-3.3.4-3.3.4,0,0,2.8,1.5,8.6,1,5.8-.5,7.9-6.4,9.3-11.2,1.4-4.7-1.6-17.8-9.9-17.3Z" style="fill:#ffc112;"/><path d="m228.61,297.64s8.1,8.3,7.3,26.2c-.1,2.9-5,15.3-8.2,14.2,8,2.5,14.4-1.7,19-9.1s6.8-11.4,12.4-18.8,5.6-11.4,5.6-21.9-4.4-15.1-4.8-21.4-32.8,2-33.5,9.6c-.6,7.6-4.3,16.5,2.2,21.2Z" style="fill:#fff;"/><path d="m224.81,286.04c1.7.9,20.9-2.3,24.3,15.7,3.9,2,4.9-5.5,2.2-11.4-2.7-5.9-16.5-8.2-16.5-8.2,15.2-2.1,21.3-1.3,25.1,4.8-4.2-12.4-20.7-13.5-27-9.7,7.8-15.4,20.4-14.1,20.4-14.1-5.3-4.2-21.7,1.4-27.4,9.8-5.6,8.3-1.1,13.1-1.1,13.1Z" style="fill:#f0f6f7;"/><polygon points="212.51 346.14 189.91 387.84 222.21 229.84 243.71 198.84 212.51 346.14" style="fill:#e59e00;"/><polygon points="181.41 385.34 215.11 227.34 237.91 196.94 243.71 198.84 222.21 229.84 189.91 387.84 181.41 385.34" style="fill:#ffc112;"/><path d="m229.61,313.74s2.3-7.7-.3-17.7c-2.5-9.9,0-9.3-2.7-15-2.6-5.7.9-11.3-.5-13.4-1.5-2.1-7.4.3-8.3,6.8s1.9,6.3,1.1,11.2c-.8,4.8-1.7,7.7-3.2,9s-14.5-1.5-14.5-1.5l.8-4.4s-3.9-1.1-6.6,2.8-1.4,9.2-1.4,9.2c-4.1,1.4-3.9,7.6-2.2,9.4-3.5,4.7-1.1,9.9-1.1,9.9-1.7,3-.4,7.8,1.4,9.6,1.9,1.8,15,4.4,19.2,3.6s4.7-3.6,6.5-6.8c1.8-3.3,3.5-3.5,6.2-6.7,2.8-3.4,4.4-1.5,5.6-6Z" style="fill:#d3826f;"/><path d="m229.61,313.74s2.3-7.7-.3-17.7c-2.5-9.9,0-9.3-2.7-15-2.6-5.7.9-11.3-.5-13.4-1.5-2.1-7.4.3-8.3,6.8s4.7,7.1,3.9,12c-.8,4.8-1.4,7.3-2.9,8.5-1.5,1.3-17.6-1.9-17.6-1.9l.8-4.4s-3.9-1.1-6.6,2.8-1.4,9.2-1.4,9.2c-4.1,1.4-3.9,7.6-2.2,9.4-3.5,4.7-1.1,9.9-1.1,9.9-1.7,3-.4,7.8,1.4,9.6,1.9,1.8,15,4.4,19.2,3.6s4.7-3.6,6.5-6.8c1.8-3.3,3.5-3.5,6.2-6.7,2.8-3.3,4.4-1.4,5.6-5.9Z" style="fill:#db907b;"/><path d="m194.01,300.74s2.3,4.2,8.3,5.8c6,1.7,9.4.7,10.2,2,.8,1.3-.4.9-4.4.6-4-.4-12.7-2.2-14.1-8.4Z" style="fill:#d3826f;"/><path d="m191.81,310.14s2.5,3.1,8.2,5,9.6.3,10.3,1.9c.6,1.6-5.1,1.1-9.7-.4-4.7-1.5-9.1-5.3-8.8-6.5Z" style="fill:#d3826f;"/><path d="m190.71,320.04s2.4,2.3,7.5,3.5,8.3-.3,9,.7-.9,2-6,1.3c-5.2-.7-9.9-2.9-10.5-5.5Z" style="fill:#d3826f;"/><path d="m83.91,355.04s5.7,11.4,16.8,16.1,18,13.3,23.7,23.1c5.7,9.8-38.6,13.6-38.6,13.6l-19-27.8,17.1-25Z" style="fill:#db907b;"/><path d="m94.11,367.14c-6.7-5.3-10.2-12.2-10.2-12.2l-17.1,25,19,27.8h.1c-.8-1.5-1.6-3.1-2.3-4.7-6.1-12.1-1.7-28.9,10.5-35.9Z" style="fill:#d3826f;"/><path d="m88.21,357.44l6.1,7.6s-8.4,2.1-15,13-4.7,13.5-4.7,13.5l-8.7-7.2c.1,0-2.4-20.3,22.3-26.9Z" style="fill:#ffc112;"/><path d="m41.61,163.64S2.01,259.84.11,300.14s20.9,56.8,29.1,66.3c8.2,9.5,35.4,25.9,35.4,25.9,5.5-27.4,27.2-34.1,27.2-34.1,0,0-27.2-32.6-37.9-46s3.6-33.3,9.7-56.8c6-23.7-9.5-92.8-22-91.8Z" style="fill:#fff;"/><path d="m22.41,304.24c-.5.3,19-4.1,31.4,7.9-3.8-10.7-16.8-16.4-31.4-7.9Z" style="fill:#f0f6f7;"/><path d="m44.01,356.94c-8.2-9.5-31-25.9-29.1-66.3,1.4-29.8,23.4-90,34.8-119.4-2.7-4.9-5.4-7.9-8.1-7.6,0,0-39.6,96.2-41.5,136.5s20.9,56.8,29.1,66.3c8.2,9.5,35.4,25.9,35.4,25.9,1.2-6,3.2-11.1,5.6-15.3-8.7-5.6-21.1-14.2-26.2-20.1Z" style="fill:#f0f6f7;"/><path d="m72.21,401.44s36.6-1.2,57.9-20.1c5.7,12.8,6,16.3,6,16.3,0,0-33.8,20.9-60.1,19-1.6-6-3.8-15.2-3.8-15.2Z" style="fill:#fff;"/><path d="m98.21,151.34c-4.5,17.4,1.2,33.4,7.4,46.7,13.9,29.7,11.5,41.6,9.9,49.4-.1.5-.2,1-.3,1.5-.1.6.3,1.1.8,1.2h.2c.5,0,.9-.3,1-.8s.2-1,.3-1.5c1.6-8.1,4.1-20.4-10-50.7-6.1-13-11.7-28.5-7.3-45.3,4.5-17.1,14.5-25.7,19.7-29.1l.9-3c-4.5,2.5-17.2,11.1-22.6,31.6Z" style="fill:#07003d;"/><path d="m119.01,324.84c-.5,0-1-.4-1-1s.4-1,1-1c3.4-.1,6.3-.8,6.5-1.4.3-1.9,2-43.5,1.7-52.8-.3-7.2-2.2-16.3-9.6-18.2-2.7-.7-5.4-.3-7.8,1.2-3.5,2.2-6,6.4-7.1,11.9-2.2,11.2-4.9,53.7-3.9,56.4.7,1.1,4.4,2,6.8,2.2.6.1,1,.6.9,1.1-.1.6-.5,1-1.1.9-1.1-.1-6.8-.8-8.3-3.3-1.8-2.8,1.8-48.6,3.7-57.8,1.2-6,4.1-10.7,8-13.2,2.8-1.8,6.1-2.3,9.3-1.5,6.9,1.8,10.7,8.7,11.1,20.1.3,9.4-1.4,51.3-1.7,53.2-.4,2.8-6.1,3.2-8.5,3.2h0Z" style="fill:#07003d;"/><path d="m102.61,322.24s.2-.9,1-.8,2.9.3,3.4.8,0,2.5-.4,2.8-2.8-.4-3.5-.5-.7-1.5-.5-2.3Z" style="fill:#66657a;"/><path d="m122.11,322.84s-.1-.8-.9-.7c-.8.1-3,.1-3.5.7-.5.5,0,2.4.4,2.7.4.3,2.8-.3,3.5-.4.8-.1.7-1.5.5-2.3Z" style="fill:#66657a;"/><path d="m118.21,248.04c-3.4-.9-6.8-.3-9.7,1.5-4.1,2.6-7,7.4-8.2,13.5-.1.6-.3,1.5-.4,2.6l3,.2c.1-.8.3-1.6.4-2.2,1.1-5.3,3.5-9.4,6.9-11.5,2.2-1.4,4.8-1.8,7.4-1.2,6.7,1.7,8.7,9.7,9.2,16.5l3,.2c-.7-11.1-4.7-17.9-11.6-19.6Z" style="fill:#66657a;"/><path d="m191.91,173.14c-11.4-44.8-28.3-50.7-33.5-51.4l.7,2.2c5.5,1.3,20.4,8.7,30.8,49.7,13,51.2.2,81.9.1,82.2l1.9.8c.1-.3,13.2-31.6,0-83.5Z" style="fill:#07003d;"/><circle cx="190.91" cy="257.54" r="7.4" style="fill:#66657a;"/><path d="m195.21,257.54c0,2.4-1.9,4.3-4.3,4.3s-4.3-1.9-4.3-4.3,1.9-4.3,4.3-4.3,4.3,1.9,4.3,4.3Z" style="fill:#8c8c9b;"/><path d="m166.01,138.74v-5.8c-2.3-1.3-4.5-3.3-5.9-6.4-4.6-10.4-3.1-25.9-3.1-25.9l-36.8-15s3.4,23.6.5,34.4-10,14.7-10,14.7c0,0,33.9,28.6,66.2,4.1h-10.9v-.1Z" style="fill:#d3826f;"/><path d="m157.31,114.94c-.9-7.6-.2-14.4-.2-14.4l-36.8-15s3.4,23.6.5,34.4-10,14.7-10,14.7c0,0,2.3,8.2,8.3,16.4,1.3-9.4,4.1-18.6,8.1-26.9,4.9-10.4,18.8-14.2,30.1-9.2Z" style="fill:#d07a6a;"/><path d="m149.31,100.84c-.2-.2,5.8,2.3,10,0-1.5,2.5-6.2,4.6-10,0Z" style="fill:#d3826f;"/><path d="m119.21,4.74c-26.7,12.5-27.2,45.4-25.4,68.5,3.9,50.1-11.3,38.3-13.7,59.5-1.7,15.4-13.9,14.8-21.8,23.5-.5.5,66.5,52.8,125.1,24.7,28.5-13.7,30.9-30.5,30.9-30.5,1.3-5-12.3-9.4-15.4-10.8-9-4-1.9-7.8-4.6-15.4-3.2-9.2-16.8-14.3-11.3-32.1,5.8-19,6.9-42.9,1.6-62.6C177.11,1.84,142.81-6.26,119.21,4.74Z" style="fill:#0778a5;"/><path d="m169.41,23.24s12.8,10.9,14.2,32.1c1.4,21.2-1.7,39.7-14.2,49.3s-24.4,8.7-39.8.2c-11.4-6.3-19.6-24.3-20.1-37.5s-.9-32.1,11-44.1c11.9-12,38.9-7.4,48.9,0Z" style="fill:#db907b;"/><path d="m143.11,63.54s5.1-7.1-1.4-15.2c-7-1.1-11.7-2.1-14.6,0-2.9,2.1-3.3,8.4-1.6,12,3-2.8,4.9-4.8,11.6-3,2.2,1,5.5,3.4,6,6.2Z" style="fill:#d3826f;"/><path d="m162.31,63.74s-2.1-7,2.2-14.5c3.5-1.7,8.8-1.8,8.8-1.8l6.6,13.1-17.6,3.2Z" style="fill:#d3826f;"/><path d="m169.41,23.24c-10-7.4-37-12-48.9,0s-11.4,31-11,44.1c.5,13.2,8.6,31.2,20.1,37.5,10.7,5.9,19.8,8.1,28.6,5.6h0c-6.2.9-12.7,1.5-25.3-7.3-12.6-8.7-23.2-44.1-.9-71.9,0,0,11.3-4.5,24.3-.8,22.7,6.7,20.9,25.9,21.5,28.3,1.9,6.7,4.8,11.8,5.5,15.6.6-6,0-12.4.2-19.1.7-27.4-14.1-32-14.1-32Z" style="fill:#d3826f;"/><path d="m161.71,79.14s-.4,3-3.8,3.9c-5.2,1.3-9.3-3-9.2-4.4,2.7.8,8.3,3.9,13,.5Z" style="fill:#d3826f;"/><path d="m162.31,63.74s1-4.8,6.8-6.3c5.7-1.6,10,2.4,10,2.4-2,.4-2.8,3-8.4,4.9-5.6,1.9-8.4-1-8.4-1Z" style="fill:#fff;"/><g style="clip-path:url(#clippath);"><path d="m172.11,58.94c1,1.7.4,3.9-1.3,4.9-1.7,1-3.9.4-4.9-1.3-1-1.7-.4-3.9,1.3-4.9s3.9-.4,4.9,1.3Z" style="fill:#1e0b00;"/><path d="m170.51,59.94c.5.8.2,1.9-.6,2.4-.8.5-1.9.2-2.4-.6-.5-.8-.2-1.9.6-2.4.9-.5,2-.3,2.4.6Z" style="fill:#040100;"/><path d="m170.61,58.94c.2.4.1.8-.3,1s-.8.1-1-.3-.1-.8.3-1c.4-.1.8,0,1,.3Z" style="fill:#fff;"/></g><path d="m162.31,63.74c.4-1.8,1.4-3.4,2.8-4.7,1.4-1.3,3.2-2.1,5-2.4s3.8-.2,5.6.5c1.8.7,3.3,1.9,4.3,3.4-1.3-1.3-2.9-2.1-4.5-2.6-1.7-.4-3.4-.5-5.1-.2s-3.3.9-4.7,2c-1.4,1-2.6,2.4-3.4,4Z" style="fill:#210900;"/><path d="m162.01,61.84c.2-1.8,1.2-3.5,2.5-4.8,1.4-1.3,3.1-2,4.9-2.4s3.7-.3,5.5.3c1.7.6,3.4,1.6,4.4,3.2-.6-.7-1.3-1.2-2.1-1.7-.8-.5-1.6-.8-2.4-1.1-.9-.2-1.7-.4-2.6-.4s-1.8.1-2.6.3c-.9.1-1.7.4-2.5.8s-1.6.8-2.2,1.4c-1.5,1.1-2.5,2.7-2.9,4.4Z" style="fill:#89493f;"/><path d="m143.11,63.54s-1-4.8-6.8-6.3c-5.7-1.6-10,2.4-10,2.4,2,.4,2.8,3,8.4,4.9s8.4-1,8.4-1Z" style="fill:#fff;"/><g style="clip-path:url(#clippath-1);"><path d="m131.11,58.64c-1,1.7-.4,3.9,1.3,4.9s3.9.4,4.9-1.3c1-1.7.4-3.9-1.3-4.9-1.7-1-3.8-.4-4.9,1.3Z" style="fill:#1e0b00;"/><path d="m132.81,59.54c-.5.8-.2,1.9.6,2.4s1.9.2,2.4-.6c.5-.8.2-1.9-.6-2.4-.9-.5-2-.2-2.4.6Z" style="fill:#040100;"/><path d="m132.71,58.64c-.2.4-.1.8.3,1,.4.2.8.1,1-.3s.1-.8-.3-1c-.4-.2-.8-.1-1,.3Z" style="fill:#fff;"/></g><path d="m143.11,63.54c-.4-1.8-1.4-3.4-2.8-4.7-1.4-1.3-3.2-2.1-5-2.4-1.8-.3-3.8-.2-5.6.5s-3.3,1.9-4.3,3.4c1.3-1.3,2.9-2.1,4.5-2.6,1.7-.4,3.4-.5,5.1-.2,1.7.3,3.3.9,4.7,2,1.4,1,2.6,2.4,3.4,4Z" style="fill:#210900;"/><path d="m126.31,59.94s0,3,3,6.4,11,4.2,13.8-2c-3.1,3-6.2,4-10.9,2.2-4.8-1.9-5.9-6.6-5.9-6.6Z" style="fill:#d3826f;"/><path d="m162.31,64.14s1.1,5.5,8.3,5.1c7.3-.4,9-8.8,9-8.8,0,0-2.7,6.7-9,7.2-6.2.5-8.3-3.5-8.3-3.5Z" style="fill:#d3826f;"/><path d="m143.41,61.74c-.2-1.8-1.2-3.5-2.5-4.8-1.4-1.3-3.1-2-4.9-2.4-1.8-.4-3.7-.3-5.5.3-1.7.6-3.4,1.6-4.4,3.2.6-.7,1.3-1.2,2.1-1.7s1.6-.8,2.4-1.1c.9-.2,1.7-.4,2.6-.4s1.8.1,2.6.3c.9.1,1.7.4,2.5.8s1.6.8,2.2,1.4c1.4,1,2.5,2.6,2.9,4.4Z" style="fill:#89493f;"/><path d="m141.21,50.24s-4.6-1.6-10.2-1.6-10.2,4.2-10.2,4.2c5.1-6.2,8.6-6.8,12.9-7.1,4.3-.2,7.9.7,8.9,1.5,1.2.7,1.2,2.8-1.4,3Z" style="fill:#210900;"/><path d="m163.01,50.24s4.6-1.6,10.2-1.6,10.2,4.2,10.2,4.2c-5.1-6.2-8.6-6.8-12.9-7.1-4.3-.2-7.9.7-8.9,1.5-1.2.7-1.2,2.8,1.4,3Z" style="fill:#210900;"/><path d="m154.81,59.74c1.1.2,3,7.2,3.3,10.7.3,4.5.8,6.9.8,6.9.7-.4.9-2.7.7-5.3-.3-2.5-.9-11.6-4.8-12.3Z" style="fill:#dba194;"/><path d="m168.11,85.84s-11.4,2.4-29,0c5.2,9.9,10.4,11.4,15.5,12.2,5,.8,13.8-3.2,13.5-12.2Z" style="fill:#4b2e26;"/><path d="m167.21,85.94c-.5,1.6-2.3,4.6-9,4.9-8.9.4-15.1.8-17.8-4.9,14,1.8,23.9.5,26.8,0Z" style="fill:#fff;"/><path d="m166.71,87.14c.2-.4.4-.8.5-1.1-2.9.5-12.8,1.8-26.8,0,.2.4.4.8.7,1.1,12.9,1.5,22.2.5,25.6,0Z" style="fill:#f2f2f2;"/><path d="m139.11,85.84s11.4-.8,13.2-.8c1.8-.1,4.3.5,4.9,1.2,1.9-1.6,7.8-1.8,11-.4-4.7,1.4-19.4,2.4-29.1,0Z" style="fill:#ad5147;"/><path d="m139.11,85.84s.6,6.2,7,11.1,14.7,3.3,18.8-.8c4.1-4.1,3.3-10.3,3.3-10.3,0,0-3.3,11.7-13.2,11.5-9.9-.2-15.9-11.5-15.9-11.5Z" style="fill:#ad5147;"/><path d="m119.91,54.64s15.8-.7,28.3,1.6c1.6,1.3.5,13.5-6.6,15.9s-15.4,1-19.1-1.3c-3.6-2.3-2.6-16.2-2.6-16.2Z" style="fill:#fff; isolation:isolate; opacity:.29;"/><path d="m148.31,63.24c.8-3.3.7-6.4-.1-7-7.2-1.3-15.4-1.7-21.1-1.7.3,3.2,1,6.3,2.6,7.3,3.6,2.3,11.7,3.6,18.6,1.4Z" style="fill:#fff; isolation:isolate; opacity:.29;"/><path d="m133.61,73.84c-4.6,0-8.8-1.1-11.3-2.6-3.8-2.4-3-15.2-2.9-16.6v-.4h.4c.2,0,16-.7,28.4,1.6h.1l.1.1c1,.8.9,3.8.5,6.2-.4,2-1.9,8.7-7.2,10.5-2.5.9-5.3,1.2-8.1,1.2Zm-13.2-18.7c-.2,4.1-.2,13.6,2.5,15.3,3.7,2.4,11.9,3.5,18.7,1.3,4.8-1.6,6.3-7.9,6.6-9.7.5-3,.2-4.8-.1-5.2-11.3-2.2-25.1-1.8-27.7-1.7Z"/><path d="m189.41,54.64s-15.8-.7-28.3,1.6c-1.6,1.3-.5,13.5,6.6,15.9s15.4,1,19.1-1.3c3.6-2.3,2.6-16.2,2.6-16.2Z" style="fill:#fff; isolation:isolate; opacity:.29;"/><path d="m189.41,62.74c.3-4.1,0-8.1,0-8.1,0,0-11.1-.5-22.1.7,1.1,3.2,3,6.2,6.2,7.3,5.4,1.9,11.6,1.5,15.9.1Z" style="fill:#fff; isolation:isolate; opacity:.29;"/><path d="m175.71,73.84c-2.7,0-5.6-.4-8.2-1.3-5.3-1.8-6.9-8.5-7.2-10.5-.4-2.4-.5-5.4.5-6.2l.1-.1h.1c12.5-2.3,28.3-1.6,28.4-1.6h.4v.4c.1,1.4.9,14.2-2.9,16.6-2.4,1.7-6.7,2.7-11.2,2.7Zm-14.4-17.1c-.3.4-.6,2.3-.1,5.2.3,1.9,1.8,8.1,6.6,9.7,6.7,2.3,14.9,1.1,18.7-1.3,2.7-1.7,2.7-11.3,2.5-15.3-2.7,0-16.5-.4-27.7,1.7Z"/><path d="m158.71,61.24c.7,1.2,1.2,2.6,1.5,3.9.7,2.7,1.1,5.7,1.3,8.5.1,1.4.2,2.6.2,4,0,.4.1.7,0,1.1-.1,1.4-1.3,2.3-2.6,2.6-1.5.3-3,.1-4.4-.1s-4.5-1.5-4.4-1.8c.1-.2,5.5,1.5,8.4.5,1.3-.2,1.5-1.6,1.5-2.4,0-1.4-.1-2.7-.1-4.1-.2-2.7-.4-5.5-.9-8.1-.3-1.3-.7-2.6-1.3-3.9-.3-1.2.1-1.5.8-.2Z" style="fill:#c46a5c;"/><path d="m127.61,79.24c0,.5-.4,1-1,1s-1-.4-1-1c0-.5.4-1,1-1s1,.5,1,1Z" style="fill:#4b2e26;"/><path d="m148.31,56.74h-.2l.3-.9-.2.4v-.5s.1,0,.2-.1c3.5-1,7.7-1,12.7.1l-.2.9c-4.8-1-8.9-1.1-12.2-.1-.2.2-.3.2-.4.2Z"/><path d="m130.51,11.34c-.8-.3-7.1,21.9-7.4,23.2-4.1,16.6-6,34.1-3.7,51.1,1.7,12,6,24,13.1,34,8.3,11.7,18.1,17.9,31.7,21.8,9.6,2.8,20,5.8,30.1,5.3,0,0-28.2,41.9-71.2,20.3-43-21.4-34-170.1,7.4-155.7Z" style="fill:#0778a5;"/><path d="m184.91,41.14s-32.9-15.3-74,3.5c0,0,2.7-18.3,16.8-28.6,16.1-11.6,44.6-13.4,57.2,25.1Z" style="fill:#0778a5;"/><path d="m100.51,163.54c13.6,10.2,32.5,14,50,12.9,8.7-.6,19.4-2.8,27-7,5.8-3.2,11.2-7.1,14.2-12.5,2.8-5.2-.9-9.1-6.3-5.9-48.2,28.7-91.9,7.3-84.9,12.5Z" style="fill:#005b77;"/><path d="m108.01,84.04c4.9,38.5,30.6,70,73.7,59.8-30.2,15.7-64.6-8.2-96-2.1-.3-9.6,12.9-10.3,17.5-16.6,7.1-10.2-.5-32.2,4.8-41.1Z" style="fill:#005b77;"/><path d="m142.31,124.04c7-.8,25.6-1.8,36-23.1,0,0,2,11.8-6.3,19.2-12.5,11.2-29.7,3.9-29.7,3.9Z" style="fill:#005b77;"/><path d="m136.71,8.64c-7.6,16.8-14.3,34.4-16.5,52.7-2.2,18.4,1.1,38.4,10.1,53.5-12.5-9.3-17.8-26.2-18.3-41.2-.6-17.9,5.5-36.1,14.7-51.2,3-4.9,6.4-9.5,10-13.8Z" style="fill:#005b77;"/></g></svg>