<svg width="64" height="64" viewBox="0 0 64 64" fill="none" xmlns="http://www.w3.org/2000/svg">
<path d="M31.652 63.4736C49.1286 63.4736 63.2962 49.306 63.2962 31.8294C63.2962 14.3528 49.1286 0.1852 31.652 0.1852C14.1754 0.1852 0.00779724 14.3528 0.00779724 31.8294C0.00779724 49.306 14.1754 63.4736 31.652 63.4736Z" fill="#284A6F" fill-opacity="0.09"/>
<path d="M26.879 31.0098C28.0592 31.0098 29.2129 30.6598 30.1942 30.0041C31.1755 29.3484 31.9403 28.4164 32.3919 27.326C32.8435 26.2357 32.9616 25.0359 32.7313 23.8784C32.5009 22.7209 31.9325 21.6577 31.0979 20.8232C30.2633 19.9888 29.2 19.4205 28.0425 19.1904C26.885 18.9603 25.6852 19.0786 24.5949 19.5304C23.5046 19.9822 22.5727 20.7471 21.9172 21.7285C21.2617 22.7099 20.9119 23.8637 20.9121 25.0439C20.9138 26.6258 21.543 28.1425 22.6617 29.2609C23.7804 30.3794 25.2971 31.0084 26.879 31.0098ZM26.879 21.1651C27.6462 21.1651 28.3961 21.3926 29.034 21.8188C29.6718 22.245 30.169 22.8508 30.4626 23.5595C30.7561 24.2683 30.833 25.0482 30.6833 25.8006C30.5336 26.553 30.1642 27.2441 29.6218 27.7866C29.0793 28.329 28.3882 28.6985 27.6358 28.8481C26.8834 28.9978 26.1035 28.921 25.3947 28.6274C24.686 28.3338 24.0802 27.8367 23.654 27.1988C23.2278 26.561 23.0003 25.811 23.0003 25.0439C23.0011 24.0154 23.41 23.0293 24.1373 22.3021C24.8645 21.5749 25.8506 21.1659 26.879 21.1651Z" fill="#284A6F"/>
<path d="M39.4823 31.5318C40.3599 31.5318 41.2178 31.2716 41.9475 30.784C42.6773 30.2964 43.246 29.6034 43.5819 28.7926C43.9177 27.9817 44.0056 27.0895 43.8344 26.2288C43.6632 25.368 43.2405 24.5774 42.62 23.9568C41.9994 23.3362 41.2087 22.9136 40.348 22.7424C39.4872 22.5712 38.595 22.659 37.7842 22.9949C36.9734 23.3307 36.2803 23.8995 35.7928 24.6292C35.3052 25.3589 35.0449 26.2168 35.0449 27.0945C35.0463 28.2709 35.5143 29.3988 36.3461 30.2306C37.178 31.0625 38.3058 31.5304 39.4823 31.5318ZM39.4823 24.7453C39.9469 24.7453 40.4011 24.8831 40.7874 25.1412C41.1737 25.3993 41.4748 25.7662 41.6526 26.1955C41.8305 26.6247 41.877 27.0971 41.7863 27.5528C41.6957 28.0085 41.4719 28.4271 41.1434 28.7556C40.8149 29.0841 40.3963 29.3079 39.9406 29.3985C39.4849 29.4892 39.0125 29.4426 38.5833 29.2648C38.154 29.087 37.7871 28.7859 37.529 28.3996C37.2709 28.0133 37.1331 27.5591 37.1331 27.0945C37.1336 26.4716 37.3813 25.8744 37.8218 25.4339C38.2622 24.9935 38.8594 24.7458 39.4823 24.7453Z" fill="#284A6F"/>
<path d="M39.4821 32.7534C38.4286 32.7566 37.3865 32.9718 36.4179 33.3861C35.4493 33.8005 34.574 34.4055 33.8441 35.1653C32.2531 33.8429 30.3185 33.0011 28.2665 32.7381C26.2145 32.4752 24.1301 32.8021 22.2572 33.6805C20.3842 34.5589 18.8001 35.9526 17.6903 37.6984C16.5805 39.4443 15.9908 41.4701 15.9902 43.5388C15.9902 43.8157 16.1002 44.0813 16.296 44.2771C16.4918 44.4729 16.7574 44.5829 17.0343 44.5829H36.7257C37.0027 44.5829 37.2682 44.4729 37.464 44.2771C37.6598 44.0813 37.7698 43.8157 37.7698 43.5388C37.7681 42.898 37.7097 42.2586 37.5955 41.6281H46.2687C46.5456 41.6281 46.8111 41.5181 47.0069 41.3223C47.2028 41.1265 47.3128 40.861 47.3128 40.5841C47.3105 38.5079 46.4848 36.5174 45.0168 35.0494C43.5487 33.5814 41.5583 32.7556 39.4821 32.7534ZM18.14 42.4947C18.375 40.4932 19.2902 38.633 20.7326 37.2255C22.1749 35.818 24.0569 34.9485 26.0636 34.7625C28.0703 34.5765 30.0801 35.0853 31.7565 36.2037C33.433 37.3222 34.6745 38.9824 35.2734 40.9067C35.4403 41.4235 35.556 41.9553 35.619 42.4947H18.14ZM36.9878 39.54C36.5793 38.4977 36.0119 37.5249 35.3058 36.6562C36.0315 35.8816 36.958 35.3235 37.9821 35.0443C39.0062 34.765 40.0877 34.7753 41.1062 35.0743C42.1247 35.3732 43.0403 35.9489 43.751 36.7373C44.4617 37.5258 44.9397 38.496 45.1317 39.54H36.9878Z" fill="#284A6F"/>
</svg>
