<svg width="46" height="34" viewBox="0 0 46 34" fill="none" xmlns="http://www.w3.org/2000/svg">
<path d="M15.7089 22.07C24.1937 22.07 31.0719 17.1295 31.0719 11.035C31.0719 4.94054 24.1937 0 15.7089 0C7.2242 0 0.345947 4.94054 0.345947 11.035C0.345947 17.1295 7.2242 22.07 15.7089 22.07Z" fill="white"/>
<path d="M31.299 6.58899C32.0697 7.9448 32.4805 9.47545 32.4919 11.035C32.4919 17.494 25.414 22.752 16.528 23.061C19.179 26.372 24.143 28.606 29.842 28.606C38.326 28.606 45.205 23.666 45.205 17.571C45.204 11.831 39.0989 7.11699 31.299 6.58899Z" fill="white"/>
<path d="M23.9069 6.29004H7.56494V7.70304H23.9069V6.29004Z" fill="#3876BF"/>
<path d="M23.9069 10.442H7.56494V11.855H23.9069V10.442Z" fill="#3876BF"/>
<path d="M23.9069 14.593H7.56494V16.006H23.9069V14.593Z" fill="#3876BF"/>
<path d="M4.17393 16.641L2.02995 22.741C1.98357 22.8741 1.98024 23.0184 2.02049 23.1534C2.06073 23.2885 2.14247 23.4075 2.25413 23.4935C2.36579 23.5795 2.50169 23.6281 2.64256 23.6325C2.78342 23.6369 2.9221 23.5968 3.03892 23.518L8.3989 19.89L4.17393 16.641Z" fill="white"/>
<path d="M33.3149 27.7859L37.1149 33.0179C37.198 33.1318 37.3149 33.2166 37.4489 33.2603C37.5828 33.304 37.7272 33.3045 37.8615 33.2615C37.9957 33.2186 38.113 33.1345 38.1967 33.0211C38.2805 32.9078 38.3264 32.7709 38.3279 32.6299L38.39 26.158L33.3149 27.7859Z" fill="white"/>
</svg>
