<svg width="21" height="19" viewBox="0 0 21 19" fill="none" xmlns="http://www.w3.org/2000/svg">
<g clip-path="url(#clip0_1_13)">
<path d="M2.04998 8.51725C2.15435 8.55901 2.2754 8.55901 2.37977 8.50891L5.64001 7.02698C5.84871 6.9268 5.93638 6.67633 5.83619 6.46762C5.74019 6.26725 5.50225 6.1754 5.29769 6.26725L3.01427 7.30668C4.10379 4.04645 7.13861 1.8674 10.6326 1.8674C14.2936 1.8674 17.4953 4.31362 18.4179 7.81595C18.4763 8.03718 18.7059 8.17078 18.9271 8.11232C19.1484 8.05389 19.282 7.82428 19.2235 7.60305C18.2049 3.73755 14.6734 1.03253 10.6326 1.03253C6.77958 1.03253 3.4275 3.437 2.21693 7.03536L1.25683 4.63508C1.18588 4.418 0.947935 4.29695 0.730852 4.3679C0.513769 4.43886 0.392724 4.6768 0.463676 4.89388C0.467864 4.91059 0.476199 4.92726 0.484535 4.94397L1.81619 8.28349C1.85794 8.38787 1.94142 8.47553 2.04998 8.51725Z" fill="#284A6F" stroke="#284A6F" stroke-width="0.7"/>
<path d="M20.4713 14.6787C20.4671 14.6703 20.4629 14.662 20.4629 14.6536L19.1313 11.3141C19.0895 11.2097 19.006 11.1221 18.8975 11.0804C18.7931 11.0386 18.6721 11.0428 18.5677 11.0887L15.3075 12.5706C15.0946 12.6583 14.9944 12.9046 15.0821 13.1175C15.1697 13.3304 15.416 13.4305 15.6289 13.3429C15.6372 13.3387 15.6456 13.3345 15.6539 13.3304L17.9374 12.2909C16.8395 15.5512 13.8005 17.7302 10.3107 17.7302C6.64973 17.7302 3.44797 15.284 2.52543 11.7817C2.467 11.5604 2.2374 11.4268 2.01617 11.4853C1.79494 11.5437 1.66133 11.7733 1.7198 11.9946C2.73418 15.8642 6.26992 18.5651 10.3107 18.5651C14.1637 18.5651 17.5116 16.1606 18.7264 12.5622L19.6865 14.9625C19.7658 15.1796 20.0037 15.2923 20.2208 15.213C20.4378 15.1337 20.5505 14.8958 20.4713 14.6787Z" fill="#284A6F" stroke="#284A6F" stroke-width="0.7"/>
</g>
<defs>
<clipPath id="clip0_1_13">
<rect width="21" height="19" fill="white"/>
</clipPath>
</defs>
</svg>
