<svg width="33" height="33" viewBox="0 0 33 33" fill="none" xmlns="http://www.w3.org/2000/svg">
<path d="M3.70003 22.1412C1.28653 19.6652 -0.0410269 16.3647 0.000966744 12.9446C0.0429604 9.52445 1.45118 6.256 3.92477 3.83744C6.39837 1.41889 9.7412 0.0420045 13.2391 0.000945233C16.7371 -0.0401141 20.1128 1.2579 22.645 3.6177C24.7515 5.64644 26.0963 8.31069 26.462 11.1795C26.8277 14.0483 26.1928 16.9538 24.66 19.426C24.5987 19.5288 24.5731 19.6484 24.5872 19.7667C24.6013 19.885 24.6542 19.9956 24.738 20.082L31.573 26.7649C32.933 28.0947 33.257 29.9544 32.051 31.1345L31.843 31.3369C30.637 32.517 28.734 32.2002 27.374 30.8695L20.554 24.2013C20.4654 24.1151 20.3504 24.0596 20.2265 24.0433C20.1026 24.0271 19.9767 24.051 19.868 24.1113C17.3396 25.61 14.3679 26.2308 11.4339 25.8732C8.49982 25.5157 5.77493 24.2008 3.70003 22.1412ZM20.172 19.7232C21.5567 18.3695 22.4997 16.6447 22.8817 14.767C23.2638 12.8893 23.0678 10.943 22.3185 9.1742C21.5693 7.40541 20.3003 5.89359 18.6723 4.82992C17.0442 3.76626 15.1301 3.19853 13.172 3.19853C11.214 3.19853 9.29985 3.76626 7.67178 4.82992C6.04371 5.89359 4.7748 7.40541 4.02552 9.1742C3.27625 10.943 3.08025 12.8893 3.46233 14.767C3.8444 16.6447 4.78739 18.3695 6.17203 19.7232C8.02978 21.5361 10.5473 22.5543 13.172 22.5543C15.7968 22.5543 18.3143 21.5361 20.172 19.7232Z" fill="white"/>
<path d="M19.317 12.1016C19.5448 12.1008 19.7689 12.045 19.9693 11.9391C20.1698 11.8332 20.3403 11.6806 20.4659 11.4948C20.5915 11.3089 20.6681 11.0956 20.6891 10.8738C20.71 10.652 20.6746 10.4286 20.586 10.2234C19.6837 8.1489 17.9773 6.50861 15.8406 5.66176C13.7039 4.81491 11.311 4.83053 9.18601 5.7052C9.0163 5.77274 8.86202 5.87258 8.73211 5.99892C8.6022 6.12525 8.49925 6.27557 8.42926 6.44114C8.35928 6.6067 8.32364 6.78422 8.32441 6.96337C8.32519 7.14252 8.36236 7.31973 8.43377 7.48471C8.50519 7.64969 8.60943 7.79916 8.74042 7.92442C8.87142 8.04968 9.02657 8.14823 9.19685 8.21437C9.36714 8.2805 9.54917 8.3129 9.73237 8.30966C9.91556 8.30643 10.0963 8.26763 10.264 8.19553C11.7147 7.59725 13.3488 7.58604 14.8079 8.16435C16.267 8.74267 17.4319 9.86328 18.047 11.2803C18.1533 11.5237 18.3303 11.7313 18.556 11.8773C18.7818 12.0232 19.0464 12.1013 19.317 12.1016Z" fill="white"/>
</svg>
