<svg width="129" height="142" viewBox="0 0 129 142" fill="none" xmlns="http://www.w3.org/2000/svg">
<path d="M90.7047 9.63791C99.2042 13.1994 106.564 19.0233 111.984 26.4762C117.405 33.9291 120.677 42.7256 121.447 51.9089C121.833 57.4459 121.215 63.2379 118.398 68.0209C115.581 72.8039 110.223 76.3459 104.698 75.8399C100.374 75.4399 96.6437 72.7679 93.1527 70.1869L52.1207 39.8559C48.5337 37.2049 44.8817 34.4869 42.3267 30.8319C40.2267 27.8239 37.9427 22.1859 39.8807 18.5659C41.5367 15.4719 46.8427 13.0969 49.8467 11.5959C57.9075 7.591 66.8787 5.77304 75.8627 6.32391C80.9554 6.62838 85.9663 7.74724 90.7047 9.63791Z" fill="#284A6F"/>
<path d="M42.2592 141.05H40.6973V136.35C40.0062 122.409 33.9683 116.584 30.4303 114.35C26.1643 111.66 25.0503 111.419 21.7473 110.704C20.8253 110.504 19.6793 110.257 18.2643 109.911C17.6333 109.756 16.9982 109.611 16.3642 109.463C13.6146 108.93 10.9318 108.097 8.36424 106.978C4.65524 105.2 2.08025 102.356 1.29925 99.1779C0.489249 95.8779 1.86425 92.4539 3.07725 89.437C3.25325 88.9979 3.42825 88.5639 3.59425 88.1369C3.79035 87.6186 3.86228 87.0615 3.80428 86.5103C3.74628 85.9591 3.55996 85.4292 3.26025 84.963C3.08555 84.7088 2.89623 84.4651 2.69325 84.233C2.36721 83.8681 2.07906 83.471 1.83325 83.048C1.52052 82.4654 1.35196 81.8163 1.3417 81.1551C1.33143 80.494 1.47976 79.84 1.77425 79.248C2.11896 78.6143 2.61416 78.0752 3.21625 77.6779C2.79888 77.3552 2.45436 76.948 2.20525 76.483C1.45725 75.077 1.57425 73.6649 2.50525 72.8829C4.02625 71.6109 5.31725 70.433 5.70525 68.891C5.84069 68.406 5.8438 67.8935 5.71425 67.407C4.10535 66.4359 2.67049 65.2021 1.46925 63.757C0.784738 62.9231 0.31959 61.9314 0.116121 60.872C-0.087348 59.8125 -0.0226797 58.719 0.304247 57.691C1.00425 55.859 2.65725 54.705 3.98325 53.777C5.07625 53.012 6.21025 52.29 7.30625 51.591C10.3612 49.645 13.2462 47.807 15.4202 45.077C17.0433 42.7828 18.2794 40.238 19.0793 37.544C19.4793 36.424 19.9002 35.266 20.3732 34.149C22.7292 28.581 26.5223 23.837 30.1893 19.249C34.3033 14.103 42.0153 9.24896 44.2812 7.88696C55.9023 0.886958 65.3303 0.656958 75.5813 1.06696C87.0316 1.42936 98.1281 5.12124 107.513 11.691C113.81 16.2903 118.994 22.2459 122.68 29.1177C126.366 35.9895 128.46 43.6018 128.809 51.392C129.157 59.1822 127.751 66.9511 124.693 74.1246C121.635 81.298 117.005 87.6927 111.143 92.836C106.753 96.5825 102.658 100.661 98.8932 105.036C95.1437 109.443 92.7516 114.841 92.0062 120.579C91.2608 126.317 92.1941 132.148 94.6933 137.366L93.2932 138.066C90.6608 132.569 89.6777 126.427 90.4631 120.383C91.2484 114.339 93.7684 108.652 97.7182 104.01C101.529 99.5813 105.675 95.4521 110.118 91.659C115.802 86.67 120.292 80.4679 123.257 73.5106C126.222 66.5534 127.586 59.0189 127.248 51.4638C126.91 43.9088 124.878 36.5262 121.304 29.8615C117.73 23.1968 112.704 17.4204 106.597 12.959C97.4601 6.57125 86.6594 2.98471 75.5163 2.63796C63.4033 2.15396 55.3712 3.03796 45.0862 9.23796C42.8762 10.569 35.3602 15.294 31.4092 20.238C27.8092 24.738 24.0833 29.401 21.8093 34.77C21.3533 35.847 20.9433 36.985 20.5463 38.086C19.6888 40.9399 18.3693 43.6339 16.6402 46.061C14.3042 48.995 11.1722 50.991 8.14025 52.92C7.05825 53.61 5.94025 54.32 4.87325 55.068C3.45925 56.056 2.24925 56.979 1.75825 58.261C1.5325 59.0416 1.50123 59.8657 1.66717 60.6612C1.83311 61.4568 2.19122 62.1996 2.71025 62.825C3.87874 64.1961 5.26739 65.363 6.81925 66.278C6.97111 66.3793 7.08258 66.5308 7.13425 66.7059C7.41039 67.5383 7.43783 68.4332 7.21324 69.281C6.66624 71.437 4.83525 72.968 3.49925 74.087C3.11425 74.409 3.26925 75.175 3.57625 75.751C3.74921 76.0659 3.99488 76.3351 4.29283 76.536C4.59078 76.7369 4.93239 76.8637 5.28925 76.906C5.4795 76.9255 5.65597 77.0141 5.7852 77.1551C5.91444 77.2961 5.98746 77.4796 5.99042 77.6708C5.99338 77.862 5.92607 78.0477 5.80126 78.1926C5.67644 78.3375 5.5028 78.4316 5.31325 78.457C4.86881 78.5412 4.44718 78.7183 4.07597 78.9768C3.70477 79.2353 3.39238 79.5693 3.15925 79.957C2.98369 80.3224 2.89631 80.7239 2.90412 81.1293C2.91194 81.5347 3.01473 81.9325 3.20425 82.291C3.40255 82.6219 3.63228 82.933 3.89025 83.22C4.13335 83.4991 4.35942 83.7926 4.56725 84.099C5.00076 84.7737 5.27025 85.5405 5.35412 86.3381C5.43799 87.1357 5.33393 87.9418 5.05025 88.692C4.88225 89.127 4.70425 89.568 4.52525 90.013C3.34525 92.949 2.12525 95.985 2.81525 98.8C3.48425 101.526 5.75226 103.993 9.03826 105.568C11.5052 106.634 14.0806 107.429 16.7193 107.939C17.3613 108.087 18.0022 108.239 18.6402 108.391C20.0352 108.732 21.1233 108.967 22.0833 109.175C25.4933 109.912 26.7692 110.188 31.2692 113.026C35.3582 115.604 38.3822 119.709 40.2562 125.226C41.4262 128.805 42.0998 132.528 42.2583 136.291C42.2583 136.304 42.2583 136.317 42.2583 136.33L42.2592 141.05Z" fill="#777777"/>
<path d="M37.9323 58.5149C36.1278 58.5156 34.3433 58.1375 32.6943 57.4049C29.3228 55.821 26.6504 53.0542 25.1843 49.6299C25.1009 49.4403 25.0962 49.2253 25.1713 49.0322C25.2464 48.8391 25.3951 48.6838 25.5848 48.6004C25.7744 48.517 25.9894 48.5123 26.1825 48.5874C26.3755 48.6626 26.5309 48.8113 26.6143 49.0009C27.9225 52.0706 30.3119 54.5532 33.3293 55.9779C34.7472 56.6075 36.2792 56.9393 37.8306 56.9529C39.3819 56.9665 40.9196 56.6615 42.3483 56.0569C42.539 55.9759 42.754 55.9739 42.9462 56.0515C43.1383 56.129 43.2918 56.2797 43.3728 56.4704C43.4538 56.6611 43.4558 56.8762 43.3782 57.0683C43.3007 57.2604 43.15 57.4139 42.9593 57.4949C41.3692 58.1691 39.6594 58.516 37.9323 58.5149Z" fill="#777777"/>
<path d="M114.68 50.077C114.111 49.239 113.42 48.4908 112.629 47.857C113.679 46.9816 114.488 45.8529 114.98 44.5776C115.472 43.3023 115.63 41.9226 115.44 40.569C115.2 39.1449 114.648 37.7915 113.824 36.6056C113 35.4197 111.924 34.4306 110.673 33.709C108.687 32.5715 106.406 32.0547 104.124 32.225C105.128 30.49 105.503 28.4623 105.187 26.483C104.746 24.004 103.506 21.7371 101.658 20.027C99.7062 18.2735 97.4029 16.9563 94.9017 16.1631C92.4006 15.3699 89.7591 15.119 87.1533 15.427C84.4975 15.803 82.0568 17.0956 80.2533 19.081C80.0054 19.0002 79.7525 18.9357 79.4963 18.888C79.5189 17.4633 79.0609 16.0725 78.1963 14.94C77.2176 13.6766 75.9602 12.6564 74.5223 11.959C72.2822 10.772 69.7489 10.2514 67.2223 10.459C64.6957 10.671 62.3534 11.8664 60.6993 13.788C59.9967 14.6392 59.4848 15.6313 59.1983 16.6972C58.9118 17.7632 58.8572 18.8782 59.0383 19.967C56.9659 18.7838 54.5139 18.4555 52.2033 19.052C50.9144 19.395 49.7285 20.0472 48.7487 20.9521C47.7688 21.8571 47.0245 22.9873 46.5803 24.245C46.1746 25.5225 46.0978 26.8818 46.3573 28.1968C46.6167 29.5119 47.2038 30.7402 48.0643 31.768C48.1853 31.911 48.3123 32.048 48.4433 32.182C47.3459 33.0152 46.4804 34.1159 45.9295 35.3788C45.3786 36.6417 45.1606 38.0248 45.2963 39.396C45.5035 40.8821 46.0926 42.2892 47.0059 43.4797C47.9192 44.6703 49.1256 45.6038 50.5073 46.189C50.6073 46.229 50.7073 46.268 50.8073 46.304C52.058 46.8042 53.4479 46.833 54.7183 46.385C54.5144 47.4014 54.5316 48.4498 54.7687 49.459C55.0057 50.4682 55.4571 51.4146 56.0923 52.234C57.1535 53.5783 58.5756 54.5925 60.1923 55.158C60.9367 55.4278 61.711 55.6072 62.4983 55.692C64.0503 55.8916 65.627 55.6417 67.0413 54.972C67.5987 54.6937 68.1102 54.3318 68.5583 53.899C68.6087 55.6055 69.1477 57.2617 70.1113 58.671C71.1137 60.1098 72.5357 61.2043 74.1833 61.805C74.8172 62.034 75.478 62.1806 76.1493 62.241C76.1799 62.2843 76.2158 62.3236 76.2563 62.358C77.9759 63.7665 79.3994 65.5018 80.4445 67.4637C81.4896 69.4255 82.1357 71.575 82.3453 73.788L82.3603 73.973C82.3566 74.731 82.5507 75.4769 82.9233 76.137C83.2507 76.6169 83.7236 76.979 84.2723 77.17C84.8647 77.3882 85.5121 77.4072 86.1163 77.224C87.03 76.8833 87.7907 76.2252 88.2593 75.37C88.3973 75.152 88.5273 74.929 88.6593 74.705C88.8427 74.3756 89.043 74.0558 89.2593 73.747C90.2719 74.6837 91.4668 75.4017 92.7693 75.856C92.8913 75.9 93.0153 75.943 93.1403 75.984C94.7403 76.5428 96.4593 76.6704 98.1243 76.354C99.9919 75.9566 101.632 74.8494 102.699 73.266C103.708 71.7257 104.079 69.8537 103.734 68.045C103.764 68.039 103.794 68.035 103.823 68.028C104.744 67.8074 105.581 67.3258 106.235 66.6409C106.888 65.956 107.33 65.0969 107.507 64.167C109.085 64.4521 110.713 64.1743 112.107 63.382C113.446 62.6054 114.538 61.4649 115.254 60.093C116.069 58.5264 116.446 56.7689 116.345 55.006C116.244 53.2431 115.669 51.5402 114.68 50.077ZM87.2243 74.731C86.8985 75.3501 86.3654 75.835 85.7183 76.101C85.3988 76.1983 85.0571 76.1945 84.7399 76.0901C84.4227 75.9858 84.1455 75.7859 83.9463 75.518C83.6941 75.0229 83.567 74.4735 83.5763 73.918L83.5613 73.728C83.1446 69.3128 81.1153 65.2061 77.8613 62.193C79.1566 62.0029 80.3734 61.4558 81.3753 60.613C81.3877 61.2302 81.4887 61.8425 81.6753 62.431C82.3133 64.2753 83.5927 65.829 85.2803 66.809C85.7381 67.0837 86.2214 67.3138 86.7233 67.496C86.8683 67.549 87.0143 67.596 87.1603 67.636C86.9753 68.543 86.9936 69.4796 87.2137 70.3787C87.4338 71.2778 87.8503 72.117 88.4333 72.836C88.1231 73.2389 87.844 73.6648 87.5983 74.11C87.4733 74.316 87.3503 74.526 87.2243 74.731ZM114.174 59.525C113.56 60.7054 112.624 61.6874 111.474 62.357C110.322 63.0166 108.973 63.2455 107.668 63.003C107.64 62.9978 107.61 62.9948 107.581 62.994C107.491 61.5563 106.873 60.2028 105.844 59.194C106.367 58.6278 106.747 57.9455 106.953 57.2033C107.16 56.4612 107.186 55.6805 107.031 54.926C106.994 54.7699 106.898 54.6343 106.763 54.5472C106.628 54.46 106.465 54.4281 106.307 54.458C106.231 54.4709 106.157 54.4993 106.092 54.5414C106.027 54.5835 105.971 54.6385 105.927 54.7029C105.884 54.7673 105.854 54.84 105.84 54.9163C105.825 54.9926 105.826 55.0711 105.843 55.147C105.997 55.894 105.915 56.6703 105.609 57.3689C105.303 58.0674 104.788 58.6538 104.134 59.047C103.446 59.4208 102.665 59.5879 101.885 59.5281C101.104 59.4683 100.357 59.1842 99.7343 58.71C99.6097 58.61 99.4511 58.5623 99.292 58.5768C99.1329 58.5914 98.9857 58.6671 98.8813 58.788C98.832 58.8485 98.7955 58.9183 98.7738 58.9932C98.7521 59.0682 98.7458 59.1467 98.7551 59.2242C98.7644 59.3017 98.7892 59.3764 98.8281 59.4441C98.867 59.5117 98.9191 59.5709 98.9813 59.618C99.4019 59.9461 99.8721 60.205 100.374 60.385C101.089 60.6499 101.852 60.7581 102.613 60.7022C103.373 60.6463 104.112 60.4276 104.78 60.061C104.834 60.03 104.88 59.994 104.937 59.961C105.466 60.4611 105.867 61.0808 106.106 61.7679C106.346 62.455 106.417 63.1896 106.314 63.91C106.179 64.6205 105.844 65.2776 105.348 65.8039C104.852 66.3301 104.216 66.7035 103.514 66.88C102.805 67.0345 102.065 66.9701 101.393 66.6953C100.721 66.4205 100.147 65.9483 99.7493 65.341C99.6663 65.2036 99.5339 65.1031 99.3792 65.0602C99.2245 65.0172 99.0592 65.035 98.9173 65.11C98.8491 65.1468 98.7891 65.1972 98.7409 65.2579C98.6928 65.3187 98.6575 65.3886 98.6372 65.4634C98.6169 65.5382 98.612 65.6164 98.6229 65.6932C98.6337 65.7699 98.66 65.8437 98.7003 65.91C99.2624 66.8083 100.115 67.4872 101.116 67.834C101.567 67.997 102.038 68.0953 102.516 68.126C102.839 69.6738 102.533 71.2863 101.667 72.609C100.772 73.9374 99.3961 74.8664 97.8293 75.2C96.3812 75.4697 94.8877 75.3541 93.4983 74.865C91.9017 74.3842 90.4813 73.4454 89.4133 72.165C88.9308 71.5742 88.5852 70.884 88.401 70.1438C88.2169 69.4037 88.1989 68.6319 88.3483 67.884C89.3066 68.0188 90.2834 67.9214 91.1963 67.6C92.1984 67.2661 93.046 66.5811 93.5828 65.6714C94.1196 64.7617 94.3095 63.6886 94.1173 62.65C94.077 62.4947 93.9785 62.3608 93.8423 62.2761C93.706 62.1914 93.5424 62.1624 93.3853 62.195C93.3087 62.2093 93.2358 62.2391 93.1711 62.2826C93.1064 62.3261 93.0513 62.3823 93.009 62.4478C92.9668 62.5134 92.9384 62.5868 92.9256 62.6637C92.9127 62.7406 92.9157 62.8193 92.9343 62.895C93.0536 63.6577 92.8985 64.4381 92.4966 65.0973C92.0947 65.7565 91.472 66.2517 90.7393 66.495C89.9302 66.7411 89.0769 66.8067 88.2398 66.6869C87.4026 66.5672 86.6019 66.2651 85.8943 65.802C84.4627 64.9755 83.3754 63.6625 82.8303 62.102C82.5833 61.3591 82.5134 60.5688 82.6261 59.7941C82.7388 59.0194 83.0309 58.2817 83.4793 57.64C83.525 57.5767 83.5576 57.5048 83.5751 57.4287C83.5926 57.3526 83.5946 57.2737 83.5811 57.1968C83.5676 57.1199 83.5388 57.0465 83.4964 56.9809C83.454 56.9153 83.3989 56.8589 83.3343 56.815C83.205 56.7211 83.0442 56.6811 82.886 56.7035C82.7278 56.7259 82.5844 56.8089 82.4863 56.935C82.2334 57.2788 82.0216 57.6509 81.8553 58.044C81.8342 58.0719 81.8158 58.1017 81.8003 58.133C81.2944 59.0578 80.5415 59.8239 79.6256 60.3459C78.7097 60.8678 77.6668 61.1251 76.6133 61.089C75.5224 61.0378 74.4581 60.7348 73.5039 60.2036C72.5497 59.6723 71.7314 58.9273 71.1133 58.027C70.5143 57.1284 70.1029 56.1181 69.904 55.0566C69.705 53.9952 69.7224 52.9045 69.9553 51.85C69.9746 51.7664 69.9746 51.6795 69.9553 51.596C69.9653 51.559 69.9803 51.524 69.9903 51.488C70.0265 51.3331 70.0004 51.1703 69.9175 51.0346C69.8346 50.8989 69.7016 50.8014 69.5473 50.763C69.4719 50.7412 69.393 50.7346 69.315 50.7435C69.2371 50.7524 69.1616 50.7766 69.0931 50.8149C69.0246 50.8531 68.9643 50.9045 68.9158 50.9661C68.8672 51.0278 68.8314 51.0984 68.8103 51.174C68.6329 51.7702 68.3323 52.3224 67.9278 52.795C67.5233 53.2675 67.024 53.6498 66.4623 53.917C65.2593 54.4816 63.9198 54.6898 62.6023 54.517C61.5284 54.414 60.4859 54.0981 59.5355 53.5877C58.5851 53.0772 57.7461 52.3824 57.0673 51.544C56.4257 50.7355 56.0085 49.7722 55.8579 48.7511C55.7072 47.73 55.8284 46.6873 56.2093 45.728C56.2173 45.709 56.2213 45.691 56.2273 45.672C56.6158 45.9277 57.0326 46.1378 57.4693 46.298L57.4903 46.305C58.8963 46.7709 60.4023 46.8473 61.8483 46.526C61.9252 46.512 61.9984 46.4824 62.0635 46.4391C62.1286 46.3958 62.1841 46.3396 62.2267 46.2741C62.2693 46.2085 62.2981 46.135 62.3113 46.0579C62.3244 45.9809 62.3217 45.9019 62.3033 45.826C62.2636 45.6705 62.1658 45.5362 62.0299 45.4507C61.8941 45.3653 61.7306 45.3353 61.5733 45.367C60.351 45.643 59.0768 45.5839 57.8853 45.196C57.325 45.0129 56.8098 44.7133 56.3736 44.3169C55.9374 43.9205 55.59 43.4362 55.3543 42.896C55.1521 42.3927 55.1061 41.8402 55.2224 41.3105C55.3387 40.7807 55.6119 40.2983 56.0063 39.926C56.0658 39.8758 56.1145 39.814 56.1494 39.7443C56.1843 39.6747 56.2046 39.5987 56.2092 39.521C56.2138 39.4432 56.2025 39.3654 56.176 39.2921C56.1496 39.2189 56.1085 39.1518 56.0553 39.095C55.9486 38.9753 55.7999 38.9013 55.6401 38.8885C55.4803 38.8756 55.3217 38.9249 55.1973 39.026C54.6175 39.5494 54.2123 40.2383 54.0367 40.9995C53.8611 41.7606 53.9234 42.5574 54.2153 43.282C54.4387 43.846 54.7687 44.3618 55.1873 44.801C55.0541 44.8039 54.9257 44.851 54.8223 44.935C53.7713 45.804 52.0893 45.568 50.9683 45.101C49.7862 44.6005 48.754 43.802 47.9727 42.7836C47.1913 41.7651 46.6875 40.5614 46.5103 39.29C46.3906 38.0793 46.5937 36.8586 47.0991 35.7519C47.6045 34.6453 48.394 33.6923 49.3873 32.99C50.0402 33.4757 50.7604 33.8638 51.5253 34.142C52.7804 34.6038 54.1311 34.744 55.4543 34.55C55.5313 34.5394 55.6053 34.5133 55.6719 34.4732C55.7386 34.4332 55.7964 34.3801 55.8419 34.3171C55.8874 34.2541 55.9197 34.1825 55.9368 34.1067C55.9539 34.0309 55.9554 33.9524 55.9413 33.876C55.9088 33.719 55.8172 33.5805 55.6853 33.4893C55.5535 33.3981 55.3916 33.3611 55.2333 33.386C54.0805 33.5368 52.9083 33.4004 51.8209 32.989C50.7335 32.5777 49.7646 31.904 49.0003 31.028C48.2688 30.1534 47.7699 29.1082 47.55 27.9894C47.3301 26.8706 47.3962 25.7144 47.7423 24.628C48.1235 23.5505 48.7618 22.5822 49.6019 21.8073C50.4421 21.0324 51.4586 20.4741 52.5633 20.181C53.7104 19.8844 54.9097 19.8506 56.0716 20.0821C57.2336 20.3136 58.3284 20.8044 59.2743 21.518C59.4002 21.6165 59.5595 21.6621 59.7185 21.6453C59.8775 21.6285 60.0237 21.5506 60.1263 21.428C60.1968 21.3405 60.2393 21.2339 60.2483 21.122C60.3325 21.0498 60.3937 20.9544 60.4241 20.8477C60.4545 20.741 60.4528 20.6277 60.4193 20.522C60.1176 19.4983 60.0732 18.4161 60.2901 17.3712C60.5069 16.3263 60.9782 15.3511 61.6623 14.532C63.116 12.8535 65.1701 11.8122 67.3833 11.632C69.6651 11.4491 71.9515 11.9235 73.9723 12.999C75.2388 13.6089 76.3477 14.5023 77.2133 15.61C77.9137 16.5228 78.2892 17.6434 78.2803 18.794C77.8916 18.802 77.5048 18.8506 77.1263 18.939C76.2618 19.142 75.4602 19.5537 74.7915 20.138C74.1228 20.7223 73.6074 21.4615 73.2903 22.291C73.2389 22.4411 73.2491 22.6054 73.3187 22.7481C73.3882 22.8907 73.5114 22.9999 73.6613 23.052C73.8091 23.1085 73.9732 23.1045 74.118 23.0406C74.2627 22.9767 74.3764 22.8583 74.4343 22.711C74.6873 22.0636 75.0928 21.4867 75.6162 21.0294C76.1397 20.5721 76.7657 20.2478 77.4413 20.084C78.1379 19.9316 78.8601 19.9398 79.5531 20.1078C80.2461 20.2759 80.8918 20.5994 81.4413 21.054C81.9726 21.5098 82.3882 22.0853 82.6538 22.733C82.9195 23.3808 83.0276 24.0823 82.9693 24.78C82.9558 24.9391 83.005 25.0971 83.1065 25.2204C83.2079 25.3438 83.3535 25.4225 83.5123 25.44C83.5896 25.4514 83.6684 25.4471 83.744 25.4275C83.8196 25.408 83.8906 25.3735 83.9527 25.326C84.0148 25.2786 84.0667 25.2192 84.1055 25.1513C84.1442 25.0835 84.169 25.0085 84.1783 24.931C84.2727 23.8717 84.0628 22.8075 83.5731 21.8635C83.0835 20.9195 82.3345 20.1349 81.4143 19.602C83.0167 17.972 85.1112 16.9149 87.3743 16.594C89.788 16.3146 92.2335 16.5498 94.5498 17.284C96.866 18.0183 99.0004 19.235 100.812 20.854C102.469 22.3817 103.583 24.4088 103.982 26.627C104.153 27.6499 104.107 28.6973 103.847 29.7014C103.587 30.7054 103.119 31.6435 102.473 32.455L102.438 32.462C101.531 31.5807 100.387 30.9826 99.145 30.7406C97.9034 30.4986 96.6183 30.6231 95.4463 31.099C95.3748 31.1292 95.3102 31.1738 95.2566 31.2299C95.2029 31.286 95.1613 31.3524 95.1343 31.4252C95.1072 31.4979 95.0953 31.5754 95.0992 31.6529C95.1032 31.7305 95.1229 31.8063 95.1573 31.876C95.2285 32.0199 95.352 32.1312 95.5026 32.187C95.6532 32.2428 95.8195 32.2388 95.9673 32.176C96.9368 31.792 97.9981 31.7025 99.0182 31.9188C100.038 32.1351 100.972 32.6476 101.702 33.392C102.389 34.1449 102.822 35.094 102.942 36.106C103.061 37.1179 102.861 38.1419 102.368 39.034C102.329 39.1018 102.304 39.1768 102.294 39.2544C102.284 39.3321 102.29 39.411 102.311 39.4864C102.332 39.5618 102.368 39.6323 102.417 39.6937C102.465 39.7551 102.526 39.8062 102.594 39.844C102.626 39.8623 102.66 39.878 102.694 39.891C102.825 39.9403 102.969 39.9426 103.102 39.8976C103.235 39.8525 103.347 39.7629 103.421 39.644C103.955 38.7037 104.223 37.6362 104.197 36.5555C104.17 35.4748 103.851 34.4214 103.273 33.508C105.606 33.1149 108.002 33.5387 110.058 34.708C111.152 35.3361 112.092 36.1982 112.814 37.2325C113.535 38.2669 114.018 39.4479 114.229 40.691C114.403 41.8994 114.251 43.1323 113.788 44.2623C113.326 45.3923 112.571 46.3785 111.6 47.119C109.748 45.9391 107.578 45.3559 105.383 45.448C105.305 45.4503 105.229 45.4684 105.158 45.5011C105.087 45.5338 105.024 45.5805 104.972 45.6383C104.92 45.6961 104.88 45.7639 104.854 45.8376C104.829 45.9112 104.819 45.9893 104.824 46.067C104.84 46.2262 104.917 46.3731 105.039 46.4771C105.16 46.581 105.318 46.634 105.477 46.625C107.072 46.5699 108.656 46.9134 110.084 47.6242C111.513 48.335 112.742 49.3907 113.66 50.696C114.521 51.99 115.023 53.4899 115.112 55.0417C115.202 56.5935 114.877 58.1412 114.171 59.526L114.174 59.525Z" fill="white"/>
<path d="M75.0598 31.9209C75.3382 32.6091 75.4144 33.3624 75.2794 34.0924C75.1444 34.8224 74.8039 35.4987 74.2978 36.0419C74.2439 36.0982 74.2019 36.1649 74.1744 36.2379C74.1469 36.3108 74.1345 36.3886 74.1378 36.4666C74.1412 36.5445 74.1603 36.6209 74.194 36.6913C74.2277 36.7616 74.2753 36.8244 74.3338 36.8759C74.395 36.9321 74.4667 36.9756 74.5448 37.0039C74.6551 37.045 74.7748 37.0535 74.8898 37.0283C75.0047 37.0031 75.1099 36.9453 75.1928 36.8619C75.8591 36.1602 76.3074 35.2804 76.4835 34.3289C76.6596 33.3775 76.5558 32.3955 76.1848 31.5019C75.783 30.5917 75.1425 29.8071 74.3311 29.2312C73.5197 28.6554 72.5677 28.3097 71.5758 28.2309C70.5991 28.1601 69.6222 28.3647 68.756 28.8215C67.8898 29.2783 67.1691 29.9689 66.6758 30.8149C66.6394 30.8839 66.6171 30.9594 66.6101 31.0371C66.603 31.1147 66.6115 31.1931 66.6349 31.2675C66.6584 31.3419 66.6963 31.4109 66.7466 31.4705C66.7969 31.5301 66.8585 31.5792 66.9278 31.6149C67.0669 31.6923 67.2308 31.7121 67.3843 31.67C67.5378 31.628 67.6687 31.5274 67.7488 31.3899C68.133 30.7433 68.6884 30.2155 69.3537 29.8649C70.019 29.5142 70.7683 29.3543 71.5188 29.4029C72.2795 29.4704 73.0084 29.7392 73.6308 30.1817C74.2531 30.6243 74.7464 31.2245 75.0598 31.9209Z" fill="white"/>
<path d="M94.6758 45.6562C94.5999 45.6364 94.5209 45.6319 94.4433 45.643C94.3657 45.654 94.2911 45.6803 94.2237 45.7204C94.1564 45.7605 94.0977 45.8136 94.051 45.8765C94.0043 45.9395 93.9706 46.0111 93.9518 46.0872C93.9197 46.2433 93.9504 46.4058 94.0373 46.5394C94.1241 46.6731 94.2601 46.7671 94.4158 46.8012C95.4091 47.0428 96.3257 47.5305 97.081 48.2194C97.8363 48.9083 98.4061 49.7762 98.7378 50.7432C99.0217 51.6907 99.0315 52.6992 98.7661 53.652C98.5006 54.6049 97.9707 55.463 97.2378 56.1272C96.4602 56.7698 95.5156 57.1777 94.5147 57.3029C93.5137 57.4281 92.4977 57.2655 91.5858 56.8342C91.5157 56.7978 91.4391 56.7756 91.3604 56.7689C91.2817 56.7622 91.2025 56.771 91.1272 56.795C91.052 56.819 90.9822 56.8576 90.9219 56.9086C90.8616 56.9596 90.8119 57.022 90.7758 57.0922C90.742 57.163 90.7226 57.2398 90.7187 57.3182C90.7149 57.3966 90.7267 57.475 90.7534 57.5488C90.7801 57.6225 90.8212 57.6903 90.8743 57.7481C90.9274 57.8058 90.9915 57.8524 91.0628 57.8852C91.2556 57.9793 91.4532 58.063 91.6548 58.1362C92.7272 58.5195 93.8807 58.6179 95.0025 58.4217C96.1244 58.2256 97.1761 57.7416 98.0548 57.0172C98.9614 56.2119 99.6174 55.1628 99.9445 53.9952C100.272 52.8275 100.256 51.5903 99.8998 50.4312C99.5079 49.2562 98.8224 48.2008 97.9081 47.3651C96.9938 46.5294 95.8812 45.9412 94.6758 45.6562Z" fill="white"/>
<path d="M90.6613 51.721C89.9342 52.0353 89.1462 52.1839 88.3545 52.1559C87.5629 52.1279 86.7873 51.924 86.0843 51.559C85.3891 51.1918 84.7861 50.6719 84.3206 50.0384C83.855 49.4048 83.539 48.6741 83.3963 47.901C83.2907 47.2425 83.3224 46.5693 83.4893 45.9236C83.6562 45.278 83.9548 44.6738 84.3663 44.149C84.9796 44.7144 85.6988 45.1528 86.4823 45.439C86.9378 45.6043 87.4115 45.7144 87.8933 45.767C89.6213 45.954 91.7693 45.182 92.3483 43.381C92.3937 43.2281 92.3776 43.0636 92.3034 42.9225C92.2292 42.7814 92.1028 42.6748 91.9512 42.6256C91.7995 42.5764 91.6347 42.5885 91.4917 42.6591C91.3488 42.7298 91.2392 42.8536 91.1863 43.004C90.8103 44.176 89.2693 44.733 87.9973 44.595C87.2378 44.5091 86.5086 44.2486 85.8666 43.8338C85.2247 43.4189 84.6876 42.8611 84.2973 42.204C83.93 41.558 83.7252 40.8325 83.7006 40.0899C83.6761 39.3472 83.8324 38.6097 84.1563 37.941C84.1904 37.8704 84.2102 37.7938 84.2145 37.7155C84.2188 37.6372 84.2075 37.5589 84.1812 37.485C84.155 37.4112 84.1144 37.3432 84.0617 37.2852C84.009 37.2272 83.9453 37.1802 83.8743 37.147C83.733 37.0737 83.5685 37.0591 83.4166 37.1063C83.2646 37.1535 83.1373 37.2586 83.0623 37.399C82.6488 38.2381 82.4487 39.1663 82.4798 40.1013C82.5108 41.0362 82.7721 41.9491 83.2403 42.759C83.3343 42.922 83.4403 43.079 83.5473 43.232C82.6233 44.3211 82.1174 45.7037 82.1203 47.132C81.3337 47.7569 80.3726 48.1223 79.3696 48.1779C78.3666 48.2334 77.371 47.9763 76.5203 47.442C75.6669 46.874 75.0268 46.0382 74.7009 45.0662C74.375 44.0943 74.3818 43.0416 74.7203 42.074C74.7717 41.9249 74.7635 41.7616 74.6974 41.6184C74.6312 41.4753 74.5123 41.3632 74.3654 41.3057C74.2185 41.2482 74.0551 41.2498 73.9093 41.31C73.7635 41.3703 73.6467 41.4846 73.5833 41.629C73.2919 42.386 73.1813 43.2006 73.2603 44.008C72.5347 44.8172 71.556 45.3563 70.4843 45.537C69.385 45.7124 68.2585 45.525 67.2753 45.003C66.7526 44.7614 66.339 44.3335 66.1153 43.803C66.0693 43.6492 65.9661 43.519 65.8269 43.4391C65.6877 43.3593 65.5232 43.336 65.3673 43.374C65.2915 43.3912 65.22 43.4238 65.1572 43.4696C65.0943 43.5154 65.0415 43.5735 65.0019 43.6405C64.9624 43.7074 64.9368 43.7816 64.9269 43.8588C64.917 43.9359 64.9229 44.0142 64.9443 44.089C65.0961 44.5121 65.3299 44.9012 65.6322 45.2339C65.9346 45.5666 66.2996 45.8364 66.7063 46.028C67.9344 46.6861 69.3451 46.9212 70.7203 46.697C71.7641 46.5215 72.7428 46.0729 73.5573 45.397C73.9691 46.6286 74.7781 47.6886 75.8573 48.411C76.2186 48.6457 76.6058 48.838 77.0113 48.984C77.8727 49.2926 78.7913 49.4082 79.7023 49.3227C80.6133 49.2372 81.4944 48.9525 82.2833 48.489C82.5096 49.3594 82.9143 50.1733 83.4717 50.8791C84.029 51.5848 84.727 52.1671 85.5213 52.589C85.775 52.7225 86.0376 52.8384 86.3073 52.936C87.8938 53.5129 89.641 53.4607 91.1903 52.79C91.2614 52.7588 91.3254 52.7134 91.3784 52.6566C91.4314 52.5998 91.4721 52.5328 91.4983 52.4597C91.5244 52.3865 91.5353 52.3088 91.5303 52.2313C91.5253 52.1538 91.5046 52.0782 91.4693 52.009C91.396 51.8676 91.2719 51.7593 91.122 51.7059C90.972 51.6524 90.8074 51.6578 90.6613 51.721Z" fill="white"/>
<path d="M82.3693 31.303C82.4675 31.4301 82.6109 31.5146 82.7696 31.539C82.9284 31.5634 83.0905 31.5258 83.2223 31.434C84.2125 30.7897 85.3836 30.4807 86.5628 30.5527C87.742 30.6247 88.8669 31.0739 89.7713 31.834C90.6248 32.617 91.1882 33.6657 91.3698 34.8096C91.5514 35.9536 91.3404 37.1253 90.7713 38.134C90.731 38.2011 90.7045 38.2756 90.6934 38.353C90.6823 38.4305 90.6867 38.5094 90.7064 38.5851C90.7262 38.6608 90.7608 38.7318 90.8084 38.794C90.8559 38.8561 90.9154 38.9082 90.9833 38.947C91.0189 38.9681 91.0564 38.9858 91.0953 39C91.2247 39.0487 91.3669 39.0516 91.4983 39.0083C91.6296 38.965 91.7422 38.8781 91.8173 38.762C92.5359 37.5182 92.8048 36.065 92.5788 34.6464C92.3529 33.2278 91.6458 31.93 90.5763 30.971C89.4642 30.0175 88.071 29.4535 86.6088 29.3649C85.1465 29.2762 83.6954 29.6678 82.4763 30.48C82.4137 30.5258 82.361 30.5839 82.3215 30.6507C82.282 30.7175 82.2564 30.7916 82.2464 30.8686C82.2364 30.9456 82.2422 31.0237 82.2633 31.0984C82.2844 31.1731 82.3205 31.2427 82.3693 31.303Z" fill="white"/>
<path d="M14.5648 37.1888L13.6348 36.8938C13.7538 36.5188 13.8788 36.1409 14.0058 35.7699L14.9288 36.0868C14.8048 36.4528 14.6818 36.8218 14.5648 37.1888ZM15.3178 34.9948L14.4028 34.6558C14.5388 34.2898 14.6818 33.9178 14.8268 33.5558L15.7338 33.9158C15.5918 34.2718 15.4518 34.6369 15.3188 34.9958L15.3178 34.9948ZM16.1748 32.8388L15.2748 32.4568C15.4278 32.0978 15.5868 31.7328 15.7498 31.3738L16.6388 31.7738C16.4818 32.1299 16.3248 32.4878 16.1758 32.8398L16.1748 32.8388ZM17.1318 30.7258L16.2518 30.3018C16.4228 29.9478 16.5988 29.5918 16.7768 29.2428L17.6468 29.6858C17.4728 30.0288 17.2988 30.3788 17.1318 30.7268V30.7258ZM18.1858 28.6588L17.3268 28.1948C17.5128 27.8508 17.7048 27.5029 17.8998 27.1599L18.7478 27.6428C18.5568 27.9798 18.3678 28.3219 18.1858 28.6599V28.6588ZM19.3328 26.6418L18.4958 26.1418C18.6958 25.8068 18.9058 25.4678 19.1158 25.1348L19.9418 25.6558C19.7358 25.9808 19.5308 26.3138 19.3338 26.6428L19.3328 26.6418ZM20.5718 24.6798L19.7588 24.1398C19.9758 23.8118 20.1998 23.4828 20.4238 23.1618L21.2238 23.7198C21.0058 24.0368 20.7858 24.3588 20.5728 24.6798H20.5718ZM21.8988 22.7798L21.1108 22.2038C21.3418 21.8888 21.5798 21.5698 21.8198 21.2568L22.5948 21.8508C22.3598 22.1528 22.1258 22.4668 21.8988 22.7768V22.7798ZM23.3108 20.9378L22.5498 20.3258C22.7958 20.0198 23.0498 19.7128 23.3018 19.4128L24.0488 20.0418C23.8008 20.3338 23.5528 20.6348 23.3108 20.9358V20.9378ZM24.8108 19.1618L24.0778 18.5158C24.3368 18.2218 24.6038 17.9268 24.8698 17.6378L25.5868 18.2998C25.3218 18.5818 25.0598 18.8718 24.8068 19.1598L24.8108 19.1618ZM26.3848 17.4568L25.6848 16.7778C25.9588 16.4958 26.2378 16.2118 26.5168 15.9368L27.2028 16.6308C26.9228 16.8998 26.6438 17.1778 26.3798 17.4528L26.3848 17.4568ZM28.0348 15.8248L27.3648 15.1148C27.6488 14.8468 27.9408 14.5768 28.2338 14.3148L28.8868 15.0398C28.5958 15.2958 28.3088 15.5598 28.0298 15.8228L28.0348 15.8248ZM29.7578 14.2718L29.1218 13.5318C29.4218 13.2728 29.7268 13.0178 30.0278 12.7708L30.6468 13.5258C30.3438 13.7668 30.0438 14.0168 29.7538 14.2698L29.7578 14.2718ZM31.5518 12.8008L30.9518 12.0318C31.2648 11.7868 31.5808 11.5458 31.8928 11.3148L32.4748 12.0978C32.1648 12.3238 31.8548 12.5598 31.5438 12.7998L31.5518 12.8008ZM33.4128 11.4158L32.8488 10.6158C33.1688 10.3888 33.4968 10.1628 33.8228 9.94385L34.3678 10.7548C34.0438 10.9708 33.7218 11.1928 33.4088 11.4148L33.4128 11.4158Z" fill="#777777"/>
<path d="M86.2827 126.35C86.2107 125.958 86.1497 125.56 86.0997 125.165L87.0677 125.043C87.1147 125.419 87.1737 125.8 87.2417 126.173L86.2827 126.35ZM85.9827 123.974C85.9547 123.58 85.9367 123.174 85.9287 122.774L86.9057 122.756C86.9127 123.138 86.9297 123.523 86.9567 123.9L85.9827 123.974ZM86.9127 121.613L85.9367 121.582C85.9497 121.188 85.9727 120.782 86.0037 120.389L86.9767 120.467C86.9467 120.85 86.9247 121.235 86.9127 121.613ZM87.0967 119.325L86.1287 119.201C86.1787 118.81 86.2387 118.412 86.3077 118.021L87.2697 118.189C87.2027 118.566 87.1447 118.948 87.0967 119.325ZM87.4917 117.06L86.5377 116.851C86.6227 116.465 86.7167 116.075 86.8177 115.692L87.7617 115.941C87.6647 116.311 87.5737 116.685 87.4917 117.061V117.06ZM88.0777 114.834L87.1437 114.547C87.2597 114.17 87.3847 113.789 87.5157 113.416L88.4367 113.739C88.3107 114.101 88.1907 114.469 88.0777 114.834ZM88.8397 112.658L87.9317 112.301C88.0747 111.936 88.2317 111.567 88.3877 111.201L89.2827 111.591C89.1277 111.947 88.9787 112.306 88.8357 112.659L88.8397 112.658ZM89.7637 110.543L88.8827 110.12C89.0527 109.767 89.2317 109.41 89.4167 109.058L90.2817 109.511C90.1017 109.855 89.9277 110.202 89.7637 110.544V110.543ZM90.8347 108.497L89.9857 108.016C90.1787 107.676 90.3857 107.331 90.5857 106.993L91.4197 107.5C91.2197 107.831 91.0227 108.167 90.8357 108.498L90.8347 108.497ZM92.0347 106.52L91.2147 105.989C91.4277 105.662 91.6487 105.33 91.8727 105.004L92.6727 105.557C92.4597 105.877 92.2427 106.201 92.0357 106.521L92.0347 106.52ZM93.3477 104.612L92.5577 104.038C92.7847 103.726 93.0227 103.407 93.2657 103.089L94.0407 103.683C93.8037 103.995 93.5707 104.307 93.3487 104.613L93.3477 104.612ZM94.7577 102.77L93.9957 102.159C94.2417 101.852 94.4917 101.547 94.7457 101.245L95.4937 101.873C95.2457 102.17 95.0007 102.47 94.7587 102.771L94.7577 102.77ZM96.2497 100.99L95.5137 100.348C95.7724 100.051 96.034 99.7575 96.2987 99.4662L97.0227 100.122C96.7647 100.409 96.5074 100.699 96.2507 100.991L96.2497 100.99ZM97.8097 99.2662L97.0977 98.5992C97.3644 98.3125 97.6354 98.0278 97.9107 97.7451L98.6107 98.4241C98.3421 98.7028 98.0751 98.9835 97.8097 99.2662ZM99.4267 97.5901L98.7347 96.9032C99.0114 96.6245 99.2897 96.3475 99.5697 96.0722L100.254 96.7722C99.9751 97.0428 99.6997 97.3155 99.4277 97.5901H99.4267ZM101.09 95.9561L100.414 95.2561L100.62 95.0562C100.835 94.8508 101.05 94.6465 101.266 94.4431L101.936 95.1532C101.721 95.3532 101.507 95.5558 101.295 95.7612L101.09 95.9561ZM102.79 94.3562L102.126 93.6412C102.412 93.3745 102.7 93.1078 102.99 92.8412L103.649 93.5612C103.361 93.8252 103.074 94.0898 102.789 94.3551L102.79 94.3562ZM104.513 92.7762L103.856 92.0542L104.726 91.2672L105.38 91.9922L104.513 92.7762ZM106.25 91.2092L105.598 90.4832L106.469 89.7001L107.121 90.4261L106.25 91.2092ZM107.992 89.6422L107.339 88.9172L108.208 88.1331L108.863 88.8571L107.992 89.6422ZM109.731 88.0661L109.073 87.3461C109.36 87.0835 109.647 86.8198 109.933 86.5552L110.596 87.2722C110.308 87.5368 110.019 87.8008 109.731 88.0641V88.0661ZM111.456 86.4711L110.788 85.7592C111.071 85.4925 111.354 85.2258 111.636 84.9592L112.31 85.6642C112.026 85.9328 111.742 86.2011 111.456 86.4691V86.4711ZM113.156 84.8461L112.475 84.1461C112.753 83.8748 113.029 83.6018 113.304 83.3271L113.994 84.0182C113.716 84.2948 113.436 84.5701 113.156 84.8441V84.8461Z" fill="#777777"/>
<path d="M36.5408 131.59C36.4488 131.212 36.3569 130.835 36.2619 130.458L37.2088 130.219C37.3048 130.599 37.3989 130.98 37.4909 131.361L36.5408 131.59ZM35.9678 129.332C35.8608 128.932 35.7568 128.571 35.6528 128.216L36.5879 127.939C36.6959 128.301 36.8009 128.674 36.9099 129.078L35.9678 129.332ZM35.3069 127.112C35.1839 126.739 35.0559 126.372 34.9259 126.024L35.8409 125.684C35.9739 126.044 36.1059 126.421 36.2339 126.806L35.3069 127.112ZM34.5069 124.954C34.3569 124.599 34.1979 124.247 34.0349 123.91L34.9138 123.485C35.0838 123.837 35.2499 124.204 35.4059 124.575L34.5069 124.954ZM33.5069 122.894C33.3189 122.556 33.1229 122.227 32.9229 121.914L33.7439 121.387C33.9549 121.716 34.1628 122.063 34.3598 122.419L33.5069 122.894ZM32.2758 120.98C32.0488 120.673 31.8089 120.38 31.5648 120.098L32.2999 119.456C32.5599 119.756 32.8159 120.07 33.0589 120.397L32.2758 120.98ZM30.7868 119.28C30.5198 119.022 30.2359 118.769 29.9429 118.528L30.5609 117.773C30.8759 118.031 31.1798 118.301 31.4608 118.578L30.7868 119.28ZM29.0379 117.844C28.7379 117.633 28.4148 117.424 28.0838 117.224L28.5838 116.388C28.9338 116.599 29.2729 116.82 29.5939 117.044L29.0379 117.844ZM27.0889 116.664C26.7619 116.492 26.4149 116.321 26.0599 116.157L26.4698 115.271C26.8398 115.442 27.2008 115.621 27.5428 115.8L27.0889 116.664ZM25.0049 115.696C24.6649 115.556 24.3049 115.414 23.9299 115.274L24.2719 114.36C24.6559 114.503 25.0279 114.649 25.3779 114.794L25.0049 115.696ZM22.8389 114.884C22.4722 114.758 22.1055 114.636 21.7388 114.518L22.0388 113.588C22.4138 113.709 22.7879 113.832 23.1599 113.961L22.8389 114.884ZM20.6239 114.169C20.2509 114.054 19.8769 113.941 19.5059 113.828L19.7888 112.894C20.1618 113.007 20.5368 113.12 20.9118 113.236L20.6239 114.169Z" fill="#777777"/>
</svg>
