<svg width="130" height="141" viewBox="0 0 130 141" fill="none" xmlns="http://www.w3.org/2000/svg">
<path d="M94.6355 81.864C94.1278 83.9345 93.4505 85.9596 92.6104 87.9189C90.3815 93.1485 87.0073 97.8111 82.7365 101.563C79.3979 104.413 76.2834 107.515 73.4204 110.842C70.5299 114.242 68.6572 118.388 68.0175 122.805C67.3779 127.221 67.9973 131.729 69.8045 135.809L69.8905 135.992L69.9074 136.029C57.5989 140.055 44.4656 140.868 31.7544 138.391V135.124C31.7544 135.114 31.7544 135.105 31.7544 135.095C31.6338 132.269 31.1261 129.473 30.2454 126.785C29.1333 123.036 26.7452 119.793 23.4945 117.619C21.4499 116.133 19.0876 115.142 16.5944 114.726C15.8734 114.57 15.0564 114.393 14.0084 114.137C13.5294 114.02 13.0475 113.909 12.5655 113.797C10.5829 113.414 8.64789 112.816 6.79446 112.015C5.69105 111.561 4.7007 110.87 3.89315 109.991C3.0856 109.113 2.48049 108.068 2.12044 106.93C1.60244 104.816 2.52042 102.53 3.40542 100.33C3.53942 99.996 3.67346 99.665 3.79946 99.338C4.01281 98.7746 4.09115 98.1691 4.02828 97.5699C3.96542 96.9708 3.7631 96.3948 3.43746 95.8879C3.28103 95.658 3.11103 95.4377 2.92843 95.228C2.73414 95.0119 2.56133 94.7775 2.41244 94.528C2.26979 94.2572 2.19301 93.9567 2.18832 93.6507C2.18362 93.3447 2.25118 93.0419 2.38546 92.767C2.56065 92.4759 2.79535 92.2252 3.07418 92.0311C3.35301 91.8371 3.66966 91.7041 4.00344 91.6409C4.14529 91.6212 4.275 91.5503 4.36819 91.4415C4.46137 91.3328 4.51163 91.1937 4.50942 91.0505C4.50721 90.9073 4.45273 90.7698 4.35622 90.664C4.25972 90.5582 4.12782 90.4913 3.98543 90.476C3.7175 90.444 3.46106 90.3486 3.23727 90.1979C3.01347 90.0471 2.82876 89.8452 2.69845 89.6089C2.46845 89.1759 2.35246 88.5999 2.64046 88.3589C3.92295 87.4743 4.89808 86.2122 5.43044 84.7479C5.5991 84.1112 5.57825 83.4391 5.37044 82.814C5.33197 82.6823 5.24841 82.5683 5.13442 82.4919C3.9685 81.8047 2.92525 80.9281 2.04745 79.8979C1.65725 79.4281 1.38809 78.8698 1.26345 78.2719C1.13881 77.6739 1.16247 77.0546 1.33242 76.468C1.86143 75.4567 2.6749 74.6224 3.67245 74.0679C4.47245 73.5079 5.31343 72.968 6.12643 72.454C8.52662 71.1039 10.6844 69.3623 12.5105 67.301C13.8097 65.4775 14.8012 63.4533 15.4455 61.309C15.7455 60.482 16.0514 59.6269 16.3944 58.8179C18.1014 54.7839 20.8944 51.284 23.6054 47.9C26.5744 44.187 32.2205 40.636 33.8805 39.637C35.7524 38.4939 37.7221 37.5194 39.7664 36.725C39.5959 36.6116 39.461 36.4522 39.3773 36.2653C39.2936 36.0784 39.2645 35.8717 39.2934 35.6689C37.2036 36.4764 35.1898 37.468 33.2755 38.632C31.5755 39.657 25.7754 43.302 22.6884 47.168C19.9334 50.615 17.0884 54.178 15.3134 58.361C14.9594 59.2 14.6455 60.07 14.3415 60.9109C13.7408 62.9349 12.8121 64.8467 11.5924 66.5699C9.84699 68.5308 7.78509 70.1851 5.49245 71.4639C4.66845 71.9889 3.81645 72.5309 2.99245 73.1049C1.79744 73.7859 0.834469 74.8102 0.228415 76.0449C-0.0169024 76.8166 -0.0655221 77.6374 0.0869357 78.4327C0.239394 79.228 0.588145 79.9726 1.10146 80.5989C2.00403 81.6845 3.08188 82.6113 4.29043 83.3409C4.38738 83.7066 4.38501 84.0915 4.28347 84.4559C3.81031 85.6803 2.96987 86.7282 1.87746 87.4559C1.53058 87.8089 1.31816 88.2722 1.27706 88.7653C1.23596 89.2585 1.36875 89.7505 1.65243 90.1559C1.8396 90.5061 2.09859 90.8128 2.41244 91.056C1.95981 91.3545 1.58756 91.7597 1.32845 92.236C1.10757 92.6805 0.996273 93.1714 1.00393 93.6678C1.01158 94.1641 1.13797 94.6514 1.37246 95.0889C1.55745 95.4067 1.7742 95.7049 2.01943 95.9789C2.17217 96.1534 2.31444 96.3367 2.44546 96.528C2.67065 96.8783 2.81055 97.2765 2.85396 97.6907C2.89738 98.1049 2.84311 98.5235 2.69546 98.913C2.57146 99.235 2.43942 99.5609 2.30642 99.8909C1.39542 102.158 0.362457 104.728 0.971457 107.209C1.37177 108.516 2.05473 109.718 2.97188 110.732C3.88904 111.745 5.01793 112.544 6.27846 113.072C8.20832 113.913 10.2248 114.539 12.2915 114.939C12.7685 115.05 13.2464 115.16 13.7204 115.276C14.7834 115.536 15.6444 115.722 16.3374 115.876C18.6962 116.265 20.9305 117.203 22.8604 118.614C25.5194 120.29 30.0544 124.666 30.5744 135.14V137.692L30.4665 139.325L30.9665 139.425C44.269 142.176 58.0656 141.311 70.9204 136.92L71.5575 136.703L70.9795 135.562C69.196 131.668 68.5609 127.347 69.1486 123.104C69.7364 118.862 71.5226 114.876 74.2974 111.614C77.1247 108.327 80.2005 105.263 83.4975 102.448C87.9017 98.5801 91.3816 93.7729 93.6804 88.3809C94.5625 86.3232 95.2704 84.195 95.7965 82.0189C95.4138 81.9563 95.0268 81.9046 94.6355 81.864Z" fill="#777777"/>
<path d="M102.238 38.4188C102.175 38.8152 101.999 39.1849 101.731 39.4838C101.731 39.4838 100.061 41.3978 101.391 41.6108L106.551 42.4359L107.376 37.2758C107.589 35.9458 109.503 37.6159 109.503 37.6159C109.784 37.8676 110.128 38.0391 110.498 38.1122C110.868 38.1853 111.251 38.1573 111.606 38.0313C111.962 37.9052 112.277 37.6857 112.518 37.3958C112.76 37.1059 112.919 36.7563 112.978 36.3838C113.038 36.0113 112.996 35.6296 112.857 35.2788C112.718 34.9281 112.487 34.6212 112.189 34.3905C111.89 34.1598 111.535 34.0137 111.161 33.9677C110.786 33.9216 110.407 33.9773 110.061 34.1289C110.061 34.1289 107.721 35.1198 107.934 33.7888L108.759 28.6289L103.599 27.8038C102.269 27.5908 103.939 25.6768 103.939 25.6768C104.191 25.3959 104.362 25.0523 104.435 24.6822C104.509 24.3121 104.481 23.9291 104.354 23.5736C104.228 23.218 104.009 22.903 103.719 22.6616C103.429 22.4202 103.08 22.2613 102.707 22.2017C102.335 22.1421 101.953 22.1839 101.602 22.3228C101.251 22.4617 100.944 22.6925 100.714 22.991C100.483 23.2895 100.337 23.6446 100.291 24.019C100.245 24.3934 100.301 24.7734 100.452 25.1188C100.452 25.1188 101.442 27.4588 100.112 27.2448L94.9521 26.4198L94.1271 31.5798C93.9141 32.9108 96.254 31.9198 96.254 31.9198C96.5995 31.7681 96.9794 31.7124 97.3539 31.7583C97.7283 31.8042 98.0835 31.9502 98.3821 32.1808C98.6806 32.4114 98.9115 32.7183 99.0505 33.069C99.1895 33.4197 99.2315 33.8014 99.172 34.1739C99.1125 34.5464 98.9537 34.8961 98.7124 35.186C98.4711 35.476 98.1561 35.6956 97.8005 35.8218C97.445 35.9479 97.062 35.976 96.6919 35.903C96.3218 35.8299 95.9781 35.6585 95.6971 35.4068C95.6971 35.4068 93.7831 33.7358 93.5701 35.0668L92.7451 40.2268L97.905 41.0518C99.235 41.2648 98.2451 38.9258 98.2451 38.9258C98.1133 38.6267 98.0531 38.3009 98.0693 37.9744C98.0856 37.6479 98.1779 37.3297 98.3389 37.0452C98.4998 36.7606 98.7249 36.5176 98.9963 36.3354C99.2678 36.1532 99.578 36.0369 99.9023 35.9957C100.227 35.9546 100.556 35.9897 100.864 36.0983C101.173 36.2069 101.451 36.3859 101.678 36.6212C101.905 36.8565 102.074 37.1416 102.172 37.4537C102.269 37.7658 102.292 38.0962 102.239 38.4188H102.238Z" fill="#284A6F" stroke="white" stroke-miterlimit="10"/>
<path d="M82.1966 61.5729C82.5978 61.5728 82.9905 61.6884 83.3276 61.9059C83.3276 61.9059 85.4817 63.2539 85.4817 61.9059V56.6799H80.2557C78.9087 56.6799 80.2557 54.5259 80.2557 54.5259C80.46 54.2088 80.575 53.8424 80.5887 53.4653C80.6025 53.0883 80.5144 52.7146 80.3338 52.3834C80.1531 52.0521 79.8866 51.7757 79.5622 51.5831C79.2378 51.3905 78.8674 51.2888 78.4902 51.2888C78.1129 51.2888 77.7426 51.3905 77.4181 51.5831C77.0937 51.7757 76.8272 52.0521 76.6465 52.3834C76.4659 52.7146 76.3778 53.0883 76.3915 53.4653C76.4053 53.8424 76.5204 54.2088 76.7247 54.5259C76.7247 54.5259 78.0717 56.6799 76.7247 56.6799H71.4986V61.9059C71.4986 63.2539 69.3447 61.9059 69.3447 61.9059C69.0275 61.7017 68.6611 61.5866 68.284 61.5728C67.907 61.5591 67.5332 61.6472 67.202 61.8278C66.8708 62.0085 66.5944 62.275 66.4018 62.5994C66.2092 62.9238 66.1075 63.2942 66.1075 63.6714C66.1075 64.0487 66.2092 64.419 66.4018 64.7435C66.5944 65.0679 66.8708 65.3344 67.202 65.5151C67.5332 65.6957 67.907 65.7838 68.284 65.77C68.6611 65.7563 69.0275 65.6412 69.3447 65.437C69.3447 65.437 71.4986 64.089 71.4986 65.437V70.663H76.7247C78.0717 70.663 76.7247 72.817 76.7247 72.817C76.5204 73.1341 76.4053 73.5005 76.3915 73.8775C76.3778 74.2545 76.4659 74.6283 76.6465 74.9595C76.8272 75.2908 77.0937 75.5672 77.4181 75.7598C77.7426 75.9524 78.1129 76.0541 78.4902 76.0541C78.8674 76.0541 79.2378 75.9524 79.5622 75.7598C79.8866 75.5672 80.1531 75.2908 80.3338 74.9595C80.5144 74.6283 80.6025 74.2545 80.5887 73.8775C80.575 73.5005 80.46 73.1341 80.2557 72.817C80.2557 72.817 78.9087 70.664 80.2557 70.663H85.4817V65.437C85.4817 64.089 83.3276 65.437 83.3276 65.437C83.053 65.6143 82.7408 65.7251 82.4159 65.7606C82.0909 65.796 81.7622 65.7551 81.4558 65.6411C81.1494 65.527 80.8739 65.3431 80.6512 65.1038C80.4284 64.8646 80.2646 64.5766 80.1728 64.2629C80.0809 63.9491 80.0637 63.6183 80.1222 63.2967C80.1808 62.9751 80.3136 62.6716 80.5102 62.4103C80.7067 62.1491 80.9615 61.9374 81.2543 61.7921C81.547 61.6467 81.8697 61.5716 82.1966 61.5729Z" fill="#284A6F" stroke="white" stroke-miterlimit="10"/>
<path d="M52.6636 39.407C52.6638 39.8085 52.5482 40.2015 52.3306 40.539C52.3306 40.539 50.9836 42.693 52.3306 42.693H57.5566V37.467C57.5566 36.12 59.7106 37.467 59.7106 37.467C60.0278 37.6713 60.3942 37.7863 60.7712 37.8C61.1483 37.8138 61.522 37.7258 61.8533 37.5451C62.1845 37.3645 62.4609 37.0979 62.6535 36.7735C62.8461 36.4491 62.9478 36.0788 62.9478 35.7015C62.9478 35.3242 62.8461 34.9539 62.6535 34.6295C62.4609 34.305 62.1845 34.0385 61.8533 33.8578C61.522 33.6772 61.1483 33.5891 60.7712 33.6028C60.3942 33.6166 60.0278 33.7317 59.7106 33.936C59.7106 33.936 57.5566 35.283 57.5566 33.936V28.71H52.3336C50.9866 28.71 52.3336 26.556 52.3336 26.556C52.5379 26.2388 52.653 25.8724 52.6667 25.4954C52.6805 25.1183 52.5924 24.7446 52.4117 24.4134C52.2311 24.0822 51.9646 23.8057 51.6401 23.6131C51.3157 23.4205 50.9454 23.3188 50.5681 23.3188C50.1908 23.3188 49.8206 23.4205 49.4962 23.6131C49.1717 23.8057 48.9051 24.0822 48.7245 24.4134C48.5438 24.7446 48.4558 25.1183 48.4695 25.4954C48.4833 25.8724 48.5983 26.2388 48.8026 26.556C48.8026 26.556 50.1496 28.71 48.8026 28.71H43.5767V33.937C43.5767 35.284 41.4227 33.937 41.4227 33.937C41.1055 33.7327 40.7391 33.6176 40.3621 33.6039C39.985 33.5901 39.6113 33.6782 39.28 33.8588C38.9488 34.0395 38.6724 34.306 38.4798 34.6304C38.2872 34.9549 38.1855 35.3252 38.1855 35.7025C38.1855 36.0797 38.2872 36.4501 38.4798 36.7745C38.6724 37.0989 38.9488 37.3654 39.28 37.5461C39.6113 37.7267 39.985 37.8148 40.3621 37.8011C40.7391 37.7873 41.1055 37.6722 41.4227 37.468C41.4227 37.468 43.5757 36.121 43.5767 37.468V42.694H48.8026C50.1496 42.694 48.8026 40.54 48.8026 40.54C48.6253 40.2654 48.5145 39.9533 48.4791 39.6284C48.4436 39.3034 48.4845 38.9747 48.5984 38.6683C48.7124 38.362 48.8963 38.0865 49.1355 37.8638C49.3747 37.641 49.6626 37.4771 49.9763 37.3853C50.2899 37.2934 50.6207 37.2759 50.9423 37.3344C51.2638 37.3929 51.5674 37.5256 51.8286 37.722C52.0899 37.9185 52.3017 38.1731 52.4471 38.4658C52.5926 38.7585 52.6678 39.0811 52.6666 39.408L52.6636 39.407Z" fill="#284A6F" stroke="white" stroke-miterlimit="10"/>
<path d="M74.7861 47.5869C74.3849 47.5869 73.9923 47.7025 73.6551 47.9198C73.6551 47.9198 71.5011 49.2668 71.5011 47.9198V42.6938H66.2761C64.9291 42.6938 66.2761 44.8478 66.2761 44.8478C66.4804 45.165 66.5954 45.5314 66.6092 45.9084C66.6229 46.2854 66.5348 46.6592 66.3542 46.9904C66.1735 47.3216 65.907 47.5981 65.5826 47.7907C65.2582 47.9833 64.8878 48.085 64.5106 48.085C64.1333 48.085 63.763 47.9833 63.4386 47.7907C63.1142 47.5981 62.8476 47.3216 62.6669 46.9904C62.4863 46.6592 62.3982 46.2854 62.412 45.9084C62.4257 45.5314 62.5408 45.165 62.7451 44.8478C62.7451 44.8478 64.0921 42.6938 62.7451 42.6938H57.5161V47.9198C57.5161 49.2668 55.3621 47.9198 55.3621 47.9198C55.0449 47.7155 54.6785 47.6005 54.3015 47.5867C53.9245 47.573 53.5507 47.661 53.2195 47.8417C52.8883 48.0223 52.6118 48.2889 52.4192 48.6133C52.2266 48.9377 52.125 49.308 52.125 49.6853C52.125 50.0626 52.2266 50.4329 52.4192 50.7573C52.6118 51.0817 52.8883 51.3483 53.2195 51.5289C53.5507 51.7096 53.9245 51.7977 54.3015 51.7839C54.6785 51.7702 55.0449 51.6551 55.3621 51.4508C55.3621 51.4508 57.5161 50.1038 57.5161 51.4508V56.6768H62.7421C64.0891 56.6768 62.7421 54.5228 62.7421 54.5228C62.5378 54.2056 62.4227 53.8393 62.409 53.4622C62.3952 53.0852 62.4833 52.7114 62.6639 52.3802C62.8446 52.049 63.1111 51.7726 63.4355 51.58C63.76 51.3874 64.1303 51.2857 64.5076 51.2857C64.8849 51.2857 65.2552 51.3874 65.5796 51.58C65.904 51.7726 66.1705 52.049 66.3512 52.3802C66.5318 52.7114 66.6199 53.0852 66.6062 53.4622C66.5925 53.8393 66.4774 54.2056 66.2731 54.5228C66.2731 54.5228 64.9261 56.6768 66.2731 56.6768H71.4991V51.4518C71.4991 50.1048 73.6531 51.4518 73.6531 51.4518C73.9277 51.6292 74.2399 51.74 74.5649 51.7755C74.8898 51.8109 75.2186 51.77 75.525 51.6559C75.8313 51.5419 76.1069 51.358 76.3296 51.1187C76.5523 50.8794 76.7161 50.5914 76.8079 50.2777C76.8998 49.964 76.9171 49.6332 76.8585 49.3116C76.8 48.99 76.6671 48.6864 76.4706 48.4252C76.274 48.164 76.0192 47.9523 75.7264 47.8069C75.4337 47.6616 75.1109 47.5865 74.7841 47.5878L74.7861 47.5869Z" fill="#284A6F" stroke="white" stroke-miterlimit="10"/>
<path d="M75.5176 36.883C75.3278 36.5294 75.04 36.2381 74.6887 36.044C74.6887 36.044 72.4826 34.784 73.6696 34.144L78.2697 31.671L75.7966 27.071C75.1586 25.884 73.8966 28.0901 73.8966 28.0901C73.7139 28.4202 73.4457 28.6951 73.1201 28.8857C72.7945 29.0763 72.4235 29.1757 72.0462 29.1734C71.6689 29.171 71.2991 29.0672 70.9759 28.8725C70.6526 28.6779 70.3878 28.3997 70.2092 28.0673C70.0306 27.735 69.9449 27.3606 69.9611 26.9837C69.9772 26.6067 70.0946 26.241 70.3009 25.9251C70.5072 25.6092 70.7948 25.3547 71.1335 25.1884C71.4722 25.0221 71.8495 24.9501 72.2256 24.98C72.2256 24.98 74.7606 25.148 74.1256 23.96L71.6526 19.36L67.0526 21.833C65.8656 22.471 66.0336 19.933 66.0336 19.933C66.0636 19.5569 65.9916 19.1797 65.8253 18.841C65.659 18.5023 65.4045 18.2146 65.0886 18.0083C64.7727 17.8019 64.407 17.6846 64.03 17.6684C63.6531 17.6523 63.2787 17.7381 62.9463 17.9167C62.6139 18.0952 62.3358 18.3601 62.1412 18.6833C61.9465 19.0066 61.8426 19.3763 61.8403 19.7536C61.838 20.1309 61.9374 20.5019 62.128 20.8275C62.3186 21.1531 62.5935 21.4214 62.9236 21.604C62.9236 21.604 65.1297 22.8641 63.9437 23.5041L59.3436 25.977L61.8167 30.5771C62.4547 31.7641 63.7166 29.558 63.7166 29.558C63.8993 29.2278 64.1675 28.9531 64.4932 28.7624C64.8188 28.5718 65.1898 28.4724 65.5671 28.4747C65.9444 28.477 66.3141 28.581 66.6373 28.7756C66.9606 28.9702 67.2255 29.2483 67.4041 29.5807C67.5826 29.9131 67.6684 30.2875 67.6522 30.6645C67.6361 31.0414 67.5187 31.4071 67.3124 31.723C67.106 32.0389 66.8184 32.2934 66.4797 32.4597C66.141 32.626 65.7638 32.698 65.3876 32.6681C65.3876 32.6681 62.8526 32.5 63.4876 33.687L65.9606 38.287L70.5606 35.8141C71.7476 35.1761 71.5797 37.714 71.5797 37.714C71.5533 38.0399 71.6033 38.3674 71.7258 38.6705C71.8484 38.9736 72.04 39.2439 72.2854 39.4599C72.5308 39.6759 72.8233 39.8316 73.1395 39.9146C73.4557 39.9977 73.7869 40.0057 74.1068 39.9381C74.4266 39.8706 74.7263 39.7292 74.9819 39.5254C75.2376 39.3216 75.4421 39.061 75.5792 38.7642C75.7163 38.4674 75.7822 38.1427 75.7717 37.8159C75.7612 37.4892 75.6745 37.1694 75.5186 36.882L75.5176 36.883Z" fill="#284A6F" stroke="white" stroke-miterlimit="10"/>
<path d="M87.2012 5.10394C87.2723 4.70919 87.4557 4.34331 87.7292 4.04999C87.7292 4.04999 89.4382 2.16999 88.1122 1.92999L82.9702 1L82.0402 6.14197C81.8002 7.46797 79.9212 5.75897 79.9212 5.75897C79.6454 5.5014 79.3054 5.32288 78.9368 5.24219C78.5682 5.16149 78.1846 5.18161 77.8265 5.30042C77.4683 5.41922 77.1488 5.63235 76.9015 5.91736C76.6542 6.20237 76.4883 6.54873 76.4212 6.92004C76.3541 7.29136 76.3882 7.67392 76.5201 8.02747C76.6519 8.38101 76.8766 8.69246 77.1705 8.92914C77.4644 9.16581 77.8166 9.31897 78.1902 9.37244C78.5637 9.4259 78.9447 9.37771 79.2932 9.23297C79.2932 9.23297 81.6522 8.29097 81.4132 9.61597L80.4832 14.758L85.6252 15.688C86.9512 15.928 85.2422 17.8069 85.2422 17.8069C84.9848 18.0828 84.8065 18.4228 84.7259 18.7914C84.6454 19.1599 84.6657 19.5434 84.7845 19.9015C84.9034 20.2595 85.1165 20.5789 85.4015 20.8261C85.6865 21.0733 86.0328 21.2392 86.404 21.3063C86.7753 21.3734 87.1577 21.3392 87.5112 21.2074C87.8647 21.0756 88.1762 20.851 88.4128 20.5572C88.6495 20.2634 88.8026 19.9113 88.8562 19.5378C88.9097 19.1644 88.8617 18.7835 88.7172 18.435C88.7172 18.435 87.7742 16.0759 89.1002 16.3149L94.2422 17.245L95.1722 12.103C95.4122 10.777 93.0522 11.72 93.0522 11.72C92.7038 11.8647 92.3226 11.9129 91.9491 11.8594C91.5756 11.806 91.2234 11.6528 90.9296 11.4161C90.6357 11.1795 90.4109 10.868 90.279 10.5145C90.1472 10.1609 90.113 9.77836 90.1802 9.40704C90.2473 9.03572 90.4132 8.68937 90.6605 8.40436C90.9078 8.11935 91.2273 7.90622 91.5854 7.78741C91.9436 7.66861 92.3272 7.64849 92.6958 7.72919C93.0644 7.80988 93.4044 7.98839 93.6802 8.24597C93.6802 8.24597 95.5602 9.95497 95.7992 8.62897L96.7292 3.487L91.5872 2.55695C90.2612 2.31695 91.2042 4.67694 91.2042 4.67694C91.331 4.97879 91.3855 5.30616 91.3633 5.63281C91.3411 5.95947 91.2428 6.27637 91.0763 6.55829C90.9098 6.84021 90.6798 7.07932 90.4044 7.25647C90.1291 7.43362 89.816 7.54394 89.4905 7.57861C89.1649 7.61329 88.8358 7.57137 88.5293 7.45618C88.2228 7.34099 87.9476 7.15569 87.7255 6.91516C87.5033 6.67463 87.3405 6.38552 87.25 6.07086C87.1595 5.75621 87.1438 5.42476 87.2042 5.10297L87.2012 5.10394Z" fill="#284A6F" stroke="white" stroke-miterlimit="10"/>
<path d="M74.7507 51.784C74.3495 51.7842 73.9567 51.6685 73.6196 51.451C73.6196 51.451 71.4656 50.103 71.4656 51.451V56.677H76.6917C78.0387 56.677 76.6917 54.523 76.6917 54.523C76.4874 54.2058 76.3723 53.8394 76.3585 53.4624C76.3448 53.0854 76.4329 52.7116 76.6135 52.3804C76.7942 52.0491 77.0607 51.7727 77.3851 51.5801C77.7096 51.3875 78.0799 51.2859 78.4572 51.2859C78.8344 51.2859 79.2048 51.3875 79.5292 51.5801C79.8536 51.7727 80.1201 52.0491 80.3008 52.3804C80.4814 52.7116 80.5695 53.0854 80.5558 53.4624C80.542 53.8394 80.4269 54.2058 80.2227 54.523C80.2227 54.523 78.8757 56.677 80.2227 56.677H85.4487V51.451C85.4487 50.103 87.6026 51.451 87.6026 51.451C87.9198 51.6553 88.2862 51.7704 88.6633 51.7841C89.0403 51.7979 89.4141 51.7098 89.7453 51.5291C90.0765 51.3485 90.3529 51.0819 90.5455 50.7575C90.7381 50.4331 90.8398 50.0628 90.8398 49.6855C90.8398 49.3082 90.7381 48.9379 90.5455 48.6135C90.3529 48.289 90.0765 48.0225 89.7453 47.8419C89.4141 47.6612 89.0403 47.5731 88.6633 47.5869C88.2862 47.6006 87.9198 47.7157 87.6026 47.92C87.6026 47.92 85.4487 49.267 85.4487 47.92V42.693H80.2227C78.8757 42.693 80.2227 44.847 80.2227 44.847C80.4269 45.1642 80.542 45.5306 80.5558 45.9076C80.5695 46.2846 80.4814 46.6584 80.3008 46.9896C80.1201 47.3208 79.8536 47.5973 79.5292 47.7899C79.2048 47.9825 78.8344 48.0841 78.4572 48.0841C78.0799 48.0841 77.7096 47.9825 77.3851 47.7899C77.0607 47.5973 76.7942 47.3208 76.6135 46.9896C76.4329 46.6584 76.3448 46.2846 76.3585 45.9076C76.3723 45.5306 76.4874 45.1642 76.6917 44.847C76.6917 44.847 78.0387 42.693 76.6917 42.693H71.4656V47.919C71.4656 49.266 73.6196 47.919 73.6196 47.919C73.8942 47.7416 74.2065 47.6308 74.5314 47.5954C74.8564 47.56 75.1852 47.6009 75.4915 47.7149C75.7979 47.8289 76.0734 48.0129 76.2961 48.2521C76.5189 48.4914 76.6826 48.7793 76.7745 49.0931C76.8663 49.4068 76.8836 49.7377 76.8251 50.0593C76.7665 50.3809 76.6337 50.6843 76.4371 50.9456C76.2406 51.2068 75.9858 51.4185 75.693 51.5639C75.4002 51.7093 75.0776 51.7843 74.7507 51.783V51.784Z" fill="#284A6F" stroke="white" stroke-miterlimit="10"/>
<path d="M107.642 58.686C108.034 58.5999 108.393 58.4027 108.676 58.118C108.676 58.118 110.49 56.339 110.776 57.656L111.898 62.756L116.998 61.634C118.314 61.345 116.536 59.534 116.536 59.534C116.269 59.268 116.078 58.9349 115.983 58.5696C115.889 58.2044 115.895 57.8204 116 57.4582C116.105 57.0959 116.306 56.7688 116.582 56.511C116.857 56.2533 117.197 56.0746 117.566 55.9936C117.934 55.9126 118.318 55.9324 118.676 56.0508C119.034 56.1693 119.354 56.3821 119.601 56.6667C119.849 56.9514 120.015 57.2975 120.083 57.6687C120.15 58.0399 120.116 58.4224 119.985 58.776C119.985 58.776 119.132 61.169 120.448 60.876L125.548 59.754L124.426 54.654C124.137 53.338 126.526 54.191 126.526 54.191C126.88 54.3224 127.262 54.3561 127.633 54.2885C128.005 54.2209 128.351 54.0546 128.636 53.8069C128.92 53.5593 129.133 53.2396 129.251 52.8813C129.37 52.523 129.389 52.1395 129.308 51.771C129.227 51.4025 129.048 51.0627 128.79 50.7872C128.532 50.5118 128.205 50.3109 127.843 50.2057C127.48 50.1006 127.096 50.0949 126.731 50.1895C126.366 50.284 126.033 50.4752 125.767 50.743C125.767 50.743 123.952 52.521 123.667 51.205L122.545 46.105L117.445 47.227C116.129 47.516 117.907 49.327 117.907 49.327C118.175 49.5929 118.366 49.926 118.46 50.2913C118.555 50.6566 118.549 51.0407 118.444 51.403C118.339 51.7654 118.138 52.0926 117.862 52.3505C117.587 52.6083 117.247 52.7871 116.878 52.8681C116.51 52.9491 116.126 52.9293 115.768 52.8109C115.41 52.6924 115.09 52.4795 114.842 52.1948C114.595 51.91 114.429 51.5638 114.361 51.1925C114.294 50.8212 114.327 50.4387 114.459 50.085C114.459 50.085 115.313 47.692 113.996 47.985L108.896 49.107L110.018 54.207C110.307 55.523 107.918 54.67 107.918 54.67C107.612 54.5557 107.283 54.5146 106.958 54.5497C106.633 54.5849 106.321 54.6954 106.046 54.8725C105.772 55.0496 105.542 55.2883 105.376 55.5698C105.21 55.8512 105.111 56.1675 105.089 56.4936C105.067 56.8197 105.121 57.1465 105.247 57.448C105.373 57.7495 105.568 58.0174 105.815 58.2304C106.063 58.4434 106.358 58.5956 106.675 58.6749C106.992 58.7541 107.323 58.7583 107.642 58.687V58.686Z" fill="#284A6F" stroke="white" stroke-miterlimit="10"/>
<path d="M96.1466 61.5729C96.5478 61.5729 96.9405 61.6885 97.2776 61.9059C97.2776 61.9059 99.4317 63.2539 99.4317 61.9059V56.6799H94.2106C92.8636 56.6799 94.2106 54.5259 94.2106 54.5259C94.4149 54.2088 94.53 53.8424 94.5437 53.4653C94.5575 53.0883 94.4694 52.7146 94.2887 52.3834C94.1081 52.0521 93.8415 51.7757 93.5171 51.5831C93.1927 51.3905 92.8224 51.2888 92.4451 51.2888C92.0678 51.2888 91.6975 51.3905 91.3731 51.5831C91.0487 51.7757 90.7821 52.0521 90.6015 52.3834C90.4208 52.7146 90.3328 53.0883 90.3466 53.4653C90.3603 53.8424 90.4753 54.2088 90.6796 54.5259C90.6796 54.5259 92.0266 56.6799 90.6796 56.6799H85.4536V61.9059C85.4536 63.2539 83.2996 61.9059 83.2996 61.9059C82.9824 61.7017 82.6161 61.5866 82.239 61.5728C81.862 61.5591 81.4882 61.6472 81.157 61.8278C80.8258 62.0085 80.5494 62.275 80.3568 62.5994C80.1642 62.9238 80.0625 63.2942 80.0625 63.6714C80.0625 64.0487 80.1642 64.419 80.3568 64.7435C80.5494 65.0679 80.8258 65.3344 81.157 65.5151C81.4882 65.6957 81.862 65.7838 82.239 65.77C82.6161 65.7563 82.9824 65.6412 83.2996 65.437C83.2996 65.437 85.4536 64.089 85.4536 65.437V70.663H90.6796C92.0266 70.663 90.6796 68.509 90.6796 68.509C90.4753 68.1918 90.3603 67.8254 90.3466 67.4484C90.3328 67.0713 90.4208 66.6976 90.6015 66.3663C90.7821 66.0351 91.0487 65.7587 91.3731 65.5661C91.6975 65.3735 92.0678 65.2719 92.4451 65.2719C92.8224 65.2719 93.1927 65.3735 93.5171 65.5661C93.8415 65.7587 94.1081 66.0351 94.2887 66.3663C94.4694 66.6976 94.5575 67.0713 94.5437 67.4484C94.53 67.8254 94.4149 68.1918 94.2106 68.509C94.2106 68.509 92.8636 70.663 94.2106 70.663H99.4367V65.437C99.4367 64.089 97.2826 65.437 97.2826 65.437C97.008 65.6143 96.6958 65.7251 96.3709 65.7606C96.0459 65.796 95.7172 65.7551 95.4108 65.6411C95.1044 65.527 94.829 65.3431 94.6062 65.1038C94.3835 64.8646 94.2197 64.5766 94.1278 64.2629C94.036 63.9491 94.0186 63.6183 94.0772 63.2967C94.1357 62.9751 94.2686 62.6716 94.4651 62.4103C94.6617 62.1491 94.9165 61.9374 95.2093 61.7921C95.502 61.6467 95.8248 61.5716 96.1516 61.5729H96.1466Z" fill="#284A6F" stroke="white" stroke-miterlimit="10"/>
<path d="M66.6066 73.95C66.6068 73.5488 66.4911 73.1561 66.2736 72.819C66.2736 72.819 64.9266 70.665 66.2736 70.665H71.4996V65.439C71.4996 64.091 69.3456 65.439 69.3456 65.439C69.0285 65.6433 68.6621 65.7583 68.285 65.7721C67.908 65.7858 67.5342 65.6978 67.203 65.5172C66.8718 65.3365 66.5954 65.07 66.4028 64.7455C66.2102 64.4211 66.1085 64.0508 66.1085 63.6735C66.1085 63.2962 66.2102 62.9259 66.4028 62.6015C66.5954 62.2771 66.8718 62.0105 67.203 61.8299C67.5342 61.6492 67.908 61.5611 68.285 61.5749C68.6621 61.5886 69.0285 61.7037 69.3456 61.908C69.3456 61.908 71.4996 63.256 71.4996 61.908V56.682H66.2736C64.9266 56.682 66.2736 54.528 66.2736 54.528C66.4779 54.2108 66.593 53.8444 66.6068 53.4674C66.6205 53.0904 66.5324 52.7166 66.3517 52.3854C66.1711 52.0542 65.9046 51.7777 65.5801 51.5851C65.2557 51.3925 64.8854 51.2909 64.5081 51.2909C64.1308 51.2909 63.7605 51.3925 63.4361 51.5851C63.1117 51.7777 62.8451 52.0542 62.6645 52.3854C62.4838 52.7166 62.3958 53.0904 62.4095 53.4674C62.4233 53.8444 62.5383 54.2108 62.7426 54.528C62.7426 54.528 64.0896 56.682 62.7426 56.682H57.5167V61.908C57.5167 63.256 59.6707 61.908 59.6707 61.908C59.9878 61.7037 60.3542 61.5886 60.7312 61.5749C61.1082 61.5611 61.482 61.6492 61.8132 61.8299C62.1445 62.0105 62.4209 62.2771 62.6135 62.6015C62.8061 62.9259 62.9078 63.2962 62.9078 63.6735C62.9078 64.0508 62.8061 64.4211 62.6135 64.7455C62.4209 65.07 62.1445 65.3365 61.8132 65.5172C61.482 65.6978 61.1082 65.7858 60.7312 65.7721C60.3542 65.7583 59.9878 65.6433 59.6707 65.439C59.6707 65.439 57.5167 64.091 57.5167 65.439V70.665H62.7426C64.0896 70.665 62.7426 72.819 62.7426 72.819C62.5653 73.0936 62.4544 73.4058 62.419 73.7308C62.3836 74.0557 62.4245 74.3845 62.5385 74.6909C62.6525 74.9972 62.8365 75.2727 63.0758 75.4955C63.3151 75.7182 63.603 75.882 63.9167 75.9739C64.2305 76.0657 64.5613 76.083 64.8829 76.0244C65.2045 75.9658 65.508 75.833 65.7692 75.6365C66.0304 75.4399 66.2421 75.1851 66.3875 74.8923C66.5329 74.5995 66.6079 74.2769 66.6066 73.95Z" fill="#284A6F" stroke="white" stroke-miterlimit="10"/>
<path d="M54.2717 47.586C54.6729 47.5859 55.0655 47.7015 55.4026 47.919C55.4026 47.919 57.5566 49.267 57.5566 47.919V42.693H52.3336C50.9866 42.693 52.3336 40.539 52.3336 40.539C52.5379 40.2218 52.653 39.8554 52.6667 39.4784C52.6805 39.1014 52.5924 38.7276 52.4117 38.3964C52.2311 38.0652 51.9646 37.7887 51.6401 37.5961C51.3157 37.4035 50.9454 37.3019 50.5681 37.3019C50.1908 37.3019 49.8206 37.4035 49.4962 37.5961C49.1717 37.7887 48.9051 38.0652 48.7245 38.3964C48.5438 38.7276 48.4558 39.1014 48.4695 39.4784C48.4833 39.8554 48.5983 40.2218 48.8026 40.539C48.8026 40.539 50.1496 42.693 48.8026 42.693H43.5767V47.92C43.5767 49.268 41.4227 47.92 41.4227 47.92C41.1055 47.7157 40.7391 47.6007 40.3621 47.5869C39.985 47.5732 39.6113 47.6612 39.28 47.8419C38.9488 48.0225 38.6724 48.289 38.4798 48.6135C38.2872 48.9379 38.1855 49.3082 38.1855 49.6855C38.1855 50.0628 38.2872 50.4331 38.4798 50.7575C38.6724 51.0819 38.9488 51.3485 39.28 51.5291C39.6113 51.7098 39.985 51.7979 40.3621 51.7841C40.7391 51.7704 41.1055 51.6553 41.4227 51.451C41.4227 51.451 43.5767 50.104 43.5767 51.451V56.677H48.8026C50.1496 56.677 48.8026 58.831 48.8026 58.831C48.5983 59.1482 48.4833 59.5146 48.4695 59.8916C48.4558 60.2686 48.5438 60.6424 48.7245 60.9736C48.9051 61.3049 49.1717 61.5813 49.4962 61.7739C49.8206 61.9665 50.1908 62.0681 50.5681 62.0681C50.9454 62.0681 51.3157 61.9665 51.6401 61.7739C51.9646 61.5813 52.2311 61.3049 52.4117 60.9736C52.5924 60.6424 52.6805 60.2686 52.6667 59.8916C52.653 59.5146 52.5379 59.1482 52.3336 58.831C52.3336 58.831 50.9866 56.678 52.3336 56.677H57.5596V51.451C57.5596 50.104 55.4056 51.451 55.4056 51.451C55.131 51.6284 54.8189 51.7392 54.4939 51.7746C54.1689 51.81 53.8402 51.7691 53.5338 51.6551C53.2274 51.5411 52.9519 51.3571 52.7292 51.1179C52.5065 50.8786 52.3426 50.5906 52.2508 50.2769C52.159 49.9632 52.1416 49.6323 52.2002 49.3107C52.2588 48.9891 52.3916 48.6857 52.5881 48.4244C52.7847 48.1632 53.0395 47.9515 53.3323 47.8061C53.6251 47.6607 53.9478 47.5857 54.2747 47.587L54.2717 47.586Z" fill="#284A6F" stroke="white" stroke-miterlimit="10"/>
<path d="M96.1466 75.5529C96.5478 75.553 96.9404 75.6686 97.2776 75.8859C97.2776 75.8859 99.4317 77.2339 99.4317 75.8859V70.6599H94.2106C92.8636 70.6599 94.2106 68.5059 94.2106 68.5059C94.4149 68.1887 94.53 67.8223 94.5437 67.4453C94.5575 67.0683 94.4694 66.6945 94.2887 66.3633C94.1081 66.0321 93.8415 65.7556 93.5171 65.563C93.1927 65.3705 92.8224 65.2688 92.4451 65.2688C92.0678 65.2688 91.6975 65.3705 91.3731 65.563C91.0487 65.7556 90.7821 66.0321 90.6015 66.3633C90.4208 66.6945 90.3328 67.0683 90.3466 67.4453C90.3603 67.8223 90.4753 68.1887 90.6796 68.5059C90.6796 68.5059 92.0266 70.6599 90.6796 70.6599H85.4536V75.8859C85.4536 77.2339 83.2996 75.8859 83.2996 75.8859C82.9824 75.6816 82.6161 75.5665 82.239 75.5528C81.862 75.539 81.4882 75.6272 81.157 75.8078C80.8258 75.9884 80.5494 76.255 80.3568 76.5794C80.1642 76.9038 80.0625 77.2741 80.0625 77.6514C80.0625 78.0287 80.1642 78.399 80.3568 78.7234C80.5494 79.0479 80.8258 79.3144 81.157 79.4951C81.4882 79.6757 81.862 79.7637 82.239 79.75C82.6161 79.7363 82.9824 79.6212 83.2996 79.4169C83.2996 79.4169 85.4536 78.0699 85.4536 79.4169V84.6429H90.6796C92.0266 84.6429 90.6796 82.4889 90.6796 82.4889C90.4753 82.1717 90.3603 81.8054 90.3466 81.4283C90.3328 81.0513 90.4208 80.6775 90.6015 80.3463C90.7821 80.0151 91.0487 79.7386 91.3731 79.546C91.6975 79.3534 92.0678 79.2518 92.4451 79.2518C92.8224 79.2518 93.1927 79.3534 93.5171 79.546C93.8415 79.7386 94.1081 80.0151 94.2887 80.3463C94.4694 80.6775 94.5575 81.0513 94.5437 81.4283C94.53 81.8054 94.4149 82.1717 94.2106 82.4889C94.2106 82.4889 92.8636 84.6429 94.2106 84.6429H99.4367V79.4159C99.4367 78.0689 97.2826 79.4159 97.2826 79.4159C97.008 79.5933 96.6958 79.7041 96.3709 79.7395C96.0459 79.7749 95.7172 79.734 95.4108 79.62C95.1044 79.506 94.829 79.322 94.6062 79.0828C94.3835 78.8435 94.2197 78.5556 94.1278 78.2418C94.036 77.9281 94.0186 77.5972 94.0772 77.2756C94.1357 76.954 94.2686 76.6506 94.4651 76.3893C94.6617 76.1281 94.9165 75.9164 95.2093 75.771C95.502 75.6256 95.8248 75.5506 96.1516 75.5519L96.1466 75.5529Z" fill="#284A6F" stroke="white" stroke-miterlimit="10"/>
</svg>
