<svg width="188" height="140" viewBox="0 0 188 140" fill="none" xmlns="http://www.w3.org/2000/svg">
<g style="mix-blend-mode:multiply">
<g style="mix-blend-mode:multiply">
<path d="M91.4408 10.187C99.9342 13.7458 107.289 19.5656 112.706 27.0132C118.122 34.4609 121.392 43.2512 122.161 52.428C122.547 57.961 121.929 63.75 119.113 68.528C116.297 73.306 110.944 76.848 105.42 76.341C101.099 75.941 97.3718 73.271 93.8828 70.692L52.8828 40.383C49.2988 37.733 45.6488 35.018 43.0948 31.365C40.9948 28.36 38.7148 22.725 40.6508 19.107C42.3058 16.015 47.6078 13.642 50.6098 12.143C58.6655 8.14009 67.6312 6.32314 76.6098 6.87399C81.6987 7.17854 86.706 8.29706 91.4408 10.187Z" fill="#284A6F"/>
</g>
</g>
<path d="M145.323 140H146.884V135.3C147.575 121.369 153.608 115.548 157.143 113.318C161.406 110.63 162.518 110.389 165.82 109.675C166.74 109.475 167.887 109.228 169.3 108.882C169.931 108.728 170.566 108.582 171.2 108.434C173.95 107.903 176.633 107.07 179.2 105.952C182.906 104.175 185.479 101.333 186.259 98.152C187.068 94.852 185.694 91.4331 184.483 88.4181C184.306 87.9791 184.132 87.545 183.966 87.118C183.77 86.6002 183.698 86.0437 183.756 85.493C183.814 84.9424 184 84.4129 184.299 83.9471C184.474 83.693 184.663 83.4492 184.866 83.217C185.193 82.8522 185.481 82.4552 185.726 82.032C186.038 81.4502 186.206 80.8021 186.216 80.1421C186.227 79.482 186.078 78.8291 185.784 78.238C185.44 77.6046 184.945 77.0658 184.343 76.669C184.76 76.3465 185.104 75.9396 185.353 75.475C186.1 74.07 185.983 72.66 185.053 71.881C183.533 70.61 182.243 69.4321 181.853 67.8921C181.718 67.4074 181.715 66.8953 181.844 66.409C183.452 65.4383 184.886 64.2053 186.086 62.761C186.769 61.9279 187.233 60.9374 187.436 59.8795C187.639 58.8215 187.575 57.7297 187.248 56.703C186.548 54.872 184.897 53.719 183.572 52.792C182.48 52.028 181.347 51.306 180.251 50.609C177.199 48.664 174.315 46.827 172.143 44.098C170.522 41.8079 169.287 39.2676 168.487 36.578C168.087 35.459 167.666 34.301 167.194 33.186C164.839 27.622 161.05 22.886 157.384 18.297C153.273 13.155 145.566 8.30702 143.303 6.94302C131.69 -0.0519781 122.269 -0.281981 112.027 0.128019C100.585 0.487959 89.4957 4.17459 80.1154 10.737C73.823 15.3332 68.6438 21.2847 64.9606 28.1516C61.2774 35.0185 59.1843 42.6253 58.8361 50.4098C58.4879 58.1944 59.8935 65.9576 62.9489 73.1259C66.0043 80.2943 70.6315 86.6843 76.4884 91.824C80.8749 95.569 84.9672 99.6454 88.7294 104.017C92.4768 108.42 94.8679 113.815 95.6133 119.549C96.3587 125.282 95.4265 131.109 92.9294 136.324L94.3294 137.024C96.9604 131.531 97.9429 125.393 97.1581 119.353C96.3733 113.313 93.8548 107.63 89.9074 102.992C86.0999 98.5668 81.9577 94.441 77.5174 90.651C71.838 85.6655 67.3512 79.4675 64.3886 72.5152C61.426 65.5628 60.0633 58.0336 60.4011 50.4839C60.7389 42.9342 62.7686 35.5568 66.3403 28.8968C69.912 22.2369 74.9344 16.4645 81.0364 12.006C90.1668 5.62286 100.959 2.03875 112.094 1.69205C124.194 1.20805 132.226 2.09203 142.503 8.28503C144.711 9.61503 152.221 14.337 156.171 19.276C159.771 23.776 163.491 28.433 165.762 33.799C166.218 34.875 166.628 36.012 167.024 37.112C167.88 39.9637 169.197 42.6558 170.924 45.081C173.258 48.014 176.388 50.007 179.414 51.936C180.496 52.625 181.614 53.3361 182.679 54.0821C184.092 55.0701 185.302 55.992 185.792 57.273C186.018 58.0532 186.049 58.8766 185.884 59.6717C185.718 60.4667 185.36 61.209 184.841 61.834C183.674 63.2043 182.286 64.3706 180.735 65.285C180.584 65.3864 180.472 65.5379 180.42 65.713C180.145 66.5448 180.117 67.4389 180.341 68.286C180.888 70.441 182.717 71.971 184.053 73.086C184.437 73.408 184.283 74.1731 183.977 74.7491C183.804 75.0637 183.559 75.3325 183.261 75.5332C182.963 75.7339 182.622 75.8607 182.265 75.903C182.075 75.9226 181.899 76.0111 181.77 76.1519C181.641 76.2927 181.568 76.4759 181.565 76.6668C181.562 76.8578 181.629 77.0432 181.754 77.188C181.879 77.3327 182.052 77.4267 182.241 77.4521C182.686 77.5366 183.107 77.7138 183.478 77.9723C183.849 78.2308 184.161 78.5647 184.394 78.9521C184.573 79.318 184.663 79.7208 184.656 80.1278C184.65 80.5349 184.548 80.9347 184.358 81.295C184.16 81.6257 183.93 81.9366 183.672 82.2231C183.429 82.5018 183.203 82.795 182.995 83.101C182.562 83.7751 182.293 84.5413 182.209 85.3382C182.125 86.1351 182.229 86.9405 182.512 87.69C182.681 88.125 182.857 88.565 183.036 89.01C184.216 91.944 185.436 94.977 184.745 97.79C184.077 100.514 181.811 102.98 178.527 104.553C176.063 105.619 173.489 106.414 170.852 106.923C170.211 107.071 169.57 107.223 168.932 107.375C167.539 107.716 166.452 107.951 165.492 108.158C162.084 108.895 160.809 109.171 156.312 112.006C152.227 114.583 149.205 118.685 147.332 124.198C146.162 127.773 145.487 131.492 145.326 135.251C145.326 135.263 145.326 135.276 145.326 135.289L145.323 140Z" fill="#777777"/>
<g style="mix-blend-mode:multiply">
<g style="mix-blend-mode:multiply">
<path d="M96.112 10.1872C87.6186 13.746 80.2636 19.5658 74.8473 27.0134C69.4309 34.4611 66.1606 43.2514 65.392 52.4282C65.006 57.9612 65.625 63.7502 68.44 68.5282C71.255 73.3062 76.609 76.8482 82.133 76.3412C86.454 75.9412 90.181 73.2712 93.67 70.6922L134.67 40.3832C138.254 37.7332 141.903 35.0182 144.457 31.3652C146.557 28.3602 148.837 22.7252 146.901 19.1072C145.247 16.0152 139.944 13.6422 136.943 12.1432C128.887 8.14046 119.922 6.32351 110.943 6.87418C105.854 7.17886 100.847 8.29738 96.112 10.1872Z" fill="#284A6F"/>
</g>
</g>
<path d="M110.827 48.6579C114.734 39.2255 110.255 28.4118 100.822 24.5047C91.3898 20.5977 80.5761 25.0769 76.6691 34.5093C72.7621 43.9417 77.2412 54.7554 86.6736 58.6624C96.106 62.5694 106.92 58.0903 110.827 48.6579Z" fill="#3876BF"/>
<path d="M105.511 37.9321H97.3948V29.8171C97.3948 29.4723 97.2578 29.1417 97.014 28.8979C96.7702 28.6541 96.4396 28.5171 96.0948 28.5171H91.3948C91.05 28.5171 90.7193 28.6541 90.4755 28.8979C90.2317 29.1417 90.0948 29.4723 90.0948 29.8171V37.9321H81.9788C81.634 37.9321 81.3033 38.0691 81.0595 38.3129C80.8157 38.5567 80.6788 38.8873 80.6788 39.2321V43.9321C80.6788 44.2769 80.8157 44.6075 81.0595 44.8513C81.3033 45.0951 81.634 45.2321 81.9788 45.2321H90.0948V53.3481C90.0948 53.6929 90.2317 54.0235 90.4755 54.2673C90.7193 54.5111 91.05 54.6481 91.3948 54.6481H96.0948C96.4396 54.6481 96.7702 54.5111 97.014 54.2673C97.2578 54.0235 97.3948 53.6929 97.3948 53.3481V45.2321H105.511C105.856 45.2321 106.186 45.0951 106.43 44.8513C106.674 44.6075 106.811 44.2769 106.811 43.9321V39.2321C106.811 38.8873 106.674 38.5567 106.43 38.3129C106.186 38.0691 105.856 37.9321 105.511 37.9321Z" fill="white"/>
<path d="M39.9257 56.8621C37.834 56.8632 35.7654 56.4251 33.8537 55.576C29.9474 53.7396 26.8515 50.5326 25.1537 46.564C25.0569 46.3443 25.0514 46.0952 25.1383 45.8713C25.2252 45.6475 25.3975 45.4673 25.6172 45.3705C25.837 45.2737 26.0862 45.2682 26.31 45.3551C26.5338 45.442 26.7139 45.6143 26.8107 45.834C28.3265 49.3929 31.0966 52.2711 34.5947 53.9221C36.2381 54.6518 38.0137 55.0365 39.8117 55.0524C41.6097 55.0682 43.3918 54.7148 45.0477 54.014C45.1571 53.9676 45.2746 53.9431 45.3935 53.942C45.5123 53.9409 45.6302 53.9632 45.7404 54.0077C45.8507 54.0522 45.951 54.118 46.0359 54.2012C46.1207 54.2845 46.1883 54.3837 46.2347 54.493C46.2812 54.6024 46.3057 54.72 46.3068 54.8388C46.3079 54.9577 46.2856 55.0755 46.2411 55.1857C46.1966 55.296 46.1309 55.3964 46.0476 55.4812C45.9643 55.566 45.8651 55.6336 45.7557 55.6801C43.9116 56.4619 41.9288 56.8639 39.9257 56.8621Z" fill="#777777"/>
<path d="M147.717 56.8623C149.808 56.8635 151.876 56.4254 153.788 55.5763C157.694 53.7399 160.79 50.5329 162.488 46.5643C162.585 46.3445 162.59 46.0954 162.503 45.8716C162.416 45.6478 162.244 45.4676 162.024 45.3708C161.805 45.274 161.555 45.2684 161.332 45.3553C161.108 45.4423 160.928 45.6146 160.831 45.8343C159.315 49.3931 156.545 52.2713 153.047 53.9223C151.403 54.6521 149.628 55.0368 147.83 55.0526C146.032 55.0684 144.25 54.715 142.594 54.0143C142.484 53.9677 142.367 53.9432 142.248 53.9421C142.129 53.9409 142.011 53.9632 141.901 54.0076C141.791 54.0521 141.69 54.1177 141.605 54.201C141.52 54.2842 141.453 54.3834 141.406 54.4928C141.36 54.6022 141.335 54.7197 141.334 54.8386C141.333 54.9574 141.355 55.0754 141.4 55.1857C141.444 55.2959 141.51 55.3963 141.593 55.4812C141.676 55.5661 141.775 55.6337 141.885 55.6803C143.73 56.4624 145.713 56.8644 147.717 56.8623Z" fill="#777777"/>
<path d="M141.727 58.9532C141.59 58.9534 141.457 58.9048 141.352 58.816C141.247 58.7272 141.177 58.6041 141.154 58.4685C141.132 58.3329 141.158 58.1937 141.229 58.0757C141.299 57.9577 141.409 57.8685 141.539 57.8242C142.942 57.3398 144.161 56.4342 145.029 55.2312C145.119 55.1061 145.255 55.0219 145.407 54.9969C145.559 54.972 145.714 55.0084 145.839 55.0982C145.965 55.188 146.049 55.3238 146.074 55.4757C146.099 55.6276 146.062 55.7831 145.972 55.9082C144.963 57.3069 143.545 58.3596 141.914 58.9222C141.854 58.9428 141.791 58.9533 141.727 58.9532Z" fill="#777777"/>
<path d="M145.407 60.1743C145.281 60.1747 145.159 60.1343 145.058 60.0594C144.958 59.9844 144.884 59.8788 144.849 59.7585C144.813 59.6381 144.818 59.5095 144.861 59.3919C144.905 59.2744 144.986 59.1742 145.091 59.1064C146.382 58.2764 147.455 57.1506 148.222 55.8224C148.26 55.7551 148.31 55.696 148.371 55.6483C148.431 55.6007 148.5 55.5656 148.575 55.545C148.649 55.5244 148.726 55.5189 148.802 55.5285C148.879 55.5382 148.952 55.5629 149.019 55.6013C149.086 55.6398 149.144 55.691 149.191 55.7522C149.237 55.8134 149.271 55.8833 149.291 55.9577C149.31 56.0322 149.315 56.1097 149.304 56.1859C149.293 56.262 149.267 56.3353 149.227 56.4013C148.367 57.8902 147.164 59.1522 145.718 60.0824C145.625 60.1423 145.517 60.1742 145.407 60.1743Z" fill="#777777"/>
<path d="M128.837 50.4001C128.431 42.6157 126.301 35.0188 122.6 28.1586C118.899 21.2983 113.72 15.3464 107.437 10.733C98.0568 4.17079 86.9677 0.484171 75.5258 0.124038C65.2838 -0.285962 55.8628 -0.0549598 44.2488 6.93904C41.9848 8.30204 34.2788 13.151 30.1678 18.293C26.5028 22.877 22.7128 27.6171 20.3578 33.1821C19.8858 34.2981 19.4688 35.4541 19.0648 36.5741C18.2656 39.2661 17.0302 41.8089 15.4078 44.1011C13.2358 46.8301 10.3528 48.667 7.29976 50.612C6.19976 51.312 5.07176 52.031 3.97876 52.795C2.65376 53.722 1.00477 54.875 0.303769 56.706C-0.0224624 57.7326 -0.0871422 58.8244 0.115606 59.8824C0.318353 60.9403 0.782104 61.9308 1.46476 62.764C2.04952 63.5485 2.74395 64.245 3.52677 64.8321L3.56677 64.8591C4.01277 65.2041 4.53377 65.573 5.18177 66.008C7.28177 67.593 9.38776 69.6281 9.48176 71.9781C9.56776 74.1071 8.65577 76.258 7.84977 78.1561C6.79577 80.6401 5.94977 82.3771 5.13777 84.0561C4.99777 84.3447 4.8581 84.6357 4.71877 84.9291C4.71877 84.9351 4.71277 84.9491 4.70777 84.9601C4.53577 85.3221 4.36376 85.689 4.18776 86.071C3.94976 86.559 3.71576 87.0351 3.68776 87.1111C3.52076 87.5401 3.24877 87.982 3.07177 88.42C1.85977 91.436 0.485766 94.853 1.29577 98.154C2.07577 101.333 4.64876 104.176 8.35476 105.954C10.9222 107.073 13.6051 107.905 16.3548 108.437C16.9898 108.584 17.6248 108.731 18.2548 108.885C19.6688 109.23 20.8148 109.478 21.7358 109.677C25.0358 110.391 26.1488 110.632 30.4118 113.32C33.9478 115.55 39.9808 121.371 40.6708 135.302V140.002H42.2318V135.278C42.2318 135.265 42.2318 135.252 42.2318 135.24C42.071 131.481 41.3961 127.762 40.2258 124.187C38.3518 118.674 35.3308 114.572 31.2448 111.995C26.7448 109.16 25.4728 108.884 22.0648 108.147C21.1058 107.939 20.0178 107.704 18.6248 107.363C17.9878 107.207 17.3458 107.063 16.7058 106.911C14.0687 106.402 11.4949 105.607 9.02977 104.541C5.74677 102.967 3.47976 100.503 2.81276 97.7781C2.18276 95.2091 3.14477 92.4571 4.21277 89.7651C5.09577 87.7351 5.83276 86.2141 6.54876 84.7391C7.37276 83.0391 8.22377 81.286 9.29277 78.766C10.3777 76.6397 10.9772 74.2991 11.0478 71.9131C10.8978 68.2281 7.16777 65.5031 4.35877 63.5251C3.74903 63.0212 3.19729 62.451 2.71377 61.8251C2.19492 61.2002 1.83689 60.4579 1.67095 59.6629C1.50501 58.8679 1.53619 58.0442 1.76177 57.264C2.25177 55.983 3.46177 55.064 4.87477 54.073C5.93977 53.328 7.05777 52.616 8.13977 51.927C11.1668 49.999 14.2958 48.0051 16.6308 45.0721C18.3575 42.6467 19.675 39.9547 20.5308 37.103C20.9308 36.003 21.3378 34.8661 21.7928 33.7901C24.0628 28.4231 27.7848 23.769 31.3838 19.267C35.3328 14.328 42.8438 9.60605 45.0518 8.27605C55.3288 2.08605 63.3518 1.19906 75.4598 1.68306C86.5951 2.02952 97.3882 5.61364 106.519 11.9971C112.621 16.4553 117.643 22.2277 121.215 28.8876C124.787 35.5476 126.816 42.9249 127.154 50.4747C127.492 58.0244 126.129 65.5535 123.166 72.5057C120.203 79.458 115.716 85.6557 110.037 90.641C105.597 94.4315 101.454 98.5577 97.6468 102.983C93.6996 107.622 91.1813 113.304 90.3965 119.344C89.6117 125.384 90.5941 131.522 93.2248 137.015L94.6248 136.32C92.1278 131.105 91.1957 125.278 91.9411 119.545C92.6865 113.811 95.0775 108.416 98.8248 104.013C102.587 99.6412 106.679 95.5649 111.066 91.8201C116.912 86.6641 121.539 80.2733 124.612 73.1099C127.686 65.9465 129.129 58.1895 128.837 50.4001Z" fill="#777777"/>
</svg>
