<svg width="141" height="148" viewBox="0 0 141 148" fill="none" xmlns="http://www.w3.org/2000/svg">
<path d="M76.0782 37.646C80.4529 38.4124 84.5798 40.2175 88.1121 42.9096C91.6445 45.6017 94.4792 49.1022 96.3782 53.117C98.1142 56.6315 98.7598 60.5848 98.2322 64.469C97.949 66.4003 97.2227 68.2399 96.1102 69.8437C94.9976 71.4476 93.529 72.7722 91.8193 73.714C88.8743 75.196 85.4132 75.214 82.1362 74.859C71.9973 73.724 62.497 69.3418 55.0522 62.366C52.7252 60.174 50.5653 57.64 49.6603 54.574C46.7903 44.854 60.2203 38.709 67.8303 37.59C70.5659 37.1819 73.3484 37.2008 76.0782 37.646Z" fill="#E8EBEF"/>
<path d="M64.1196 112.518H62.7346C59.8486 112.509 59.2046 111.468 58.7776 108.98C58.525 107.173 58.4436 105.346 58.5345 103.523C58.5455 102.969 58.5555 102.416 58.5555 101.867C58.5135 99.6669 58.0336 95.7579 55.3026 94.1669C54.0846 93.5731 52.7619 93.2242 51.4095 93.1399C50.0474 93.0257 48.7106 92.7053 47.4446 92.1899C44.5066 90.8299 43.0106 87.8749 41.6136 84.7089L37.9396 76.3779C37.3557 75.335 36.999 74.1803 36.8929 72.9898C36.7867 71.7993 36.9335 70.5997 37.3236 69.4699C39.4446 60.3279 41.8486 49.9699 48.5626 42.2699C52.2929 38.144 57.0339 35.0612 62.3183 33.3253C67.6027 31.5893 73.2482 31.26 78.6986 32.3699C84.1207 33.6164 89.1324 36.2333 93.254 39.9703C97.3757 43.7073 100.47 48.4394 102.24 53.7139C103.896 59.018 104.208 64.651 103.145 70.1053C102.082 75.5596 99.6794 80.6637 96.1526 84.9579C95.1016 86.2129 93.9525 87.3969 92.8395 88.5419C91.5045 89.8695 90.2394 91.2658 89.0496 92.7249C87.3416 94.8999 85.3626 98.2469 85.6406 101.841C85.6926 102.505 85.8116 103.191 85.9406 103.915C86.3076 106.015 86.6866 108.19 85.3886 110.029C83.9256 112.103 81.2386 112.404 78.5516 112.421C76.7962 112.432 75.0402 112.446 73.2836 112.465C70.2756 112.489 67.1856 112.518 64.1196 112.518ZM72.3676 33.2849C68.1076 33.2804 63.8942 34.1705 60 35.8976C56.1058 37.6247 52.6177 40.1503 49.7615 43.3109C43.3085 50.7109 40.9525 60.8629 38.8735 69.8229C38.5222 70.7854 38.387 71.8134 38.4772 72.834C38.5674 73.8547 38.8809 74.843 39.3956 75.7289L43.0696 84.0599C44.3376 86.9359 45.6786 89.6119 48.1126 90.7389C49.2348 91.1842 50.4171 91.4595 51.6205 91.5559C53.1825 91.6616 54.7073 92.0799 56.1046 92.7859C57.8906 93.8289 60.0415 96.2459 60.1465 101.842V101.857C60.1465 102.419 60.1356 102.984 60.1246 103.551C60.0374 105.273 60.1111 107 60.3445 108.709C60.6915 110.733 60.8936 110.919 62.7386 110.925C66.2446 110.936 69.8126 110.902 73.2636 110.87C75.0216 110.853 76.7792 110.839 78.5366 110.826C80.7976 110.812 83.0366 110.594 84.0826 109.107C84.9996 107.807 84.6926 106.048 84.3666 104.184C84.2396 103.454 84.1075 102.699 84.0505 101.959C83.7335 97.8539 85.9115 94.1339 87.7955 91.7369C89.0192 90.2333 90.3211 88.795 91.6956 87.4279C92.7876 86.3039 93.9176 85.1419 94.9296 83.9279C98.2868 79.8429 100.575 74.9867 101.587 69.7971C102.6 64.6074 102.305 59.2473 100.73 54.1999C99.0479 49.188 96.1085 44.6912 92.1924 41.1399C88.2763 37.5885 83.5145 35.1012 78.3626 33.9159C76.3925 33.492 74.3827 33.2805 72.3676 33.2849Z" fill="#777777"/>
<path d="M70.3281 131.79C69.6281 131.79 68.9211 131.778 68.2281 131.753C68.0909 131.749 67.9613 131.69 67.8678 131.589C67.7742 131.489 67.7243 131.355 67.7291 131.218C67.7339 131.081 67.7929 130.952 67.8932 130.858C67.9935 130.764 68.127 130.715 68.2641 130.719C69.6161 130.766 70.9851 130.767 72.3301 130.719C72.4672 130.715 72.6005 130.765 72.7008 130.858C72.801 130.952 72.86 131.082 72.8646 131.219C72.8692 131.356 72.8192 131.489 72.7256 131.59C72.6319 131.69 72.5022 131.749 72.3651 131.753C71.6871 131.778 71.0081 131.79 70.3281 131.79ZM76.4341 131.477C76.3002 131.48 76.1706 131.43 76.0727 131.338C75.9749 131.247 75.9163 131.121 75.9095 130.987C75.9026 130.853 75.9479 130.722 76.0359 130.621C76.1238 130.52 76.2476 130.457 76.3811 130.445C77.7251 130.306 79.0811 130.118 80.4071 129.887C80.474 129.876 80.5426 129.877 80.6089 129.892C80.6751 129.907 80.7379 129.935 80.7934 129.974C80.849 130.013 80.8964 130.062 80.9328 130.12C80.9692 130.177 80.9939 130.241 81.0056 130.308C81.0173 130.375 81.0157 130.443 81.0009 130.51C80.9861 130.576 80.9583 130.639 80.9193 130.694C80.8802 130.75 80.8306 130.797 80.7733 130.834C80.7159 130.87 80.652 130.895 80.5851 130.906C79.2341 131.142 77.8551 131.333 76.4851 131.474C76.4681 131.476 76.4512 131.477 76.4341 131.477ZM64.1521 131.47C64.1341 131.471 64.1161 131.471 64.0981 131.47C62.7311 131.327 61.3521 131.135 59.9981 130.897C59.8661 130.87 59.7499 130.793 59.6741 130.682C59.5983 130.57 59.5689 130.434 59.5923 130.301C59.6156 130.169 59.6898 130.05 59.799 129.972C59.9082 129.893 60.0439 129.86 60.1771 129.879C61.5051 130.112 62.8591 130.301 64.2031 130.442C64.3366 130.454 64.4603 130.517 64.5483 130.618C64.6363 130.719 64.6816 130.85 64.6747 130.984C64.6678 131.118 64.6093 131.244 64.5114 131.335C64.4136 131.427 64.284 131.477 64.1501 131.474L64.1521 131.47ZM84.5091 130.07C84.3827 130.07 84.2607 130.024 84.166 129.941C84.0714 129.857 84.0108 129.741 83.9955 129.616C83.9802 129.49 84.0114 129.364 84.0832 129.26C84.155 129.156 84.2624 129.082 84.3851 129.051C85.6951 128.726 87.0101 128.351 88.2931 127.935C88.4235 127.893 88.5655 127.904 88.6877 127.967C88.8099 128.029 88.9023 128.137 88.9446 128.268C88.9869 128.398 88.9756 128.54 88.9132 128.662C88.8509 128.785 88.7426 128.877 88.6121 128.919C87.3051 129.342 85.9671 129.724 84.6331 130.054C84.5915 130.064 84.5488 130.069 84.5061 130.068L84.5091 130.07ZM56.0791 130.053C56.0366 130.053 55.9943 130.048 55.9531 130.037C54.6201 129.705 53.2821 129.321 51.9761 128.896C51.8484 128.852 51.7432 128.759 51.6831 128.638C51.6231 128.517 51.6129 128.377 51.6548 128.248C51.6966 128.12 51.7872 128.013 51.9071 127.95C52.027 127.887 52.1667 127.874 52.2961 127.913C53.5791 128.33 54.8961 128.707 56.2031 129.033C56.3259 129.064 56.4333 129.138 56.5051 129.242C56.5769 129.346 56.608 129.473 56.5926 129.598C56.5772 129.724 56.5164 129.839 56.4215 129.923C56.3267 130.007 56.2045 130.053 56.0781 130.052L56.0791 130.053ZM92.3121 127.542C92.1905 127.544 92.072 127.504 91.9776 127.427C91.8831 127.35 91.8187 127.243 91.7956 127.123C91.7726 127.004 91.7924 126.88 91.8515 126.774C91.9107 126.668 92.0055 126.586 92.1191 126.542C93.3711 126.036 94.6191 125.479 95.8371 124.887C95.9604 124.827 96.1025 124.819 96.2322 124.863C96.3619 124.908 96.4685 125.003 96.5286 125.126C96.5887 125.249 96.5973 125.391 96.5525 125.521C96.5078 125.651 96.4134 125.757 96.2901 125.817C95.0541 126.417 93.7801 126.987 92.5061 127.501C92.4449 127.527 92.3793 127.54 92.3131 127.54L92.3121 127.542ZM48.2831 127.518C48.2166 127.518 48.1507 127.505 48.0891 127.48C46.8181 126.965 45.5481 126.398 44.3151 125.795C44.2541 125.765 44.1996 125.724 44.1546 125.673C44.1097 125.622 44.0753 125.563 44.0533 125.498C44.0312 125.434 44.0221 125.366 44.0264 125.298C44.0307 125.231 44.0482 125.164 44.0781 125.103C44.108 125.042 44.1496 124.988 44.2005 124.943C44.2515 124.898 44.3108 124.864 44.375 124.842C44.4393 124.82 44.5072 124.81 44.575 124.815C44.6428 124.819 44.7091 124.836 44.7701 124.866C45.9811 125.459 47.2291 126.015 48.4781 126.521C48.5918 126.565 48.6866 126.647 48.7458 126.753C48.8049 126.86 48.8247 126.983 48.8015 127.103C48.7783 127.222 48.7137 127.33 48.619 127.406C48.5244 127.483 48.4058 127.524 48.2841 127.521L48.2831 127.518ZM99.6831 123.945C99.5691 123.946 99.4584 123.908 99.3679 123.839C99.2774 123.77 99.2123 123.672 99.1828 123.562C99.1532 123.452 99.1609 123.336 99.2046 123.23C99.2482 123.125 99.3254 123.037 99.4241 122.98C100.593 122.305 101.753 121.58 102.873 120.823C102.929 120.785 102.993 120.759 103.059 120.745C103.126 120.732 103.194 120.731 103.261 120.744C103.328 120.757 103.391 120.783 103.448 120.82C103.504 120.858 103.553 120.906 103.591 120.962C103.629 121.019 103.656 121.082 103.669 121.148C103.683 121.215 103.683 121.283 103.67 121.35C103.657 121.417 103.631 121.48 103.594 121.537C103.557 121.594 103.508 121.642 103.452 121.68C102.312 122.449 101.132 123.188 99.9421 123.88C99.864 123.923 99.7761 123.945 99.6871 123.943L99.6831 123.945ZM40.9221 123.921C40.8315 123.921 40.7425 123.898 40.6641 123.852C39.4761 123.164 38.2971 122.426 37.1641 121.652C37.0504 121.575 36.972 121.457 36.946 121.322C36.92 121.187 36.9487 121.048 37.0256 120.934C37.1025 120.82 37.2214 120.742 37.3561 120.716C37.4909 120.69 37.6305 120.718 37.7441 120.795C38.8621 121.551 40.0201 122.277 41.1871 122.952C41.2854 123.01 41.3621 123.097 41.4054 123.203C41.4487 123.308 41.4561 123.424 41.4265 123.534C41.3969 123.644 41.3319 123.741 41.2416 123.81C41.1513 123.879 41.0408 123.916 40.9271 123.916L40.9221 123.921ZM106.482 119.357C106.374 119.357 106.27 119.324 106.182 119.261C106.094 119.199 106.028 119.111 105.993 119.009C105.958 118.907 105.956 118.797 105.986 118.694C106.017 118.591 106.078 118.5 106.163 118.433C107.227 117.602 108.275 116.722 109.279 115.819C109.381 115.731 109.514 115.686 109.649 115.695C109.784 115.703 109.911 115.764 110.001 115.865C110.092 115.965 110.139 116.097 110.134 116.232C110.128 116.367 110.07 116.495 109.971 116.587C108.949 117.506 107.883 118.401 106.8 119.247C106.71 119.317 106.6 119.355 106.486 119.355L106.482 119.357ZM34.1341 119.332C34.0188 119.332 33.9068 119.294 33.8161 119.222C32.7341 118.376 31.6691 117.48 30.6491 116.561C30.597 116.516 30.5545 116.461 30.5239 116.4C30.4933 116.338 30.4754 116.271 30.4711 116.202C30.4668 116.134 30.4762 116.065 30.4989 116C30.5215 115.935 30.5569 115.875 30.603 115.824C30.649 115.773 30.7048 115.732 30.7671 115.702C30.8294 115.673 30.8968 115.656 30.9656 115.654C31.0343 115.651 31.1029 115.662 31.1674 115.686C31.2319 115.71 31.291 115.746 31.3411 115.793C32.3411 116.693 33.3911 117.576 34.4531 118.408C34.5378 118.475 34.5997 118.566 34.6301 118.669C34.6606 118.772 34.6581 118.882 34.623 118.984C34.5879 119.086 34.5219 119.174 34.4342 119.236C34.3466 119.299 34.2417 119.332 34.1341 119.332ZM112.577 113.872C112.476 113.872 112.376 113.843 112.292 113.787C112.207 113.731 112.141 113.651 112.101 113.557C112.062 113.464 112.05 113.361 112.069 113.261C112.087 113.162 112.135 113.069 112.205 112.996C113.144 112.025 114.06 111.009 114.928 109.977C115.016 109.872 115.143 109.807 115.279 109.795C115.416 109.783 115.552 109.826 115.657 109.914C115.762 110.002 115.827 110.128 115.839 110.265C115.851 110.402 115.808 110.537 115.72 110.642C114.837 111.693 113.905 112.726 112.949 113.714C112.901 113.764 112.844 113.803 112.78 113.83C112.717 113.856 112.649 113.87 112.58 113.87L112.577 113.872ZM28.0451 113.845C27.9756 113.845 27.9069 113.831 27.843 113.804C27.7791 113.777 27.7213 113.737 27.6731 113.687C26.7191 112.699 25.7871 111.665 24.9041 110.613C24.8604 110.561 24.8274 110.501 24.807 110.437C24.7865 110.372 24.779 110.304 24.7849 110.236C24.7908 110.168 24.81 110.103 24.8413 110.042C24.8727 109.982 24.9156 109.929 24.9676 109.885C25.0196 109.841 25.0797 109.808 25.1444 109.788C25.2092 109.767 25.2774 109.76 25.345 109.766C25.4126 109.772 25.4785 109.791 25.5387 109.822C25.5989 109.853 25.6524 109.896 25.6961 109.948C26.5641 110.982 27.4801 111.998 28.4181 112.969C28.4885 113.042 28.5359 113.135 28.5544 113.234C28.5729 113.334 28.5616 113.437 28.5219 113.53C28.4823 113.624 28.416 113.704 28.3314 113.76C28.2468 113.816 28.1475 113.845 28.0461 113.845H28.0451ZM117.852 107.599C117.757 107.599 117.663 107.573 117.582 107.523C117.501 107.473 117.435 107.401 117.391 107.316C117.348 107.231 117.33 107.136 117.337 107.041C117.345 106.946 117.379 106.854 117.435 106.777C118.23 105.687 118.996 104.554 119.713 103.412C119.787 103.299 119.903 103.219 120.035 103.19C120.167 103.161 120.306 103.185 120.42 103.257C120.535 103.329 120.617 103.443 120.649 103.575C120.68 103.706 120.659 103.845 120.589 103.961C119.86 105.124 119.08 106.276 118.271 107.386C118.223 107.452 118.16 107.505 118.088 107.541C118.016 107.578 117.936 107.597 117.855 107.597L117.852 107.599ZM22.7721 107.565C22.6904 107.566 22.6098 107.546 22.537 107.509C22.4642 107.472 22.4011 107.418 22.3531 107.352C21.5441 106.24 20.7641 105.086 20.0361 103.922C19.9663 103.806 19.9449 103.667 19.9765 103.536C20.008 103.404 20.09 103.29 20.2047 103.218C20.3195 103.146 20.4579 103.122 20.5901 103.151C20.7224 103.18 20.838 103.26 20.9121 103.373C21.6281 104.516 22.3941 105.65 23.1901 106.743C23.2462 106.821 23.2798 106.912 23.2873 107.007C23.2948 107.102 23.2759 107.197 23.2326 107.282C23.1894 107.367 23.1235 107.438 23.0422 107.488C22.9609 107.538 22.8674 107.564 22.7721 107.564V107.565ZM122.205 100.658C122.116 100.658 122.028 100.635 121.95 100.591C121.872 100.547 121.807 100.484 121.761 100.407C121.715 100.33 121.69 100.243 121.688 100.154C121.686 100.065 121.707 99.9762 121.749 99.8974C122.384 98.7074 122.985 97.4804 123.535 96.2504C123.563 96.1884 123.602 96.1325 123.652 96.0858C123.701 96.0391 123.759 96.0027 123.823 95.9784C123.886 95.9542 123.954 95.9427 124.021 95.9446C124.089 95.9464 124.156 95.9617 124.218 95.9894C124.28 96.0171 124.336 96.0567 124.383 96.1061C124.429 96.1554 124.466 96.2134 124.49 96.2768C124.514 96.3402 124.526 96.4078 124.524 96.4757C124.522 96.5436 124.507 96.6104 124.479 96.6724C123.919 97.9244 123.307 99.1724 122.661 100.384C122.617 100.467 122.551 100.535 122.471 100.583C122.391 100.631 122.299 100.656 122.206 100.656L122.205 100.658ZM18.4201 100.613C18.3262 100.613 18.2341 100.588 18.1537 100.54C18.0732 100.491 18.0073 100.422 17.9631 100.339C17.3171 99.1254 16.7051 97.8734 16.1461 96.6184C16.1163 96.5561 16.0992 96.4884 16.096 96.4194C16.0927 96.3504 16.1033 96.2815 16.1272 96.2167C16.151 96.1519 16.1876 96.0925 16.2348 96.042C16.2819 95.9916 16.3387 95.9511 16.4018 95.923C16.4649 95.8948 16.533 95.8796 16.602 95.8782C16.6711 95.8769 16.7397 95.8893 16.8039 95.9149C16.868 95.9405 16.9264 95.9787 16.9756 96.0272C17.0247 96.0757 17.0637 96.1336 17.0901 96.1974C17.6401 97.4304 18.2411 98.6604 18.8761 99.8534C18.9183 99.9322 18.9393 100.021 18.9371 100.11C18.935 100.199 18.9097 100.286 18.8638 100.363C18.8178 100.44 18.7528 100.503 18.675 100.547C18.5973 100.591 18.5094 100.614 18.4201 100.614V100.613ZM125.547 93.1824C125.487 93.1823 125.427 93.1715 125.37 93.1504C125.241 93.1033 125.137 93.007 125.079 92.8827C125.021 92.7583 125.015 92.6161 125.062 92.4874C125.525 91.2194 125.949 89.9194 126.321 88.6234C126.359 88.4916 126.447 88.3802 126.567 88.3137C126.687 88.2472 126.829 88.2311 126.961 88.2689C127.092 88.3067 127.204 88.3953 127.27 88.5152C127.337 88.6351 127.353 88.7766 127.315 88.9084C126.935 90.2284 126.504 91.5514 126.033 92.8424C125.997 92.9414 125.931 93.027 125.845 93.0876C125.758 93.1482 125.656 93.1809 125.55 93.1814L125.547 93.1824ZM15.0791 93.1174C14.973 93.1174 14.8694 93.0848 14.7825 93.024C14.6955 92.9632 14.6294 92.8771 14.5931 92.7774C14.1241 91.4874 13.6931 90.1634 13.3161 88.8424C13.2958 88.7766 13.2889 88.7075 13.2957 88.639C13.3024 88.5706 13.3228 88.5042 13.3556 88.4437C13.3884 88.3832 13.4329 88.3298 13.4866 88.2868C13.5402 88.2437 13.6019 88.2118 13.6681 88.1929C13.7342 88.174 13.8035 88.1685 13.8718 88.1767C13.9401 88.1849 14.0061 88.2067 14.0659 88.2407C14.1257 88.2747 14.1781 88.3204 14.22 88.3749C14.2619 88.4295 14.2926 88.4918 14.3101 88.5584C14.6811 89.8584 15.1031 91.1584 15.5651 92.4244C15.5936 92.5025 15.6028 92.5863 15.5919 92.6688C15.5811 92.7512 15.5505 92.8298 15.5028 92.8979C15.4551 92.966 15.3917 93.0216 15.3179 93.06C15.2442 93.0984 15.1622 93.1184 15.0791 93.1184V93.1174ZM127.814 85.3044C127.737 85.3044 127.661 85.2873 127.591 85.2541C127.522 85.2209 127.46 85.1726 127.412 85.1127C127.363 85.0528 127.329 84.9828 127.311 84.9078C127.293 84.8328 127.292 84.7548 127.308 84.6794C127.588 83.3614 127.826 82.0144 128.013 80.6794C128.032 80.5436 128.104 80.421 128.214 80.3384C128.323 80.2559 128.461 80.2203 128.597 80.2394C128.733 80.2585 128.855 80.3307 128.938 80.4403C129.021 80.5498 129.056 80.6876 129.037 80.8234C128.846 82.1854 128.604 83.5564 128.319 84.8974C128.294 85.0127 128.23 85.1159 128.138 85.1899C128.046 85.264 127.932 85.3043 127.814 85.3044ZM12.8271 85.2364C12.7085 85.2364 12.5935 85.1957 12.5014 85.1211C12.4093 85.0464 12.3456 84.9424 12.3211 84.8264C12.0371 83.4844 11.7971 82.1134 11.6081 80.7514C11.5979 80.6838 11.6012 80.6148 11.6178 80.5485C11.6345 80.4822 11.6641 80.4198 11.705 80.365C11.7459 80.3102 11.7972 80.2641 11.856 80.2292C11.9149 80.1944 11.9801 80.1716 12.0478 80.1622C12.1155 80.1527 12.1844 80.1568 12.2505 80.1742C12.3167 80.1915 12.3787 80.2218 12.4331 80.2633C12.4874 80.3048 12.533 80.3567 12.5671 80.4159C12.6013 80.4751 12.6234 80.5406 12.6321 80.6084C12.8181 81.9464 13.0541 83.2934 13.3321 84.6084C13.3462 84.6749 13.3469 84.7435 13.3344 84.8104C13.3219 84.8772 13.2964 84.9409 13.2592 84.9979C13.2221 85.0548 13.1741 85.1039 13.1179 85.1422C13.0618 85.1806 12.9986 85.2075 12.9321 85.2214C12.8977 85.2298 12.8625 85.2344 12.8271 85.2354V85.2364ZM128.954 77.1884H128.917C128.849 77.1837 128.783 77.1657 128.722 77.1354C128.662 77.1051 128.607 77.0631 128.563 77.0119C128.518 76.9606 128.484 76.901 128.462 76.8366C128.441 76.7722 128.432 76.7041 128.437 76.6364C128.532 75.2934 128.58 73.9264 128.582 72.5724C128.582 72.5045 128.595 72.4373 128.621 72.3745C128.647 72.3118 128.685 72.2548 128.733 72.2068C128.781 72.1588 128.838 72.1207 128.901 72.0947C128.964 72.0687 129.031 72.0554 129.099 72.0554C129.236 72.0556 129.368 72.1103 129.465 72.2074C129.562 72.3046 129.616 72.4362 129.616 72.5734C129.616 73.9504 129.565 75.3414 129.469 76.7084C129.459 76.8383 129.401 76.9597 129.305 77.0483C129.21 77.1369 129.084 77.1862 128.954 77.1864V77.1884ZM11.6961 77.1194C11.5652 77.1192 11.4393 77.0695 11.3436 76.9803C11.2478 76.891 11.1894 76.7689 11.1801 76.6384C11.0861 75.2714 11.0381 73.8814 11.0381 72.5044V72.3664C11.0381 72.2985 11.0515 72.2312 11.0775 72.1685C11.1034 72.1058 11.1415 72.0488 11.1895 72.0008C11.2375 71.9528 11.2945 71.9147 11.3572 71.8887C11.42 71.8627 11.4872 71.8494 11.5551 71.8494C11.623 71.8494 11.6902 71.8627 11.7529 71.8887C11.8157 71.9147 11.8726 71.9528 11.9207 72.0008C11.9687 72.0488 12.0068 72.1058 12.0327 72.1685C12.0587 72.2312 12.0721 72.2985 12.0721 72.3664V72.5014C12.0721 73.8544 12.1191 75.2214 12.2111 76.5634C12.2204 76.7002 12.1752 76.8351 12.0852 76.9386C11.9952 77.0421 11.8679 77.1056 11.7311 77.1154L11.6961 77.1194ZM128.962 68.9914C128.831 68.9912 128.705 68.9413 128.61 68.8518C128.514 68.7624 128.456 68.64 128.447 68.5094C128.356 67.1604 128.216 65.8004 128.032 64.4654C128.013 64.3294 128.049 64.1917 128.132 64.0823C128.215 63.973 128.338 63.9011 128.474 63.8824C128.61 63.8637 128.748 63.8997 128.857 63.9826C128.966 64.0655 129.038 64.1884 129.057 64.3244C129.244 65.6824 129.386 67.0664 129.479 68.4394C129.484 68.5071 129.475 68.5752 129.453 68.6395C129.432 68.7039 129.397 68.7634 129.353 68.8145C129.308 68.8657 129.254 68.9076 129.193 68.9377C129.132 68.9679 129.066 68.9858 128.998 68.9904L128.962 68.9914ZM11.7061 68.7844H11.6691C11.5324 68.7746 11.4052 68.711 11.3153 68.6075C11.2255 68.504 11.1805 68.3691 11.1901 68.2324C11.2901 66.8604 11.4351 65.4764 11.6271 64.1184C11.6463 63.9826 11.7187 63.86 11.8283 63.7776C11.8826 63.7368 11.9444 63.707 12.0101 63.6901C12.0759 63.6732 12.1443 63.6693 12.2116 63.6789C12.2788 63.6884 12.3435 63.7111 12.402 63.7456C12.4605 63.7801 12.5116 63.8258 12.5524 63.8801C12.5932 63.9344 12.6229 63.9962 12.6399 64.0619C12.6568 64.1277 12.6606 64.1961 12.6511 64.2634C12.4621 65.5974 12.3181 66.9574 12.2221 68.3054C12.2122 68.4355 12.1537 68.5572 12.058 68.646C11.9623 68.7348 11.8366 68.7842 11.7061 68.7844ZM127.841 60.8704C127.722 60.8704 127.607 60.8295 127.515 60.7547C127.423 60.6798 127.359 60.5756 127.335 60.4594C127.058 59.1394 126.73 57.8114 126.36 56.5134C126.323 56.3814 126.339 56.24 126.406 56.1202C126.472 56.0003 126.584 55.9119 126.716 55.8744C126.848 55.8368 126.99 55.8533 127.109 55.92C127.229 55.9868 127.318 56.0984 127.355 56.2304C127.731 57.5524 128.065 58.9034 128.347 60.2464C128.361 60.3129 128.362 60.3815 128.349 60.4484C128.337 60.5152 128.311 60.5789 128.274 60.6359C128.237 60.6928 128.189 60.7418 128.133 60.7802C128.077 60.8186 128.014 60.8455 127.947 60.8594C127.913 60.8664 127.877 60.8701 127.842 60.8704H127.841ZM12.8561 60.6704C12.779 60.6704 12.7029 60.6533 12.6333 60.6201C12.5637 60.5869 12.5024 60.5386 12.4539 60.4787C12.4053 60.4188 12.3709 60.3488 12.3529 60.2738C12.3349 60.1988 12.334 60.1208 12.3501 60.0454C12.6371 58.7024 12.9761 57.3524 13.3571 56.0324C13.3951 55.9006 13.484 55.7893 13.6041 55.723C13.7242 55.6567 13.8658 55.6408 13.9976 55.6789C14.1294 55.7169 14.2407 55.8058 14.307 55.9259C14.3733 56.046 14.3891 56.1876 14.3511 56.3194C13.9771 57.6194 13.6441 58.9424 13.3621 60.2624C13.3368 60.3777 13.2728 60.481 13.1808 60.555C13.0888 60.629 12.9742 60.6694 12.8561 60.6694V60.6704ZM125.596 52.9884C125.49 52.9884 125.386 52.9556 125.299 52.8946C125.212 52.8336 125.146 52.7473 125.11 52.6474C124.65 51.3784 124.139 50.1074 123.589 48.8724C123.562 48.8103 123.546 48.7435 123.545 48.6756C123.543 48.6077 123.555 48.5401 123.579 48.4768C123.603 48.4134 123.64 48.3554 123.687 48.3062C123.734 48.257 123.79 48.2174 123.852 48.1899C123.914 48.1623 123.98 48.1472 124.048 48.1455C124.116 48.1437 124.184 48.1554 124.247 48.1798C124.311 48.2041 124.369 48.2408 124.418 48.2875C124.467 48.3343 124.507 48.3903 124.534 48.4524C125.093 49.7094 125.614 51.0024 126.082 52.2944C126.129 52.4233 126.122 52.5654 126.064 52.6896C126.006 52.8137 125.901 52.9097 125.772 52.9564C125.716 52.9765 125.657 52.9867 125.597 52.9864L125.596 52.9884ZM15.1281 52.7954C15.0443 52.7955 14.9617 52.7754 14.8874 52.7366C14.8131 52.6978 14.7494 52.6416 14.7016 52.5728C14.6538 52.504 14.6234 52.4246 14.613 52.3414C14.6027 52.2583 14.6126 52.1738 14.6421 52.0954C15.1141 50.8084 15.6421 49.5204 16.1991 48.2674C16.2269 48.2054 16.2666 48.1495 16.3159 48.1028C16.3653 48.0562 16.4234 48.0198 16.4869 47.9956C16.5503 47.9714 16.618 47.9599 16.6859 47.9619C16.7537 47.9638 16.8206 47.9791 16.8826 48.0069C16.9446 48.0346 17.0005 48.0744 17.0471 48.1237C17.0938 48.1731 17.1302 48.2312 17.1544 48.2947C17.1786 48.3581 17.19 48.4257 17.1881 48.4936C17.1861 48.5615 17.1709 48.6284 17.1431 48.6904C16.5911 49.9204 16.0761 51.1904 15.6131 52.4504C15.5773 52.5502 15.5116 52.6367 15.425 52.698C15.3385 52.7594 15.2352 52.7926 15.1291 52.7934L15.1281 52.7954ZM122.264 45.4894C122.17 45.4893 122.078 45.4637 121.997 45.4152C121.917 45.3668 121.851 45.2973 121.807 45.2144C121.174 44.0224 120.49 42.8374 119.774 41.6904C119.738 41.6328 119.714 41.5687 119.703 41.5017C119.691 41.4347 119.693 41.3662 119.709 41.3001C119.724 41.2339 119.752 41.1714 119.792 41.1161C119.831 41.0608 119.881 41.0139 119.939 40.9779C119.996 40.9419 120.06 40.9176 120.127 40.9064C120.194 40.8952 120.263 40.8973 120.329 40.9126C120.395 40.9278 120.458 40.956 120.513 40.9954C120.568 41.0349 120.615 41.0848 120.651 41.1424C121.38 42.3084 122.075 43.5154 122.72 44.7284C122.762 44.8071 122.783 44.8954 122.781 44.9846C122.778 45.0738 122.753 45.1609 122.707 45.2374C122.661 45.3139 122.596 45.3772 122.519 45.4212C122.441 45.4652 122.353 45.4883 122.264 45.4884V45.4894ZM18.4771 45.3244C18.3918 45.3244 18.308 45.3031 18.2331 45.2624C18.1731 45.2305 18.12 45.187 18.0768 45.1345C18.0337 45.082 18.0013 45.0215 17.9816 44.9564C17.9619 44.8914 17.9553 44.8231 17.9621 44.7555C17.9688 44.6878 17.9889 44.6222 18.0211 44.5624C18.6681 43.3534 19.3671 42.1504 20.0991 40.9874C20.1722 40.8713 20.2883 40.7891 20.422 40.7587C20.5557 40.7283 20.696 40.7523 20.8121 40.8254C20.9281 40.8984 21.0104 41.0146 21.0407 41.1483C21.0711 41.282 21.0472 41.4223 20.9741 41.5384C20.2551 42.6814 19.5691 43.8634 18.9331 45.0504C18.8888 45.1324 18.8231 45.201 18.743 45.2487C18.6629 45.2964 18.5713 45.3215 18.4781 45.3214L18.4771 45.3244ZM117.919 38.5324C117.837 38.5323 117.757 38.5129 117.684 38.4757C117.611 38.4385 117.548 38.3846 117.5 38.3184C116.707 37.2254 115.865 36.1464 115 35.1124C114.912 35.0072 114.869 34.8714 114.881 34.7348C114.894 34.5981 114.959 34.4719 115.065 34.3839C115.17 34.2958 115.306 34.2532 115.442 34.2652C115.579 34.2773 115.705 34.3432 115.793 34.4484C116.676 35.5014 117.532 36.5984 118.339 37.7114C118.395 37.7885 118.429 37.8796 118.436 37.9747C118.444 38.0697 118.425 38.165 118.382 38.2499C118.338 38.3349 118.272 38.4063 118.191 38.4561C118.11 38.5059 118.016 38.5323 117.921 38.5324H117.919ZM22.8381 38.3884C22.7426 38.3883 22.6491 38.3618 22.5678 38.3118C22.4865 38.2619 22.4206 38.1904 22.3775 38.1053C22.3343 38.0202 22.3155 37.9248 22.3232 37.8297C22.3309 37.7346 22.3648 37.6434 22.4211 37.5664C23.2311 36.4574 24.0901 35.3664 24.9761 34.3134C25.0644 34.2085 25.1908 34.143 25.3274 34.1312C25.464 34.1195 25.5997 34.1626 25.7046 34.2509C25.8095 34.3392 25.875 34.4656 25.8867 34.6022C25.8984 34.7388 25.8554 34.8745 25.7671 34.9794C24.8971 36.0114 24.0521 37.0864 23.2571 38.1794C23.2085 38.2442 23.1454 38.2967 23.0728 38.3327C23.0001 38.3686 22.9201 38.387 22.8391 38.3864L22.8381 38.3884ZM112.653 32.2464C112.583 32.2466 112.515 32.2327 112.45 32.2055C112.386 32.1784 112.328 32.1385 112.28 32.0884C111.344 31.1164 110.361 30.1654 109.36 29.2604C109.308 29.2154 109.265 29.1604 109.234 29.0987C109.204 29.037 109.186 28.9697 109.181 28.9009C109.177 28.8321 109.187 28.7631 109.209 28.6981C109.232 28.633 109.268 28.5731 109.314 28.5219C109.36 28.4708 109.416 28.4294 109.478 28.4002C109.541 28.371 109.609 28.3546 109.677 28.3519C109.746 28.3493 109.815 28.3604 109.88 28.3847C109.944 28.409 110.003 28.4459 110.053 28.4934C111.073 29.4144 112.073 30.3824 113.026 31.3714C113.096 31.4444 113.143 31.5365 113.162 31.6361C113.18 31.7357 113.168 31.8385 113.129 31.9317C113.089 32.0248 113.023 32.1043 112.939 32.1603C112.854 32.2162 112.755 32.2462 112.654 32.2464H112.653ZM28.1211 32.1214C28.0195 32.1214 27.9202 32.0914 27.8355 32.0353C27.7508 31.9792 27.6846 31.8994 27.645 31.8058C27.6054 31.7122 27.5943 31.6091 27.613 31.5093C27.6317 31.4094 27.6794 31.3173 27.7501 31.2444C28.7061 30.2584 29.7091 29.2924 30.7311 28.3754C30.7813 28.3286 30.8404 28.2924 30.9048 28.2687C30.9693 28.245 31.0378 28.2344 31.1063 28.2375C31.1749 28.2405 31.2422 28.2572 31.3042 28.2866C31.3663 28.3159 31.4219 28.3573 31.4677 28.4084C31.5136 28.4595 31.5489 28.5191 31.5714 28.584C31.594 28.6488 31.6034 28.7174 31.5992 28.786C31.5949 28.8545 31.5771 28.9214 31.5467 28.983C31.5163 29.0445 31.4739 29.0994 31.4221 29.1444C30.4221 30.0444 29.4321 30.9954 28.4931 31.9634C28.4448 32.0129 28.3872 32.0522 28.3234 32.079C28.2597 32.1058 28.1912 32.1196 28.1221 32.1194L28.1211 32.1214ZM106.569 26.7524C106.454 26.7526 106.342 26.7138 106.251 26.6424C105.189 25.8094 104.084 25.0034 102.968 24.2424C102.912 24.2044 102.863 24.1557 102.825 24.099C102.788 24.0422 102.762 23.9786 102.749 23.9118C102.736 23.845 102.736 23.7762 102.75 23.7095C102.763 23.6428 102.79 23.5795 102.828 23.5231C102.866 23.4668 102.915 23.4185 102.972 23.3811C103.029 23.3437 103.093 23.3179 103.16 23.3052C103.227 23.2925 103.295 23.2931 103.362 23.3071C103.429 23.321 103.492 23.3479 103.548 23.3864C104.684 24.1564 105.808 24.9764 106.889 25.8244C106.974 25.8908 107.036 25.982 107.066 26.0853C107.097 26.1886 107.094 26.2988 107.059 26.4006C107.024 26.5023 106.957 26.5905 106.87 26.6529C106.782 26.7152 106.677 26.7486 106.569 26.7484V26.7524ZM34.2221 26.6434C34.1143 26.6435 34.0092 26.6099 33.9215 26.5473C33.8337 26.4848 33.7677 26.3964 33.7327 26.2945C33.6977 26.1925 33.6953 26.0822 33.7261 25.979C33.7568 25.8757 33.819 25.7846 33.9041 25.7184C34.9891 24.8734 36.1161 24.0554 37.2551 23.2884C37.3689 23.2117 37.5084 23.1834 37.6431 23.2097C37.7777 23.2359 37.8965 23.3146 37.9731 23.4284C38.0498 23.5422 38.078 23.6817 38.0518 23.8164C38.0255 23.951 37.9469 24.0697 37.8331 24.1464C36.7141 24.8994 35.6061 25.7024 34.5401 26.5344C34.4496 26.6041 34.3384 26.6418 34.2241 26.6414L34.2221 26.6434ZM99.7861 22.1554C99.6951 22.1551 99.6058 22.131 99.5271 22.0854C98.3611 21.4084 97.1561 20.7634 95.9451 20.1704C95.8841 20.1404 95.8296 20.0988 95.7847 20.0478C95.7398 19.9968 95.7054 19.9374 95.6834 19.8731C95.6615 19.8088 95.6524 19.7408 95.6567 19.673C95.661 19.6052 95.6786 19.5389 95.7086 19.4779C95.7385 19.4169 95.7802 19.3624 95.8312 19.3175C95.8822 19.2726 95.9415 19.2382 96.0058 19.2162C96.0701 19.1942 96.1382 19.1852 96.206 19.1895C96.2738 19.1938 96.3401 19.2114 96.4011 19.2414C97.6331 19.8414 98.8601 20.5014 100.046 21.1904C100.144 21.2475 100.221 21.3354 100.264 21.4406C100.308 21.5457 100.315 21.6622 100.285 21.772C100.256 21.8818 100.191 21.9787 100.101 22.0479C100.01 22.117 99.8998 22.1544 99.7861 22.1544V22.1554ZM41.0271 22.0624C40.9131 22.0626 40.8024 22.0252 40.7119 21.9559C40.6214 21.8866 40.5564 21.7894 40.5268 21.6794C40.4973 21.5694 40.5049 21.4526 40.5486 21.3474C40.5922 21.2421 40.6694 21.1542 40.7681 21.0974C41.9601 20.4104 43.1901 19.7574 44.4261 19.1574C44.5494 19.0974 44.6915 19.0889 44.8211 19.1338C44.9507 19.1786 45.0572 19.273 45.1171 19.3964C45.177 19.5197 45.1855 19.6618 45.1407 19.7914C45.0959 19.921 45.0014 20.0274 44.8781 20.0874C43.6641 20.6774 42.4551 21.3194 41.2841 21.9944C41.2059 22.0382 41.1177 22.0609 41.0281 22.0604L41.0271 22.0624ZM92.4341 18.5494C92.3676 18.5493 92.3017 18.5364 92.2401 18.5114C90.9901 18.0034 89.7051 17.5334 88.4231 17.1114C88.3585 17.0903 88.2988 17.0567 88.2472 17.0125C88.1957 16.9684 88.1533 16.9145 88.1225 16.8539C88.0918 16.7934 88.0733 16.7274 88.0681 16.6597C88.0629 16.592 88.071 16.5239 88.0921 16.4594C88.1132 16.3948 88.1468 16.3351 88.1909 16.2835C88.2351 16.2319 88.289 16.1896 88.3495 16.1588C88.4101 16.1281 88.4761 16.1096 88.5438 16.1044C88.6115 16.0991 88.6796 16.1073 88.7441 16.1284C90.0501 16.5544 91.3571 17.0284 92.6301 17.5494C92.7439 17.5928 92.8388 17.6749 92.8979 17.7814C92.9571 17.8879 92.9768 18.0119 92.9535 18.1314C92.9301 18.251 92.8653 18.3585 92.7705 18.435C92.6756 18.5114 92.5569 18.5519 92.4351 18.5494H92.4341ZM48.4061 18.4744C48.2845 18.4764 48.166 18.4356 48.0716 18.359C47.9771 18.2823 47.9127 18.1748 47.8896 18.0554C47.8666 17.936 47.8864 17.8123 47.9455 17.706C48.0047 17.5997 48.0995 17.5177 48.2131 17.4744C49.4891 16.9614 50.8001 16.4864 52.1131 16.0644C52.1781 16.042 52.2469 16.0328 52.3155 16.0374C52.3841 16.042 52.4511 16.0602 52.5126 16.0909C52.5741 16.1217 52.6288 16.1644 52.6736 16.2166C52.7183 16.2687 52.7523 16.3293 52.7733 16.3947C52.7944 16.4602 52.8022 16.5292 52.7963 16.5976C52.7904 16.6661 52.7709 16.7328 52.739 16.7936C52.707 16.8545 52.6632 16.9084 52.6102 16.9521C52.5572 16.9959 52.4959 17.0286 52.4301 17.0484C51.1441 17.4634 49.8561 17.9294 48.6031 18.4334C48.5406 18.4591 48.4737 18.4723 48.4061 18.4724V18.4744ZM84.6431 16.0054C84.6006 16.0054 84.5582 16 84.5171 15.9894C83.2081 15.6624 81.8711 15.3774 80.5421 15.1424C80.407 15.1185 80.2868 15.0419 80.2082 14.9295C80.1295 14.8171 80.0987 14.678 80.1226 14.5429C80.1465 14.4077 80.2231 14.2876 80.3355 14.209C80.4479 14.1303 80.587 14.0995 80.7221 14.1234C82.0751 14.3624 83.4371 14.6534 84.7681 14.9864C84.8909 15.0166 84.9983 15.0908 85.0701 15.1949C85.1419 15.299 85.173 15.4258 85.1576 15.5513C85.1422 15.6768 85.0814 15.7924 84.9865 15.876C84.8917 15.9597 84.7695 16.0057 84.6431 16.0054ZM56.2121 15.9554C56.085 15.9565 55.9619 15.9108 55.8664 15.8269C55.7709 15.7431 55.7096 15.627 55.6943 15.5008C55.679 15.3746 55.7106 15.2472 55.7832 15.1429C55.8559 15.0386 55.9644 14.9647 56.0881 14.9354C57.4211 14.6074 58.7831 14.3214 60.1381 14.0874C60.205 14.0758 60.2735 14.0776 60.3398 14.0925C60.406 14.1074 60.4687 14.1352 60.5241 14.1744C60.5796 14.2135 60.6268 14.2632 60.6631 14.3206C60.6994 14.378 60.724 14.442 60.7356 14.5089C60.7471 14.5758 60.7454 14.6443 60.7305 14.7106C60.7156 14.7768 60.6877 14.8394 60.6486 14.8949C60.6095 14.9504 60.5597 14.9976 60.5023 15.0339C60.445 15.0702 60.381 15.0948 60.3141 15.1064C58.9831 15.3374 57.6451 15.6174 56.3361 15.9394C56.2955 15.9494 56.2539 15.9544 56.2121 15.9544V15.9554ZM76.5721 14.5774C76.5538 14.5784 76.5354 14.5784 76.5171 14.5774C75.1781 14.4364 73.8171 14.3394 72.4621 14.2914C72.325 14.2865 72.1954 14.2273 72.102 14.1269C72.0085 14.0264 71.9587 13.893 71.9636 13.7559C71.9685 13.6188 72.0277 13.4892 72.1281 13.3957C72.2285 13.3022 72.362 13.2525 72.4991 13.2574C73.8741 13.3074 75.2621 13.4054 76.6251 13.5494C76.7587 13.5609 76.8826 13.6239 76.9706 13.725C77.0587 13.8262 77.104 13.9576 77.097 14.0915C77.09 14.2254 77.0312 14.3513 76.9331 14.4428C76.835 14.5342 76.7051 14.5839 76.5711 14.5814L76.5721 14.5774ZM64.2881 14.5564C64.1542 14.5582 64.0249 14.5081 63.9273 14.4165C63.8296 14.325 63.7714 14.1991 63.7646 14.0654C63.7579 13.9318 63.8033 13.8007 63.8912 13.6998C63.9791 13.5989 64.1028 13.536 64.2361 13.5244C65.6001 13.3844 66.9891 13.2914 68.3631 13.2464C68.431 13.2441 68.4986 13.2553 68.5622 13.2792C68.6258 13.3031 68.684 13.3393 68.7336 13.3858C68.7832 13.4322 68.8232 13.488 68.8512 13.5498C68.8793 13.6117 68.8948 13.6785 68.8971 13.7464C68.8993 13.8143 68.8881 13.8819 68.8642 13.9455C68.8403 14.0091 68.8041 14.0673 68.7577 14.1169C68.7112 14.1665 68.6555 14.2065 68.5937 14.2345C68.5318 14.2626 68.465 14.2781 68.3971 14.2804C67.0461 14.3244 65.6821 14.4154 64.3411 14.5524C64.3235 14.5541 64.3057 14.5547 64.2881 14.5544V14.5564Z" fill="#777777"/>
<path d="M72.1868 25.2865C78.5139 24.2598 82.8107 18.2984 81.784 11.9713C80.7573 5.64429 74.7959 1.34749 68.4688 2.37417C62.1418 3.40086 57.845 9.36225 58.8717 15.6893C59.8984 22.0164 65.8598 26.3132 72.1868 25.2865Z" fill="#284A6F"/>
<path d="M72.3587 20.3821V15.8612H76.8797C77.0712 15.8612 77.2548 15.7851 77.3902 15.6497C77.5256 15.5143 77.6017 15.3306 77.6017 15.1392V12.5201C77.6018 12.4253 77.5832 12.3314 77.547 12.2437C77.5107 12.156 77.4576 12.0764 77.3905 12.0093C77.3234 11.9423 77.2438 11.8891 77.1561 11.8528C77.0685 11.8166 76.9745 11.798 76.8797 11.7981H72.3587V7.27715C72.3584 7.08584 72.2823 6.90245 72.1469 6.76727C72.0115 6.63208 71.828 6.55615 71.6367 6.55615H69.0217C68.8304 6.55615 68.6469 6.63208 68.5115 6.76727C68.3761 6.90245 68.2999 7.08584 68.2997 7.27715V11.7981H63.7787C63.6839 11.7981 63.5901 11.8168 63.5025 11.8531C63.415 11.8894 63.3355 11.9426 63.2685 12.0097C63.2016 12.0767 63.1485 12.1563 63.1123 12.2439C63.0761 12.3315 63.0575 12.4254 63.0577 12.5201V15.1392C63.0577 15.3305 63.1336 15.514 63.2688 15.6493C63.404 15.7847 63.5874 15.8609 63.7787 15.8612H68.2997V20.3821C68.2997 20.5736 68.3758 20.7573 68.5112 20.8927C68.6466 21.0281 68.8302 21.1041 69.0217 21.1041H71.6407C71.8315 21.1031 72.0141 21.0266 72.1487 20.8913C72.2832 20.756 72.3587 20.5729 72.3587 20.3821Z" fill="white"/>
<path d="M78.5351 139.48C83.0675 134.947 83.0675 127.599 78.5351 123.066C74.0026 118.534 66.6541 118.534 62.1217 123.066C57.5893 127.599 57.5893 134.947 62.1217 139.48C66.6541 144.012 74.0026 144.012 78.5351 139.48Z" fill="#284A6F"/>
<path d="M129.05 84.1583C135.46 84.1583 140.656 78.9621 140.656 72.5523C140.656 66.1425 135.46 60.9463 129.05 60.9463C122.641 60.9463 117.444 66.1425 117.444 72.5523C117.444 78.9621 122.641 84.1583 129.05 84.1583Z" fill="#284A6F"/>
<path d="M11.606 84.1582C18.0158 84.1582 23.212 78.962 23.212 72.5522C23.212 66.1424 18.0158 60.9462 11.606 60.9462C5.19618 60.9462 0 66.1424 0 72.5522C0 78.962 5.19618 84.1582 11.606 84.1582Z" fill="#284A6F"/>
<path d="M18.3713 68.5991C17.919 68.0431 17.3486 67.5946 16.7016 67.2863C16.0546 66.9779 15.3471 66.8173 14.6303 66.8161C13.5311 66.8177 12.4653 67.1945 11.6093 67.8841C11.1227 67.4862 10.5623 67.1882 9.96038 67.0072C9.35843 66.8262 8.72668 66.7657 8.10131 66.8291C7.26777 66.9252 6.47212 67.2308 5.78859 67.7175C5.10507 68.2041 4.55592 68.8559 4.19231 69.6121C3.8114 70.3757 3.60764 71.2153 3.59621 72.0686C3.58478 72.9218 3.76597 73.7666 4.1263 74.5401C4.50557 75.2485 5.02191 75.8745 5.64525 76.3816C6.2686 76.8887 6.98653 77.2669 7.75731 77.4941L7.9493 77.5691C9.0833 78.0111 10.1543 78.4281 10.6163 79.4031C10.7 79.5802 10.8324 79.7299 10.9979 79.8347C11.1635 79.9395 11.3554 79.9951 11.5513 79.9951C11.5713 79.9951 11.5903 79.9891 11.6103 79.9881C11.6303 79.9871 11.6493 79.9951 11.6683 79.9951C11.8639 79.9952 12.0555 79.9399 12.2208 79.8354C12.3862 79.731 12.5184 79.5818 12.6023 79.4051C13.0623 78.4391 14.1083 78.0281 15.2153 77.5921C15.3643 77.5331 15.5153 77.4751 15.6573 77.4161C16.479 77.1493 17.2321 76.7056 17.8638 76.1163C18.4955 75.527 18.9903 74.8063 19.3133 74.0051C19.6224 73.0973 19.6981 72.1264 19.5334 71.1817C19.3688 70.2369 18.9692 69.3488 18.3713 68.5991Z" fill="white"/>
<path d="M78.525 131.274C78.525 128.074 74.855 125.474 70.325 125.474C65.795 125.474 62.125 128.074 62.125 131.274C62.125 134.474 65.795 137.074 70.325 137.074C71.2812 137.074 72.2336 136.952 73.159 136.711L73.043 138.392L74.953 136.06C77.11 135.011 78.525 133.26 78.525 131.274Z" fill="white"/>
<path d="M67.6765 131.847C67.9936 131.847 68.2505 131.59 68.2505 131.273C68.2505 130.956 67.9936 130.699 67.6765 130.699C67.3595 130.699 67.1025 130.956 67.1025 131.273C67.1025 131.59 67.3595 131.847 67.6765 131.847Z" fill="#BBDDDE"/>
<path d="M70.3269 130.695C70.2134 130.695 70.1024 130.729 70.008 130.792C69.9136 130.855 69.8401 130.945 69.7967 131.05C69.7532 131.155 69.7418 131.27 69.7639 131.381C69.7861 131.493 69.8408 131.595 69.9211 131.675C70.0013 131.755 70.1036 131.81 70.2149 131.832C70.3263 131.854 70.4417 131.843 70.5466 131.8C70.6515 131.756 70.7412 131.683 70.8042 131.588C70.8673 131.494 70.901 131.383 70.901 131.269C70.901 131.117 70.8405 130.971 70.7328 130.863C70.6252 130.756 70.4792 130.695 70.3269 130.695Z" fill="#BBDDDE"/>
<path d="M72.9775 131.847C73.2945 131.847 73.5515 131.59 73.5515 131.273C73.5515 130.956 73.2945 130.699 72.9775 130.699C72.6605 130.699 72.4035 130.956 72.4035 131.273C72.4035 131.59 72.6605 131.847 72.9775 131.847Z" fill="#BBDDDE"/>
<path d="M129.049 69.0243C128.352 69.0243 127.67 69.2311 127.09 69.6187C126.51 70.0062 126.058 70.5571 125.791 71.2016C125.524 71.846 125.454 72.5552 125.59 73.2394C125.726 73.9236 126.062 74.552 126.556 75.0453C127.049 75.5385 127.677 75.8744 128.361 76.0105C129.046 76.1466 129.755 76.0768 130.399 75.8098C131.044 75.5429 131.595 75.0908 131.982 74.5108C132.37 73.9308 132.576 73.2489 132.576 72.5513C132.575 71.6162 132.203 70.7197 131.542 70.0585C130.881 69.3973 129.985 69.0254 129.049 69.0243ZM129.049 75.2793C128.51 75.2799 127.983 75.1205 127.534 74.8212C127.085 74.522 126.735 74.0964 126.528 73.5982C126.321 73.1 126.267 72.5516 126.371 72.0225C126.476 71.4933 126.736 71.0071 127.117 70.6254C127.498 70.2437 127.984 69.9836 128.513 69.878C129.042 69.7725 129.59 69.8261 130.089 70.0323C130.587 70.2385 131.013 70.5878 131.313 71.0362C131.613 71.4846 131.773 72.0119 131.773 72.5513C131.773 73.2739 131.486 73.9667 130.975 74.478C130.464 74.9893 129.772 75.2774 129.049 75.2793Z" fill="white"/>
<path d="M136.451 73.7223V71.3903H134.862C134.711 70.6334 134.412 69.9138 133.982 69.2723L135.108 68.1463L133.459 66.4973L132.333 67.6223C131.692 67.1933 130.972 66.8943 130.215 66.7423V65.1533H127.883V66.7423C127.127 66.8943 126.407 67.1933 125.765 67.6223L124.639 66.4963L122.99 68.1453L124.116 69.2713C123.687 69.9128 123.388 70.6325 123.236 71.3893H121.647V73.7223H123.236C123.388 74.4791 123.687 75.1988 124.116 75.8403L122.99 76.9663L124.639 78.6153L125.765 77.4893C126.407 77.9186 127.127 78.2176 127.883 78.3693V79.9583H130.215V78.3693C130.972 78.2177 131.692 77.9187 132.333 77.4893L133.459 78.6153L135.108 76.9663L133.982 75.8403C134.412 75.1988 134.711 74.4791 134.862 73.7223H136.451ZM133.378 72.5563C133.378 73.4125 133.125 74.2495 132.649 74.9614C132.173 75.6733 131.497 76.2281 130.706 76.5558C129.915 76.8834 129.045 76.9692 128.205 76.8021C127.365 76.6351 126.594 76.2228 125.988 75.6174C125.383 75.012 124.971 74.2406 124.804 73.4009C124.637 72.5611 124.722 71.6907 125.05 70.8997C125.378 70.1087 125.933 69.4326 126.644 68.9569C127.356 68.4812 128.193 68.2273 129.049 68.2273C130.196 68.2286 131.296 68.6845 132.107 69.4949C132.919 70.3054 133.376 71.4045 133.378 72.5513V72.5563Z" fill="white"/>
<path d="M89.259 53.6221C88.8448 53.3091 88.3815 53.0672 87.888 52.9061C88.2381 52.3257 88.4348 51.6658 88.4595 50.9884C88.4841 50.311 88.336 49.6385 88.029 49.0341C87.7088 48.4344 87.2584 47.9138 86.711 47.5107C86.1635 47.1075 85.5327 46.8319 84.865 46.7041C83.74 46.501 82.5793 46.6769 81.565 47.2041C81.7962 46.1902 81.6542 45.1269 81.165 44.2091C80.5893 43.1621 79.6861 42.3327 78.594 41.8481C77.4575 41.3691 76.2291 41.1475 74.9969 41.1994C73.7646 41.2513 72.5592 41.5753 71.467 42.1481C70.328 42.7826 69.4521 43.8018 68.996 45.0231C68.8195 45.0248 68.6436 45.0443 68.471 45.0811C68.2788 44.4049 67.8537 43.8184 67.271 43.4251C66.6479 43.0141 65.936 42.7573 65.194 42.6761C64.0211 42.5042 62.8237 42.6852 61.754 43.1961C60.6724 43.7219 59.8391 44.6495 59.432 45.7811C59.2455 46.3211 59.1827 46.8961 59.2481 47.4636C59.3135 48.0311 59.5055 48.5767 59.81 49.0601C59.2355 48.9209 58.6376 48.9074 58.0574 49.0204C57.4772 49.1335 56.9282 49.3704 56.448 49.7151C55.9349 50.0917 55.519 50.5853 55.235 51.1549C54.9509 51.7246 54.807 52.3537 54.815 52.9901C54.8351 53.6267 55.0126 54.2484 55.3316 54.7996C55.6506 55.3509 56.1011 55.8145 56.643 56.1491C56.754 56.2144 56.8685 56.2735 56.986 56.3261C56.5934 56.8991 56.361 57.5665 56.3127 58.2593C56.2644 58.9522 56.402 59.6454 56.7113 60.2673C57.0206 60.8891 57.4904 61.4171 58.0721 61.7966C58.6537 62.1762 59.3262 62.3935 60.02 62.4261C60.068 62.4261 60.12 62.4261 60.167 62.4261C60.5127 62.4426 60.8578 62.3819 61.1773 62.2486C61.4967 62.1152 61.7825 61.9125 62.014 61.6551C62.0479 62.1863 62.2041 62.7025 62.4703 63.1634C62.7366 63.6243 63.1058 64.0174 63.549 64.3121C64.2165 64.7447 64.9966 64.9712 65.792 64.9631C66.1599 64.963 66.5264 64.917 66.883 64.8261C67.5941 64.6591 68.2407 64.2875 68.743 63.7571C69.0059 63.4675 69.207 63.1272 69.334 62.7571C69.5992 63.6283 70.133 64.3934 70.859 64.9431C71.514 65.4274 72.3064 65.6901 73.121 65.6931C73.4525 65.6928 73.7821 65.645 74.1 65.5511C74.1196 65.576 74.1455 65.5953 74.175 65.6071C75.1971 65.989 76.1331 66.5702 76.9286 67.317C77.7242 68.0638 78.3633 68.9612 78.809 69.9571L78.846 70.0411C78.9592 70.3742 79.1549 70.6732 79.415 70.9101C79.6164 71.0624 79.8625 71.144 80.115 71.1421C80.3923 71.1428 80.6617 71.0501 80.88 70.8791C81.2161 70.5767 81.4353 70.1658 81.499 69.7181C81.525 69.5941 81.547 69.4701 81.568 69.3461C81.6024 69.1159 81.6542 68.8886 81.723 68.6661C82.3415 68.9592 83.0187 69.1069 83.703 69.0981H83.883C84.6722 69.0882 85.4438 68.8635 86.115 68.4481C86.8725 67.9553 87.41 67.1886 87.615 66.3084C87.8201 65.4283 87.6767 64.503 87.215 63.7261C87.2074 63.7147 87.1983 63.7042 87.188 63.6951C87.232 63.6701 87.276 63.6441 87.319 63.6151C87.6835 63.3591 87.9682 63.0053 88.1403 62.5944C88.3124 62.1836 88.365 61.7325 88.292 61.2931C88.285 61.2541 88.277 61.2161 88.269 61.1781C88.2882 61.1852 88.3085 61.1889 88.329 61.1891H88.357C89.0996 61.0604 89.7704 60.6667 90.245 60.0811C90.7078 59.5035 91.0023 58.8094 91.096 58.0751C91.2059 57.2371 91.0941 56.3848 90.7718 55.6035C90.4494 54.8221 89.9278 54.1389 89.259 53.6221ZM81.215 69.2971C81.194 69.4171 81.174 69.5371 81.148 69.6551C81.0997 70.0199 80.9266 70.3566 80.658 70.6081C80.5134 70.7215 80.3363 70.7854 80.1526 70.7905C79.969 70.7955 79.7885 70.7414 79.638 70.6361C79.4274 70.4359 79.27 70.1864 79.18 69.9101L79.143 69.8241C78.2422 67.8149 76.6061 66.2268 74.571 65.3861C75.2778 65.0505 75.8424 64.4746 76.164 63.7611C76.266 64.1273 76.4337 64.4719 76.659 64.7781C77.0146 65.2316 77.4682 65.5987 77.9858 65.8519C78.5035 66.1051 79.0717 66.2378 79.648 66.2401C79.756 66.2401 79.861 66.2341 79.966 66.2241C79.966 66.2301 79.966 66.2351 79.966 66.2421C80.0133 66.6935 80.1628 67.1282 80.4031 67.5132C80.6434 67.8982 80.9683 68.2234 81.353 68.4641L81.409 68.4991C81.3203 68.7587 81.2554 69.0258 81.215 69.2971Z" fill="#284A6F"/>
<path d="M89.259 53.6221C88.8448 53.3091 88.3815 53.0671 87.888 52.9061C88.2381 52.3257 88.4348 51.6657 88.4595 50.9884C88.4841 50.311 88.336 49.6384 88.029 49.0341C87.7089 48.4343 87.2586 47.9137 86.7111 47.5105C86.1636 47.1073 85.5328 46.8318 84.865 46.7041C83.74 46.5007 82.5792 46.6765 81.565 47.2041C81.7973 46.1886 81.6553 45.1233 81.165 44.2041C80.589 43.1575 79.686 42.3285 78.594 41.8441C77.4575 41.3651 76.2291 41.1435 74.9969 41.1954C73.7646 41.2473 72.5592 41.5712 71.467 42.1441C70.3278 42.7784 69.4519 43.7976 68.996 45.0191C68.8195 45.0208 68.6436 45.0403 68.471 45.0771C68.2786 44.401 67.8536 43.8145 67.271 43.4211C66.6476 43.0101 65.9353 42.7533 65.193 42.6721C64.0201 42.5002 62.8226 42.6812 61.753 43.1921C60.6714 43.7178 59.8381 44.6455 59.431 45.7771C59.2446 46.3171 59.1817 46.8921 59.2471 47.4596C59.3125 48.0271 59.5046 48.5727 59.809 49.0561C59.2345 48.9168 58.6366 48.9032 58.0564 49.0162C57.4761 49.1292 56.9272 49.3663 56.447 49.7111C55.9335 50.0882 55.5175 50.5825 55.2336 51.1528C54.9498 51.7232 54.8062 52.3531 54.815 52.9901C54.835 53.6267 55.0125 54.2484 55.3315 54.7996C55.6505 55.3509 56.101 55.8145 56.643 56.1491C56.754 56.2143 56.8685 56.2734 56.986 56.3261C56.5934 56.8991 56.361 57.5665 56.3127 58.2593C56.2644 58.9522 56.402 59.6454 56.7113 60.2672C57.0206 60.8891 57.4904 61.4171 58.0721 61.7966C58.6537 62.1761 59.3262 62.3935 60.02 62.4261C60.068 62.4261 60.12 62.4261 60.167 62.4261C60.5127 62.4425 60.8578 62.3819 61.1773 62.2485C61.4967 62.1152 61.7825 61.9125 62.014 61.6551C62.0479 62.1863 62.2041 62.7025 62.4703 63.1634C62.7366 63.6243 63.1058 64.0174 63.549 64.3121C64.2165 64.7447 64.9966 64.9711 65.792 64.9631C66.1599 64.963 66.5264 64.917 66.883 64.8261C67.5941 64.659 68.2407 64.2874 68.743 63.7571C69.0059 63.4674 69.207 63.1272 69.334 62.7571C69.5992 63.6283 70.133 64.3933 70.859 64.9431C71.514 65.4274 72.3064 65.6901 73.121 65.6931C73.4525 65.6928 73.7821 65.6449 74.1 65.5511C74.1196 65.576 74.1455 65.5953 74.175 65.6071C75.197 65.9891 76.133 66.5703 76.9285 67.3171C77.724 68.0638 78.3632 68.9612 78.809 69.9571L78.846 70.0411C78.9592 70.3742 79.1549 70.6732 79.415 70.9101C79.6164 71.0624 79.8625 71.1439 80.115 71.1421C80.3923 71.1427 80.6617 71.0501 80.88 70.8791C81.2159 70.5766 81.435 70.1657 81.499 69.7181C81.525 69.5941 81.547 69.4701 81.568 69.3461C81.6024 69.1158 81.6542 68.8885 81.723 68.6661C82.3415 68.9591 83.0187 69.1069 83.703 69.0981H83.883C84.6722 69.0882 85.4438 68.8635 86.115 68.4481C86.8725 67.9553 87.41 67.1886 87.615 66.3084C87.8201 65.4283 87.6767 64.503 87.215 63.7261C87.2069 63.7147 87.1975 63.7043 87.187 63.6951C87.231 63.6701 87.275 63.6441 87.318 63.6151C87.6824 63.359 87.9672 63.0052 88.1393 62.5944C88.3115 62.1836 88.364 61.7325 88.291 61.2931C88.284 61.2541 88.276 61.2161 88.268 61.1781C88.2872 61.1852 88.3075 61.1889 88.328 61.1891H88.356C89.0987 61.0604 89.7694 60.6667 90.244 60.0811C90.7068 59.5035 91.0013 58.8093 91.095 58.0751C91.2051 57.2371 91.0934 56.3849 90.7712 55.6036C90.4491 54.8222 89.9276 54.139 89.259 53.6221ZM81.215 69.2971C81.194 69.4171 81.174 69.5371 81.148 69.6551C81.0997 70.0199 80.9266 70.3566 80.658 70.6081C80.5134 70.7215 80.3363 70.7854 80.1526 70.7905C79.969 70.7955 79.7885 70.7414 79.638 70.6361C79.4274 70.4359 79.27 70.1864 79.18 69.9101L79.143 69.8241C78.2422 67.8148 76.6061 66.2268 74.571 65.3861C75.2778 65.0505 75.8424 64.4745 76.164 63.7611C76.266 64.1273 76.4337 64.4719 76.659 64.7781C77.0146 65.2316 77.4682 65.5986 77.9858 65.8518C78.5035 66.105 79.0717 66.2378 79.648 66.2401C79.756 66.2401 79.861 66.2341 79.966 66.2241C79.966 66.2301 79.966 66.2351 79.966 66.2421C80.0133 66.6935 80.1628 67.1281 80.4031 67.5131C80.6434 67.8981 80.9683 68.2233 81.353 68.4641L81.409 68.4991C81.3203 68.7587 81.2554 69.0258 81.215 69.2971ZM90.733 58.0331C90.649 58.7011 90.3821 59.333 89.962 59.8591C89.5443 60.3765 88.953 60.7248 88.298 60.8391C88.2537 60.8465 88.2138 60.87 88.186 60.9051C88.0622 60.5559 87.8683 60.2356 87.6162 59.9641C87.3641 59.6925 87.0591 59.4754 86.72 59.3261H86.71C86.8674 58.9794 86.9393 58.6001 86.9196 58.2198C86.8999 57.8396 86.7893 57.4697 86.597 57.1411C86.5845 57.1208 86.5682 57.1032 86.5489 57.0892C86.5296 57.0752 86.5077 57.0652 86.4845 57.0597C86.4614 57.0542 86.4374 57.0533 86.4139 57.057C86.3903 57.0608 86.3677 57.0691 86.3475 57.0816C86.3272 57.0941 86.3095 57.1104 86.2956 57.1297C86.2816 57.149 86.2716 57.1709 86.266 57.194C86.2605 57.2172 86.2596 57.2412 86.2634 57.2647C86.2672 57.2883 86.2755 57.3108 86.288 57.3311C86.4969 57.6714 86.5955 58.0679 86.5704 58.4665C86.5453 58.865 86.3978 59.246 86.1479 59.5575C85.8981 59.8689 85.5581 60.0956 85.1745 60.2065C84.791 60.3174 84.3825 60.3072 84.005 60.1771C83.9819 60.167 83.957 60.1617 83.9319 60.1617C83.9067 60.1616 83.8818 60.1668 83.8587 60.1769C83.8356 60.187 83.8149 60.2018 83.7978 60.2203C83.7808 60.2388 83.7677 60.2607 83.7595 60.2845C83.7513 60.3083 83.7482 60.3335 83.7502 60.3586C83.7523 60.3837 83.7595 60.4081 83.7715 60.4303C83.7835 60.4524 83.7999 60.4718 83.8198 60.4873C83.8397 60.5028 83.8626 60.5139 83.887 60.5201C84.1167 60.5978 84.3575 60.637 84.6 60.6361C84.949 60.6373 85.2939 60.5615 85.6103 60.414C85.9266 60.2666 86.2065 60.0512 86.43 59.7831C86.469 59.7351 86.504 59.6831 86.539 59.6351C86.5498 59.6443 86.5615 59.6523 86.574 59.6591C86.9214 59.8125 87.2264 60.0479 87.4629 60.345C87.6994 60.6421 87.8604 60.9921 87.932 61.3651C87.9913 61.7356 87.9462 62.1153 87.8019 62.4616C87.6576 62.808 87.4198 63.1073 87.115 63.3261C86.8054 63.5299 86.4394 63.631 86.0691 63.615C85.6987 63.599 85.3429 63.4668 85.052 63.2371C85.0339 63.2217 85.0129 63.21 84.9902 63.2026C84.9676 63.1953 84.9437 63.1925 84.92 63.1944C84.8962 63.1963 84.8732 63.2029 84.852 63.2137C84.8308 63.2246 84.8119 63.2395 84.7965 63.2576C84.7811 63.2757 84.7693 63.2967 84.762 63.3194C84.7547 63.342 84.7519 63.3659 84.7538 63.3896C84.7557 63.4133 84.7623 63.4364 84.7731 63.4576C84.784 63.4788 84.7989 63.4977 84.817 63.5131C85.1886 63.8183 85.6562 63.9823 86.137 63.9761C86.3899 63.9763 86.641 63.9326 86.879 63.8471C86.8813 63.8739 86.8895 63.8999 86.903 63.9231C87.3177 64.6189 87.447 65.4482 87.264 66.2373C87.0809 67.0263 86.5997 67.7139 85.921 68.1561C85.3057 68.5355 84.5987 68.7401 83.876 68.7481C83.0592 68.7938 82.2479 68.5897 81.55 68.1631C81.2133 67.9508 80.9286 67.6657 80.7167 67.3287C80.5049 66.9918 80.3713 66.6115 80.326 66.2161C80.3242 66.202 80.3205 66.1882 80.315 66.1751C80.7879 66.0876 81.2296 65.8776 81.596 65.5661C81.9686 65.246 82.22 64.8076 82.3081 64.3243C82.3963 63.841 82.3157 63.3421 82.08 62.9111C82.0672 62.891 82.0506 62.8736 82.031 62.86C82.0115 62.8463 81.9895 62.8366 81.9662 62.8315C81.943 62.8263 81.9189 62.8258 81.8954 62.8299C81.872 62.8341 81.8496 62.8428 81.8295 62.8556C81.8094 62.8684 81.792 62.885 81.7784 62.9046C81.7647 62.9241 81.755 62.9461 81.7499 62.9694C81.7447 62.9926 81.7442 63.0167 81.7483 63.0401C81.7525 63.0636 81.7612 63.086 81.774 63.1061C81.965 63.4635 82.0277 63.8755 81.9516 64.2735C81.8756 64.6715 81.6654 65.0314 81.356 65.2931C81.0262 65.5541 80.6412 65.7364 80.2304 65.8263C79.8196 65.9163 79.3936 65.9114 78.985 65.8121C78.1775 65.6586 77.4541 65.215 76.951 64.5651C76.7094 64.2433 76.5436 63.8712 76.4657 63.4765C76.3878 63.0818 76.3998 62.6745 76.501 62.2851C76.5075 62.2623 76.5096 62.2383 76.5069 62.2147C76.5042 62.1911 76.4969 62.1682 76.4854 62.1474C76.4739 62.1266 76.4583 62.1083 76.4397 62.0935C76.4211 62.0787 76.3998 62.0677 76.377 62.0611C76.3541 62.0545 76.3302 62.0525 76.3066 62.0552C76.2829 62.0579 76.2601 62.0652 76.2393 62.0767C76.2185 62.0882 76.2002 62.1037 76.1853 62.1223C76.1705 62.1409 76.1596 62.1623 76.153 62.1851C76.095 62.3887 76.0613 62.5985 76.053 62.8101C76.0489 62.8194 76.0459 62.8291 76.044 62.8391C75.9713 63.3674 75.7544 63.8654 75.4171 64.2784C75.0798 64.6914 74.6351 65.0034 74.132 65.1801C73.6192 65.3454 73.0742 65.3851 72.5429 65.2958C72.0117 65.2065 71.5095 64.9909 71.079 64.6671C70.65 64.3342 70.2914 63.9196 70.0236 63.4472C69.7558 62.9749 69.5843 62.4541 69.519 61.9151C69.5136 61.8816 69.4987 61.8503 69.476 61.8251C69.476 61.7961 69.476 61.7671 69.476 61.7381C69.4738 61.7144 69.467 61.6914 69.4559 61.6703C69.4448 61.6492 69.4297 61.6305 69.4114 61.6153C69.3931 61.6001 69.372 61.5886 69.3493 61.5815C69.3266 61.5745 69.3027 61.5719 69.279 61.5741C69.2553 61.5763 69.2322 61.5831 69.2112 61.5942C69.1901 61.6052 69.1714 61.6204 69.1562 61.6386C69.1409 61.6569 69.1295 61.6781 69.1224 61.7008C69.1153 61.7235 69.1128 61.7474 69.115 61.7711C69.1343 62.0912 69.0881 62.4118 68.9793 62.7134C68.8704 63.015 68.7012 63.2912 68.482 63.5251C68.0272 64.0029 67.4425 64.337 66.8 64.4861C66.2883 64.6226 65.7538 64.6518 65.2303 64.5718C64.7068 64.4917 64.2055 64.3043 63.758 64.0211C63.3431 63.7471 63.0011 63.3764 62.7612 62.9409C62.5213 62.5054 62.3908 62.0182 62.381 61.5211C62.5719 61.5646 62.7671 61.5867 62.963 61.5871H62.973C63.6598 61.5656 64.3268 61.3526 64.899 60.9721C64.9191 60.9594 64.9366 60.9429 64.9504 60.9235C64.9641 60.9041 64.974 60.8821 64.9793 60.8589C64.9846 60.8357 64.9852 60.8117 64.9812 60.7882C64.9772 60.7647 64.9686 60.7423 64.956 60.7221C64.9433 60.702 64.9268 60.6845 64.9074 60.6707C64.888 60.6569 64.866 60.6471 64.8428 60.6418C64.8196 60.6365 64.7955 60.6359 64.7721 60.6399C64.7486 60.6439 64.7261 60.6524 64.706 60.6651C64.1912 61.0089 63.5906 61.2022 62.972 61.2231C62.6735 61.2306 62.3769 61.1732 62.1028 61.055C61.8286 60.9367 61.5833 60.7604 61.384 60.5381C61.1976 60.3175 61.0795 60.0474 61.044 59.7609C61.0085 59.4743 61.0571 59.1835 61.184 58.9241C61.1956 58.9033 61.2029 58.8804 61.2056 58.8568C61.2083 58.8331 61.2064 58.8092 61.1998 58.7863C61.1933 58.7634 61.1823 58.742 61.1675 58.7234C61.1527 58.7047 61.1343 58.6892 61.1135 58.6776C61.0927 58.666 61.0698 58.6587 61.0461 58.656C61.0225 58.6533 60.9985 58.6553 60.9756 58.6618C60.9527 58.6684 60.9313 58.6793 60.9127 58.6941C60.8941 58.709 60.8785 58.7273 60.867 58.7481C60.7029 59.0713 60.6381 59.4358 60.6806 59.7958C60.7231 60.1557 60.8711 60.495 61.106 60.7711C61.3034 61.0029 61.5474 61.1906 61.822 61.3221C61.6167 61.5905 61.3451 61.8007 61.0339 61.9322C60.7226 62.0637 60.3825 62.1119 60.047 62.0721C59.4114 62.0407 58.796 61.8388 58.2654 61.4874C57.7349 61.1361 57.3087 60.6483 57.0318 60.0754C56.7548 59.5024 56.6373 58.8655 56.6915 58.2315C56.7457 57.5974 56.9698 56.9897 57.34 56.4721C57.7225 56.6008 58.1234 56.6663 58.527 56.6661C59.1459 56.6686 59.7551 56.5108 60.295 56.2081C60.3156 56.1963 60.3338 56.1805 60.3484 56.1617C60.363 56.1428 60.3737 56.1213 60.38 56.0983C60.3863 56.0754 60.3879 56.0514 60.3849 56.0277C60.3819 56.0041 60.3743 55.9813 60.3625 55.9606C60.3506 55.9399 60.3349 55.9218 60.3161 55.9072C60.2972 55.8926 60.2757 55.8819 60.2527 55.8756C60.2297 55.8693 60.2057 55.8677 60.1821 55.8707C60.1585 55.8737 60.1357 55.8813 60.115 55.8931C59.6119 56.1712 59.0449 56.3131 58.4701 56.3047C57.8953 56.2962 57.3327 56.1378 56.838 55.8451C56.3483 55.5425 55.9413 55.1232 55.6532 54.6248C55.3651 54.1265 55.2049 53.5645 55.187 52.9891C55.1798 52.4119 55.3102 51.8413 55.5676 51.3246C55.825 50.8079 56.2019 50.36 56.667 50.0181C57.1401 49.6781 57.6863 49.4536 58.2618 49.3626C58.8372 49.2716 59.4261 49.3166 59.981 49.4941C60.0036 49.5016 60.0275 49.5045 60.0513 49.5028C60.0751 49.501 60.0983 49.4945 60.1196 49.4837C60.1409 49.4729 60.1598 49.4581 60.1753 49.4399C60.1908 49.4218 60.2026 49.4008 60.21 49.3781C60.1882 49.2544 60.1882 49.1278 60.21 49.0041C59.8973 48.5587 59.6952 48.0451 59.6205 47.5061C59.5457 46.967 59.6004 46.4178 59.78 45.9041C60.156 44.8627 60.9244 44.0096 61.921 43.5271C62.9253 43.0486 64.0494 42.8797 65.15 43.0421C65.835 43.1159 66.4928 43.3514 67.069 43.7291C67.5837 44.0739 67.9594 44.5902 68.129 45.1861C67.9308 45.2576 67.7423 45.3537 67.568 45.4721C67.225 45.7092 66.9438 46.0251 66.748 46.3932C66.5523 46.7614 66.4477 47.1712 66.443 47.5881C66.4427 47.6362 66.4615 47.6825 66.4952 47.7167C66.5289 47.751 66.5749 47.7706 66.623 47.7711C66.6711 47.7711 66.7172 47.7521 66.7513 47.7182C66.7854 47.6842 66.8047 47.6382 66.805 47.5901C66.8078 47.0491 67.0089 46.5278 67.3701 46.125C67.7313 45.7221 68.2276 45.4656 68.7652 45.4041C69.3027 45.3425 69.8442 45.48 70.2872 45.7907C70.7301 46.1014 71.0439 46.5637 71.169 47.0901C71.1872 47.1287 71.2184 47.1597 71.2571 47.1777C71.2959 47.1957 71.3397 47.1994 71.3809 47.1883C71.4221 47.1772 71.4581 47.152 71.4826 47.1171C71.5072 47.0821 71.5186 47.0397 71.515 46.9971C71.416 46.5921 71.2215 46.2167 70.9476 45.9023C70.6738 45.5879 70.3286 45.3437 69.941 45.1901C69.758 45.1196 69.5673 45.0709 69.373 45.0451C69.8114 43.9483 70.6141 43.0359 71.646 42.4611C72.6878 41.9165 73.8369 41.6085 75.0115 41.5588C76.186 41.5092 77.3569 41.7193 78.441 42.1741C79.4598 42.6255 80.3028 43.3983 80.841 44.3741C81.0935 44.8435 81.2472 45.3597 81.2924 45.8909C81.3376 46.422 81.2735 46.9567 81.104 47.4621C81.071 47.4821 81.039 47.5021 81.004 47.5241C80.4723 47.2614 79.8726 47.1684 79.2862 47.2579C78.6999 47.3473 78.1552 47.6148 77.726 48.0241C77.6916 48.0578 77.6721 48.1037 77.6716 48.1518C77.6711 48.2 77.6898 48.2463 77.7235 48.2806C77.7572 48.3149 77.8031 48.3345 77.8512 48.335C77.8993 48.3355 77.9456 48.3168 77.98 48.2831C78.3542 47.9152 78.8361 47.6762 79.3554 47.6009C79.8748 47.5255 80.4047 47.6178 80.868 47.8642C81.3314 48.1107 81.704 48.4985 81.9319 48.9712C82.1597 49.444 82.2309 49.9771 82.135 50.4931C82.1265 50.5403 82.137 50.5889 82.1641 50.6284C82.1913 50.6679 82.2329 50.6951 82.28 50.7041C82.2913 50.7052 82.3027 50.7052 82.314 50.7041C82.3563 50.7041 82.3972 50.6893 82.4297 50.6623C82.4622 50.6353 82.4843 50.5977 82.492 50.5561C82.5808 50.0287 82.5221 49.4871 82.3224 48.991C82.1226 48.4949 81.7895 48.0637 81.36 47.7451C81.3725 47.7341 81.3833 47.7213 81.392 47.7071C82.4064 47.0786 83.6171 46.8468 84.792 47.0561C85.4056 47.173 85.9853 47.4257 86.4886 47.7956C86.992 48.1656 87.4062 48.6434 87.701 49.1941C87.9834 49.7477 88.1188 50.3647 88.0939 50.9857C88.069 51.6067 87.8848 52.2109 87.559 52.7401C87.5473 52.7591 87.5391 52.7801 87.535 52.8021C86.5124 52.5453 85.4339 52.6314 84.465 53.0471C84.4432 53.0566 84.4235 53.0703 84.407 53.0875C84.3905 53.1046 84.3775 53.1248 84.3688 53.147C84.3601 53.1691 84.3559 53.1928 84.3564 53.2166C84.3568 53.2403 84.362 53.2638 84.3715 53.2856C84.381 53.3074 84.3947 53.3271 84.4118 53.3436C84.429 53.3601 84.4492 53.3731 84.4714 53.3818C84.4935 53.3904 84.5172 53.3947 84.5409 53.3942C84.5647 53.3938 84.5882 53.3886 84.61 53.3791C85.3279 53.0645 86.1168 52.9474 86.8952 53.04C87.6735 53.1325 88.4131 53.4312 89.0373 53.9053C89.6615 54.3794 90.1477 55.0117 90.4456 55.7367C90.7435 56.4617 90.8424 57.2531 90.732 58.0291L90.733 58.0331Z" fill="white"/>
<path d="M68.7587 51.6952C69.0092 51.989 69.1737 52.3461 69.2344 52.7273C69.2951 53.1086 69.2495 53.4992 69.1027 53.8562C69.0837 53.9005 69.083 53.9505 69.1008 53.9953C69.1186 54.0401 69.1534 54.0761 69.1977 54.0952C69.2205 54.1045 69.245 54.1093 69.2697 54.1092C69.3052 54.1094 69.3399 54.0991 69.3696 54.0798C69.3993 54.0604 69.4226 54.0327 69.4367 54.0002C69.5688 53.6876 69.6331 53.3505 69.6254 53.0112C69.6176 52.6719 69.538 52.3381 69.3917 52.0319C69.2455 51.7256 69.036 51.4538 68.777 51.2345C68.518 51.0152 68.2154 50.8533 67.8892 50.7595C67.5631 50.6657 67.2207 50.6421 66.8848 50.6904C66.5488 50.7386 66.227 50.8576 65.9404 51.0394C65.6538 51.2212 65.409 51.4617 65.2222 51.745C65.0354 52.0284 64.9109 52.3482 64.8567 52.6832C64.8531 52.7068 64.8542 52.7308 64.8599 52.754C64.8655 52.7771 64.8757 52.7989 64.8898 52.8182C64.9039 52.8374 64.9217 52.8536 64.9421 52.866C64.9625 52.8784 64.9852 52.8866 65.0087 52.8902C65.0323 52.8938 65.0564 52.8927 65.0795 52.887C65.1027 52.8814 65.1245 52.8712 65.1437 52.8571C65.1629 52.8429 65.1792 52.8252 65.1915 52.8048C65.2039 52.7844 65.2121 52.7618 65.2157 52.7382C65.2747 52.3553 65.4416 51.9972 65.6967 51.7057C65.9518 51.4142 66.2847 51.2013 66.6563 51.092C67.028 50.9827 67.423 50.9815 67.7953 51.0885C68.1677 51.1955 68.5018 51.4063 68.7587 51.6962V51.6952Z" fill="white"/>
<path d="M79.6824 54.9611C79.6588 54.9639 79.6359 54.9713 79.6151 54.983C79.5944 54.9946 79.5761 55.0103 79.5614 55.029C79.5467 55.0477 79.5358 55.0691 79.5294 55.092C79.5229 55.115 79.5211 55.1389 79.5239 55.1626C79.5267 55.1862 79.5342 55.209 79.5459 55.2298C79.5575 55.2506 79.5731 55.2688 79.5918 55.2835C79.6105 55.2983 79.632 55.3091 79.6549 55.3156C79.6778 55.322 79.7018 55.3239 79.7254 55.3211C80.2321 55.2659 80.7444 55.3427 81.2125 55.5441C81.6807 55.7454 82.0889 56.0644 82.3974 56.4701C82.694 56.8832 82.8704 57.3704 82.9071 57.8777C82.9438 58.385 82.8394 58.8925 82.6054 59.3441C82.3608 59.7878 81.9921 60.1506 81.5446 60.3882C81.0971 60.6258 80.59 60.7279 80.0854 60.6821C80.0393 60.68 79.994 60.6956 79.9589 60.7256C79.9239 60.7557 79.9015 60.7979 79.8964 60.8438C79.8914 60.8897 79.9039 60.9359 79.9315 60.9729C79.9592 61.0099 80 61.035 80.0454 61.0431C80.1431 61.0538 80.2412 61.0592 80.3394 61.059C80.8677 61.0524 81.385 60.9062 81.8387 60.6355C82.2925 60.3647 82.6667 59.9789 82.9234 59.5171C83.1891 59.0052 83.3079 58.4297 83.2666 57.8545C83.2253 57.2793 83.0255 56.7267 82.6894 56.2581C82.3455 55.7977 81.8868 55.4356 81.3591 55.208C80.8314 54.9804 80.2533 54.8953 79.6824 54.9611Z" fill="white"/>
<path d="M79.1894 58.4241C79.1726 58.4073 79.1526 58.3939 79.1307 58.3848C79.1087 58.3757 79.0852 58.371 79.0614 58.371C79.0376 58.371 79.0141 58.3757 78.9921 58.3848C78.9702 58.3939 78.9502 58.4073 78.9334 58.4241C78.524 58.8379 77.9849 59.0985 77.4063 59.1623C76.8276 59.2262 76.2447 59.0893 75.7549 58.7747C75.2651 58.46 74.8983 57.9867 74.7158 57.4339C74.5333 56.8812 74.5463 56.2825 74.7525 55.7381C75.1319 55.9229 75.5483 56.0193 75.9704 56.0201C76.1923 56.0202 76.4134 55.9926 76.6284 55.9381C77.0392 55.8538 77.4109 55.6367 77.6862 55.3202C77.9614 55.0038 78.1249 54.6056 78.1514 54.1871C78.1506 54.1633 78.145 54.1399 78.1351 54.1183C78.1253 54.0967 78.1112 54.0772 78.0938 54.061C78.0764 54.0448 78.056 54.0322 78.0337 54.0239C78.0114 54.0156 77.9877 54.0117 77.9639 54.0126C77.9402 54.0134 77.9168 54.019 77.8952 54.0288C77.8735 54.0387 77.854 54.0528 77.8378 54.0702C77.8216 54.0876 77.809 54.108 77.8007 54.1303C77.7924 54.1526 77.7886 54.1763 77.7894 54.2001C77.7606 54.5359 77.6229 54.8531 77.3973 55.1034C77.1717 55.3538 76.8704 55.5236 76.5394 55.5871C76.1679 55.6817 75.779 55.6845 75.4061 55.5952C75.0333 55.506 74.6878 55.3274 74.3994 55.0748C74.111 54.8223 73.8884 54.5033 73.7508 54.1455C73.6132 53.7877 73.5647 53.4018 73.6094 53.0211C73.615 52.9733 73.6014 52.9253 73.5715 52.8876C73.5417 52.8499 73.4982 52.8256 73.4504 52.8201C73.4027 52.8145 73.3547 52.8281 73.317 52.8579C73.2793 52.8878 73.255 52.9313 73.2494 52.9791C73.201 53.418 73.2584 53.8622 73.4169 54.2743C73.5754 54.6865 73.8304 55.0547 74.1604 55.3481C74.2472 55.4226 74.3387 55.4914 74.4344 55.5541C74.1706 56.2312 74.1639 56.9814 74.4154 57.6631L74.6004 58.0631C74.8219 58.4479 75.1272 58.778 75.4937 59.0286C75.8602 59.2793 76.2785 59.4442 76.7174 59.5111C76.8476 59.5297 76.9789 59.539 77.1104 59.5391C77.8899 59.5379 78.6376 59.2297 79.1914 58.6811C79.2082 58.6641 79.2216 58.644 79.2306 58.6219C79.2396 58.5997 79.2442 58.576 79.244 58.5522C79.2438 58.5283 79.2389 58.5047 79.2295 58.4827C79.2201 58.4607 79.2065 58.4408 79.1894 58.4241Z" fill="white"/>
<path d="M70.925 58.896C70.9222 58.8649 70.9115 58.8351 70.8937 58.8094C70.8759 58.7838 70.8518 58.7632 70.8236 58.7497C70.7955 58.7361 70.7643 58.7302 70.7332 58.7323C70.702 58.7345 70.672 58.7448 70.646 58.762C70.2291 59.0436 69.7348 59.1883 69.2319 59.1759C68.729 59.1635 68.2425 58.9948 67.84 58.693C67.7127 58.6102 67.603 58.5031 67.5172 58.3779C67.4314 58.2526 67.3712 58.1116 67.34 57.963C67.3345 57.9153 67.3104 57.8717 67.2728 57.8418C67.2352 57.8118 67.1872 57.7981 67.1395 57.8035C67.0917 57.809 67.0481 57.8331 67.0182 57.8707C66.9883 57.9083 66.9745 57.9563 66.98 58.004C67.016 58.202 67.0915 58.3907 67.202 58.5589C67.3124 58.7271 67.4556 58.8713 67.623 58.983C67.735 59.067 67.8534 59.1422 67.977 59.208C68.4234 59.4477 68.9267 59.5608 69.4327 59.5353C69.9387 59.5097 70.428 59.3464 70.848 59.063C70.8749 59.0447 70.8963 59.0193 70.9099 58.9897C70.9234 58.9601 70.9287 58.9274 70.925 58.895V58.896Z" fill="white"/>
<path d="M71.9045 50.1571C71.9243 50.1702 71.9466 50.1792 71.97 50.1837C71.9934 50.1882 72.0174 50.188 72.0407 50.1831C72.0641 50.1783 72.0862 50.1689 72.1059 50.1555C72.1256 50.1421 72.1424 50.125 72.1554 50.1051C72.4838 49.6074 72.9751 49.2396 73.545 49.0647C74.115 48.8898 74.728 48.9188 75.279 49.1466C75.8299 49.3744 76.2844 49.7868 76.5644 50.3132C76.8444 50.8395 76.9324 51.4469 76.8134 52.0311C76.804 52.0783 76.8136 52.1273 76.8402 52.1674C76.8669 52.2075 76.9083 52.2354 76.9555 52.2451C76.9674 52.2463 76.9795 52.2463 76.9914 52.2451C77.0332 52.245 77.0738 52.2306 77.1062 52.2042C77.1386 52.1778 77.161 52.141 77.1695 52.1001C77.3055 51.4333 77.2051 50.74 76.8857 50.1392C76.5663 49.5383 76.0477 49.0674 75.419 48.8071C74.7902 48.5469 74.0905 48.5137 73.4399 48.7131C72.7893 48.9125 72.2284 49.3322 71.8534 49.9001C71.8393 49.9201 71.8294 49.9428 71.8244 49.9667C71.8193 49.9907 71.8192 50.0155 71.8239 50.0395C71.8287 50.0635 71.8383 50.0863 71.8521 50.1065C71.866 50.1267 71.8838 50.1439 71.9045 50.1571Z" fill="white"/>
</svg>
