<svg width="1928" height="3240" viewBox="0 0 1928 3240" fill="none" xmlns="http://www.w3.org/2000/svg">
<g clip-path="url(#clip0_4_154)" filter="url(#filter0_d_4_154)">
<mask id="mask0_4_154" style="mask-type:luminance" maskUnits="userSpaceOnUse" x="4" y="0" width="1920" height="1080">
<path d="M1924 0H4V1080H1924V0Z" fill="white"/>
</mask>
<g mask="url(#mask0_4_154)">
<mask id="mask1_4_154" style="mask-type:luminance" maskUnits="userSpaceOnUse" x="4" y="0" width="1920" height="1080">
<path d="M1924 0H4V1080H1924V0Z" fill="white"/>
</mask>
<g mask="url(#mask1_4_154)">
<mask id="mask2_4_154" style="mask-type:alpha" maskUnits="userSpaceOnUse" x="4" y="0" width="1920" height="1080">
<path d="M1924 0H4V1080H1924V0Z" fill="#EEEEEE"/>
</mask>
<g mask="url(#mask2_4_154)">
<path opacity="0.2" d="M1367.3 -3.08648C1364.76 -5.18976 1361.96 -6.94689 1358.96 -8.3118L1358.45 -17.479L1343.55 -20L1340.08 -11.5509C1336.8 -11.2461 1333.58 -10.5062 1330.49 -9.35075L1323.69 -15.4622L1311.39 -6.70753L1314.9 1.71104C1312.8 4.24826 1311.04 7.0535 1309.67 10.0532L1300.51 10.5574L1298 25.4542L1306.44 28.9224C1306.74 32.1995 1307.48 35.4213 1308.64 38.5022L1302.52 45.3165L1311.28 57.6159L1319.7 54.1017C1322.24 56.1998 1325.05 57.9565 1328.04 59.3271L1328.55 68.4943L1343.45 71L1346.92 62.5661C1350.2 62.254 1353.42 61.5143 1356.51 60.366L1363.31 66.4775L1375.61 57.7228L1372.1 49.3042C1374.2 46.7633 1375.95 43.9587 1377.33 40.962L1386.49 40.4578L1389 25.5611L1380.56 22.0929C1380.25 18.8123 1379.51 15.5866 1378.36 12.4978L1384.48 5.69878L1375.72 -6.52418L1367.3 -3.01008V-3.08648ZM1356.36 15.6605C1358.22 18.2702 1359.26 21.3721 1359.35 24.5741C1359.45 27.7761 1358.59 30.9342 1356.89 33.6491C1355.19 36.364 1352.72 38.5137 1349.8 39.8263C1346.88 41.1389 1343.63 41.5554 1340.47 41.0232C1337.31 40.4911 1334.38 39.0341 1332.05 36.8365C1329.72 34.639 1328.09 31.7996 1327.38 28.6775C1326.66 25.5553 1326.88 22.2907 1328.02 19.2965C1329.16 16.3023 1331.16 13.713 1333.77 11.8561C1337.27 9.36672 1341.62 8.36907 1345.85 9.0825C1350.09 9.79592 1353.87 12.162 1356.36 15.6605Z" fill="#E64CEC" fill-opacity="0.08"/>
<path opacity="0.2" d="M255.3 1005.91C252.76 1003.81 249.96 1002.05 246.96 1000.69L246.45 991.521L231.55 989L228.08 997.449C224.8 997.754 221.58 998.494 218.49 999.649L211.69 993.538L199.39 1002.29L202.9 1010.71C200.8 1013.25 199.04 1016.05 197.67 1019.05L188.51 1019.56L186 1034.45L194.44 1037.92C194.74 1041.2 195.48 1044.42 196.64 1047.5L190.52 1054.32L199.28 1066.62L207.7 1063.1C210.24 1065.2 213.05 1066.96 216.04 1068.33L216.55 1077.49L231.45 1080L234.92 1071.57C238.2 1071.25 241.42 1070.51 244.51 1069.37L251.31 1075.48L263.61 1066.72L260.1 1058.3C262.2 1055.76 263.95 1052.96 265.33 1049.96L274.49 1049.46L277 1034.56L268.56 1031.09C268.25 1027.81 267.51 1024.59 266.36 1021.5L272.48 1014.7L263.72 1002.48L255.3 1005.99V1005.91ZM244.36 1024.66C246.22 1027.27 247.26 1030.37 247.35 1033.57C247.45 1036.78 246.59 1039.93 244.89 1042.65C243.19 1045.36 240.72 1047.51 237.8 1048.83C234.88 1050.14 231.63 1050.56 228.47 1050.02C225.31 1049.49 222.38 1048.03 220.05 1045.84C217.72 1043.64 216.09 1040.8 215.38 1037.68C214.66 1034.56 214.88 1031.29 216.02 1028.3C217.16 1025.3 219.16 1022.71 221.77 1020.86C225.27 1018.37 229.62 1017.37 233.85 1018.08C238.09 1018.8 241.87 1021.16 244.36 1024.66Z" fill="#3E54AC" fill-opacity="0.2"/>
<path opacity="0.2" d="M73.3 659.914C70.76 657.81 67.96 656.053 64.96 654.688L64.45 645.521L49.55 643L46.08 651.449C42.8 651.754 39.58 652.494 36.49 653.649L29.6899 647.538L17.39 656.292L20.9 664.711C18.8 667.248 17.04 670.053 15.67 673.053L6.51001 673.557L4 688.454L12.4399 691.922C12.7399 695.2 13.48 698.421 14.64 701.502L8.52002 708.316L17.28 720.616L25.7 717.102C28.24 719.2 31.05 720.957 34.04 722.327L34.55 731.494L49.45 734L52.92 725.566C56.2 725.254 59.42 724.514 62.51 723.366L69.3101 729.478L81.61 720.723L78.1 712.304C80.2 709.763 81.95 706.959 83.33 703.962L92.49 703.458L95 688.561L86.5601 685.093C86.2501 681.812 85.51 678.587 84.36 675.498L90.48 668.699L81.72 656.476L73.3 659.99V659.914ZM62.36 678.66C64.22 681.27 65.26 684.372 65.35 687.574C65.45 690.776 64.59 693.934 62.89 696.649C61.19 699.364 58.72 701.514 55.8 702.826C52.88 704.139 49.63 704.555 46.47 704.023C43.31 703.491 40.38 702.034 38.05 699.836C35.72 697.639 34.09 694.8 33.38 691.677C32.66 688.555 32.88 685.291 34.02 682.297C35.16 679.302 37.16 676.713 39.77 674.856C43.27 672.367 47.62 671.369 51.85 672.083C56.09 672.796 59.87 675.162 62.36 678.66Z" fill="#3E54AC" fill-opacity="0.2"/>
<path opacity="0.2" d="M1548.3 16.9135C1545.76 14.8102 1542.96 13.0531 1539.96 11.6882L1539.45 2.521L1524.55 0L1521.08 8.4491C1517.8 8.7539 1514.58 9.4938 1511.49 10.6493L1504.69 4.5378L1492.39 13.2925L1495.9 21.711C1493.8 24.2483 1492.04 27.0535 1490.67 30.0532L1481.51 30.5574L1479 45.4542L1487.44 48.9224C1487.74 52.1995 1488.48 55.4213 1489.64 58.5022L1483.52 65.3165L1492.28 77.6159L1500.7 74.1017C1503.24 76.1998 1506.05 77.9565 1509.04 79.3271L1509.55 88.4943L1524.45 91L1527.92 82.5661C1531.2 82.254 1534.42 81.5143 1537.51 80.366L1544.31 86.4775L1556.61 77.7228L1553.1 69.3042C1555.2 66.7633 1556.95 63.9587 1558.33 60.962L1567.49 60.4578L1570 45.5611L1561.56 42.0929C1561.25 38.8123 1560.51 35.5866 1559.36 32.4978L1565.48 25.6988L1556.72 13.4758L1548.3 16.9899V16.9135ZM1537.36 35.6605C1539.22 38.2702 1540.26 41.3721 1540.35 44.5741C1540.45 47.7761 1539.59 50.9342 1537.89 53.6491C1536.19 56.364 1533.72 58.5137 1530.8 59.8263C1527.88 61.1389 1524.63 61.5554 1521.47 61.0232C1518.31 60.4911 1515.38 59.0341 1513.05 56.8365C1510.72 54.639 1509.09 51.7996 1508.38 48.6775C1507.66 45.5553 1507.88 42.2907 1509.02 39.2965C1510.16 36.3023 1512.16 33.713 1514.77 31.8561C1518.27 29.3667 1522.62 28.3691 1526.85 29.0825C1531.09 29.7959 1534.87 32.162 1537.36 35.6605Z" fill="#3E54AC" fill-opacity="0.2"/>
<path opacity="0.2" d="M1685.3 424.913C1682.76 422.81 1679.96 421.053 1676.96 419.688L1676.45 410.521L1661.55 408L1658.08 416.449C1654.8 416.754 1651.58 417.494 1648.49 418.649L1641.69 412.538L1629.39 421.292L1632.9 429.711C1630.8 432.248 1629.04 435.053 1627.67 438.053L1618.51 438.557L1616 453.454L1624.44 456.922C1624.74 460.2 1625.48 463.421 1626.64 466.502L1620.52 473.316L1629.28 485.616L1637.7 482.102C1640.24 484.2 1643.05 485.957 1646.04 487.327L1646.55 496.494L1661.45 499L1664.92 490.566C1668.2 490.254 1671.42 489.514 1674.51 488.366L1681.31 494.478L1693.61 485.723L1690.1 477.304C1692.2 474.763 1693.95 471.959 1695.33 468.962L1704.49 468.458L1707 453.561L1698.56 450.093C1698.25 446.812 1697.51 443.587 1696.36 440.498L1702.48 433.699L1693.72 421.476L1685.3 424.99V424.913ZM1674.36 443.66C1676.22 446.27 1677.26 449.372 1677.35 452.574C1677.45 455.776 1676.59 458.934 1674.89 461.649C1673.19 464.364 1670.72 466.514 1667.8 467.826C1664.88 469.139 1661.63 469.555 1658.47 469.023C1655.31 468.491 1652.38 467.034 1650.05 464.836C1647.72 462.639 1646.09 459.8 1645.38 456.678C1644.66 453.555 1644.88 450.291 1646.02 447.297C1647.16 444.302 1649.16 441.713 1651.77 439.856C1655.27 437.367 1659.62 436.369 1663.85 437.083C1668.09 437.796 1671.87 440.162 1674.36 443.66Z" fill="#3E54AC" fill-opacity="0.2"/>
<path opacity="0.2" d="M1947.3 312.914C1944.76 310.81 1941.96 309.053 1938.96 307.688L1938.45 298.521L1923.55 296L1920.08 304.449C1916.8 304.754 1913.58 305.494 1910.49 306.649L1903.69 300.538L1891.39 309.292L1894.9 317.711C1892.8 320.248 1891.04 323.053 1889.67 326.053L1880.51 326.557L1878 341.454L1886.44 344.922C1886.74 348.2 1887.48 351.421 1888.64 354.502L1882.52 361.316L1891.28 373.616L1899.7 370.102C1902.24 372.2 1905.05 373.957 1908.04 375.327L1908.55 384.494L1923.45 387L1926.92 378.566C1930.2 378.254 1933.42 377.514 1936.51 376.366L1943.31 382.478L1955.61 373.723L1952.1 365.304C1954.2 362.763 1955.95 359.959 1957.33 356.962L1966.49 356.458L1969 341.561L1960.56 338.093C1960.25 334.812 1959.51 331.587 1958.36 328.498L1964.48 321.699L1955.72 309.476L1947.3 312.99V312.914ZM1936.36 331.66C1938.22 334.27 1939.26 337.372 1939.35 340.574C1939.45 343.776 1938.59 346.934 1936.89 349.649C1935.19 352.364 1932.72 354.514 1929.8 355.826C1926.88 357.139 1923.63 357.555 1920.47 357.023C1917.31 356.491 1914.38 355.034 1912.05 352.836C1909.72 350.639 1908.09 347.8 1907.38 344.677C1906.66 341.555 1906.88 338.291 1908.02 335.297C1909.16 332.302 1911.16 329.713 1913.77 327.856C1917.27 325.367 1921.62 324.369 1925.85 325.083C1930.09 325.796 1933.87 328.162 1936.36 331.66Z" fill="#3E54AC" fill-opacity="0.2"/>
<path opacity="0.2" d="M795.562 -23.8195C791.183 -27.4483 786.343 -30.4798 781.167 -32.8346L780.297 -48.6506L754.591 -53L748.607 -38.4229C742.944 -37.8971 737.376 -36.6207 732.05 -34.6271L720.318 -45.1711L699.094 -30.0668L705.158 -15.5425C701.529 -11.1651 698.497 -6.32528 696.141 -1.14993L680.323 -0.280048L675.999 25.4209L690.552 31.4046C691.075 37.0584 692.352 42.6169 694.349 47.9323L683.803 59.6889L698.91 80.9087L713.436 74.8459C717.821 78.4657 722.66 81.4964 727.831 83.861L728.701 99.677L754.407 104L760.391 89.4493C766.052 88.9107 771.618 87.6346 776.948 85.6534L788.68 96.1974L809.904 81.0932L803.84 66.5688C807.46 62.185 810.492 57.3464 812.857 52.1763L828.675 51.3064L832.999 25.6054L818.446 19.6217C817.907 13.9619 816.631 8.3967 814.649 3.06764L825.195 -8.66254L810.088 -29.7505L795.562 -23.6877V-23.8195ZM776.685 8.52417C779.89 13.0266 781.689 18.3783 781.852 23.9026C782.015 29.4269 780.537 34.8755 777.603 39.5594C774.669 44.2434 770.411 47.9522 765.369 50.2168C760.327 52.4814 754.726 53.2 749.275 52.2819C743.824 51.3637 738.768 48.85 734.747 45.0586C730.725 41.2672 727.918 36.3685 726.681 30.982C725.443 25.5955 725.832 19.9632 727.796 14.7973C729.761 9.63151 733.214 5.16424 737.718 1.96052C743.756 -2.33434 751.253 -4.05556 758.561 -2.8247C765.868 -1.59384 772.387 2.48834 776.685 8.52417Z" fill="#E64CEC" fill-opacity="0.08"/>
<path opacity="0.2" d="M517.562 251.181C513.183 247.552 508.343 244.52 503.167 242.165L502.297 226.349L476.591 222L470.607 236.577C464.944 237.103 459.376 238.379 454.05 240.373L442.318 229.829L421.094 244.933L427.158 259.458C423.529 263.835 420.497 268.675 418.141 273.85L402.323 274.72L397.999 300.421L412.552 306.405C413.075 312.058 414.352 317.617 416.349 322.932L405.803 334.689L420.91 355.909L435.436 349.846C439.821 353.466 444.66 356.496 449.831 358.861L450.701 374.677L476.407 379L482.391 364.449C488.052 363.911 493.618 362.635 498.948 360.653L510.68 371.197L531.904 356.093L525.84 341.569C529.46 337.185 532.492 332.346 534.857 327.176L550.675 326.306L554.999 300.605L540.446 294.622C539.907 288.962 538.631 283.397 536.649 278.068L547.195 266.337L532.088 245.25L517.562 251.312V251.181ZM498.685 283.524C501.89 288.027 503.689 293.378 503.852 298.903C504.015 304.427 502.537 309.876 499.603 314.559C496.669 319.243 492.411 322.952 487.369 325.217C482.327 327.481 476.726 328.2 471.275 327.282C465.824 326.364 460.768 323.85 456.747 320.059C452.725 316.267 449.918 311.369 448.681 305.982C447.443 300.596 447.832 294.963 449.796 289.797C451.761 284.632 455.214 280.164 459.718 276.961C465.756 272.666 473.253 270.944 480.561 272.175C487.868 273.406 494.387 277.488 498.685 283.524Z" fill="#E64CEC" fill-opacity="0.08"/>
<path opacity="0.2" d="M517.562 251.181C513.183 247.552 508.343 244.52 503.167 242.165L502.297 226.349L476.591 222L470.607 236.577C464.944 237.103 459.376 238.379 454.05 240.373L442.318 229.829L421.094 244.933L427.158 259.458C423.529 263.835 420.497 268.675 418.141 273.85L402.323 274.72L397.999 300.421L412.552 306.405C413.075 312.058 414.352 317.617 416.349 322.932L405.803 334.689L420.91 355.909L435.436 349.846C439.821 353.466 444.66 356.496 449.831 358.861L450.701 374.677L476.407 379L482.391 364.449C488.052 363.911 493.618 362.635 498.948 360.653L510.68 371.197L531.904 356.093L525.84 341.569C529.46 337.185 532.492 332.346 534.857 327.176L550.675 326.306L554.999 300.605L540.446 294.622C539.907 288.962 538.631 283.397 536.649 278.068L547.195 266.337L532.088 245.25L517.562 251.312V251.181ZM498.685 283.524C501.89 288.027 503.689 293.378 503.852 298.903C504.015 304.427 502.537 309.876 499.603 314.559C496.669 319.243 492.411 322.952 487.369 325.217C482.327 327.481 476.726 328.2 471.275 327.282C465.824 326.364 460.768 323.85 456.747 320.059C452.725 316.267 449.918 311.369 448.681 305.982C447.443 300.596 447.832 294.963 449.796 289.797C451.761 284.632 455.214 280.164 459.718 276.961C465.756 272.666 473.253 270.944 480.561 272.175C487.868 273.406 494.387 277.488 498.685 283.524Z" fill="#3E54AC" fill-opacity="0.2"/>
<path opacity="0.2" d="M696.563 952.181C692.184 948.552 687.344 945.52 682.168 943.165L681.298 927.349L655.592 923L649.608 937.577C643.945 938.103 638.377 939.379 633.051 941.373L621.319 930.829L600.095 945.933L606.159 960.458C602.53 964.835 599.498 969.675 597.142 974.85L581.324 975.72L577 1001.42L591.553 1007.4C592.076 1013.06 593.353 1018.62 595.35 1023.93L584.804 1035.69L599.911 1056.91L614.437 1050.85C618.822 1054.47 623.661 1057.5 628.832 1059.86L629.702 1075.68L655.408 1080L661.392 1065.45C667.053 1064.91 672.619 1063.64 677.949 1061.65L689.681 1072.2L710.905 1057.09L704.841 1042.57C708.461 1038.19 711.493 1033.35 713.858 1028.18L729.676 1027.31L734 1001.61L719.447 995.622C718.908 989.962 717.632 984.397 715.65 979.068L726.196 967.337L711.089 946.25L696.563 952.312V952.181ZM677.686 984.524C680.891 989.027 682.69 994.378 682.853 999.903C683.016 1005.43 681.538 1010.88 678.604 1015.56C675.67 1020.24 671.412 1023.95 666.37 1026.22C661.328 1028.48 655.727 1029.2 650.276 1028.28C644.825 1027.36 639.769 1024.85 635.748 1021.06C631.726 1017.27 628.919 1012.37 627.682 1006.98C626.444 1001.6 626.833 995.963 628.797 990.797C630.762 985.632 634.215 981.164 638.719 977.961C644.757 973.666 652.254 971.944 659.562 973.175C666.869 974.406 673.388 978.488 677.686 984.524Z" fill="#3E54AC" fill-opacity="0.2"/>
<path opacity="0.2" d="M1736.56 189.181C1732.18 185.552 1727.34 182.52 1722.17 180.165L1721.3 164.349L1695.59 160L1689.61 174.577C1683.95 175.103 1678.38 176.379 1673.05 178.373L1661.32 167.829L1640.1 182.933L1646.16 197.458C1642.53 201.835 1639.5 206.675 1637.14 211.85L1621.32 212.72L1617 238.421L1631.55 244.405C1632.08 250.058 1633.35 255.617 1635.35 260.932L1624.8 272.689L1639.91 293.909L1654.44 287.846C1658.82 291.466 1663.66 294.496 1668.83 296.861L1669.7 312.677L1695.41 317L1701.39 302.449C1707.05 301.911 1712.62 300.635 1717.95 298.653L1729.68 309.197L1750.9 294.093L1744.84 279.569C1748.46 275.185 1751.49 270.346 1753.86 265.176L1769.68 264.306L1774 238.605L1759.45 232.622C1758.91 226.962 1757.63 221.397 1755.65 216.068L1766.2 204.337L1751.09 183.25L1736.56 189.312V189.181ZM1717.69 221.524C1720.89 226.027 1722.69 231.378 1722.85 236.903C1723.02 242.427 1721.54 247.876 1718.6 252.559C1715.67 257.243 1711.41 260.952 1706.37 263.217C1701.33 265.481 1695.73 266.2 1690.28 265.282C1684.83 264.364 1679.77 261.85 1675.75 258.059C1671.73 254.267 1668.92 249.369 1667.68 243.982C1666.44 238.596 1666.83 232.963 1668.8 227.797C1670.76 222.632 1674.21 218.164 1678.72 214.961C1684.76 210.666 1692.25 208.944 1699.56 210.175C1706.87 211.406 1713.39 215.488 1717.69 221.524Z" fill="#3E54AC" fill-opacity="0.2"/>
<path opacity="0.2" d="M206.563 76.181C202.184 72.552 197.344 69.52 192.168 67.165L191.298 51.349L165.592 47L159.608 61.577C153.945 62.103 148.377 63.379 143.051 65.373L131.319 54.829L110.095 69.933L116.159 84.458C112.53 88.835 109.498 93.675 107.142 98.85L91.324 99.72L87 125.421L101.553 131.405C102.076 137.058 103.353 142.617 105.35 147.932L94.804 159.689L109.911 180.909L124.437 174.846C128.822 178.466 133.661 181.496 138.832 183.861L139.702 199.677L165.408 204L171.392 189.449C177.053 188.911 182.619 187.635 187.949 185.653L199.681 196.197L220.905 181.093L214.841 166.569C218.461 162.185 221.493 157.346 223.858 152.176L239.676 151.306L244 125.605L229.447 119.622C228.908 113.962 227.632 108.397 225.65 103.068L236.196 91.337L221.089 70.25L206.563 76.312V76.181ZM187.686 108.524C190.891 113.027 192.69 118.378 192.853 123.903C193.016 129.427 191.538 134.876 188.604 139.559C185.67 144.243 181.412 147.952 176.37 150.217C171.328 152.481 165.727 153.2 160.276 152.282C154.825 151.364 149.769 148.85 145.748 145.059C141.726 141.267 138.919 136.369 137.682 130.982C136.444 125.596 136.833 119.963 138.797 114.797C140.762 109.632 144.215 105.164 148.719 101.961C154.757 97.666 162.254 95.944 169.562 97.175C176.869 98.406 183.388 102.488 187.686 108.524Z" fill="#3E54AC" fill-opacity="0.2"/>
<path opacity="0.2" d="M321.563 569.181C317.184 565.552 312.344 562.52 307.168 560.165L306.298 544.349L280.592 540L274.608 554.577C268.945 555.103 263.377 556.379 258.051 558.373L246.319 547.829L225.095 562.933L231.159 577.458C227.53 581.835 224.498 586.675 222.142 591.85L206.324 592.72L202 618.421L216.553 624.405C217.076 630.058 218.353 635.617 220.35 640.932L209.804 652.689L224.911 673.909L239.437 667.846C243.822 671.466 248.661 674.496 253.832 676.861L254.702 692.677L280.408 697L286.392 682.449C292.053 681.911 297.619 680.635 302.949 678.653L314.681 689.197L335.905 674.093L329.841 659.569C333.461 655.185 336.493 650.346 338.858 645.176L354.676 644.306L359 618.605L344.447 612.622C343.908 606.962 342.632 601.397 340.65 596.068L351.196 584.337L336.089 563.25L321.563 569.312V569.181ZM302.686 601.524C305.891 606.027 307.69 611.378 307.853 616.903C308.016 622.427 306.538 627.876 303.604 632.559C300.67 637.243 296.412 640.952 291.37 643.217C286.328 645.481 280.727 646.2 275.276 645.282C269.825 644.364 264.769 641.85 260.748 638.059C256.726 634.267 253.919 629.369 252.682 623.982C251.444 618.596 251.833 612.963 253.797 607.797C255.762 602.632 259.215 598.164 263.719 594.961C269.757 590.666 277.254 588.944 284.562 590.175C291.869 591.406 298.388 595.488 302.686 601.524Z" fill="#3E54AC" fill-opacity="0.2"/>
<path opacity="0.2" d="M1695.56 1030.18C1691.18 1026.55 1686.34 1023.52 1681.17 1021.17L1680.3 1005.35L1654.59 1001L1648.61 1015.58C1642.94 1016.1 1637.38 1017.38 1632.05 1019.37L1620.32 1008.83L1599.09 1023.93L1605.16 1038.46C1601.53 1042.83 1598.5 1047.67 1596.14 1052.85L1580.32 1053.72L1576 1079.42L1590.55 1085.4C1591.08 1091.06 1592.35 1096.62 1594.35 1101.93L1583.8 1113.69L1598.91 1134.91L1613.44 1128.85C1617.82 1132.47 1622.66 1135.5 1627.83 1137.86L1628.7 1153.68L1654.41 1158L1660.39 1143.45C1666.05 1142.91 1671.62 1141.63 1676.95 1139.65L1688.68 1150.2L1709.91 1135.09L1703.84 1120.57C1707.46 1116.19 1710.49 1111.35 1712.86 1106.18L1728.68 1105.31L1733 1079.61L1718.45 1073.62C1717.91 1067.96 1716.63 1062.4 1714.65 1057.07L1725.2 1045.34L1710.09 1024.25L1695.56 1030.31V1030.18ZM1676.69 1062.52C1679.89 1067.03 1681.69 1072.38 1681.85 1077.9C1682.02 1083.43 1680.54 1088.88 1677.6 1093.56C1674.67 1098.24 1670.41 1101.95 1665.37 1104.22C1660.33 1106.48 1654.73 1107.2 1649.28 1106.28C1643.83 1105.36 1638.77 1102.85 1634.75 1099.06C1630.73 1095.27 1627.92 1090.37 1626.68 1084.98C1625.44 1079.6 1625.83 1073.96 1627.8 1068.8C1629.76 1063.63 1633.21 1059.16 1637.72 1055.96C1643.76 1051.67 1651.25 1049.94 1658.56 1051.18C1665.87 1052.41 1672.39 1056.49 1676.69 1062.52Z" fill="#3E54AC" fill-opacity="0.2"/>
<path opacity="0.2" d="M1930.56 718.181C1926.18 714.552 1921.34 711.52 1916.17 709.165L1915.3 693.349L1889.59 689L1883.61 703.577C1877.94 704.103 1872.38 705.379 1867.05 707.373L1855.32 696.829L1834.09 711.933L1840.16 726.458C1836.53 730.835 1833.5 735.675 1831.14 740.85L1815.32 741.72L1811 767.421L1825.55 773.405C1826.08 779.058 1827.35 784.617 1829.35 789.932L1818.8 801.689L1833.91 822.909L1848.44 816.846C1852.82 820.466 1857.66 823.496 1862.83 825.861L1863.7 841.677L1889.41 846L1895.39 831.449C1901.05 830.911 1906.62 829.635 1911.95 827.653L1923.68 838.197L1944.91 823.093L1938.84 808.569C1942.46 804.185 1945.49 799.346 1947.86 794.176L1963.68 793.306L1968 767.605L1953.45 761.622C1952.91 755.962 1951.63 750.397 1949.65 745.068L1960.2 733.337L1945.09 712.25L1930.56 718.312V718.181ZM1911.69 750.524C1914.89 755.027 1916.69 760.378 1916.85 765.903C1917.02 771.427 1915.54 776.876 1912.6 781.559C1909.67 786.243 1905.41 789.952 1900.37 792.217C1895.33 794.481 1889.73 795.2 1884.28 794.282C1878.83 793.364 1873.77 790.85 1869.75 787.059C1865.73 783.267 1862.92 778.369 1861.68 772.982C1860.44 767.596 1860.83 761.963 1862.8 756.797C1864.76 751.632 1868.21 747.164 1872.72 743.961C1878.76 739.666 1886.25 737.944 1893.56 739.175C1900.87 740.406 1907.39 744.488 1911.69 750.524Z" fill="#3E54AC" fill-opacity="0.2"/>
<path opacity="0.2" d="M1702.56 651.181C1698.18 647.552 1693.34 644.52 1688.17 642.165L1687.3 626.349L1661.59 622L1655.61 636.577C1649.94 637.103 1644.38 638.379 1639.05 640.373L1627.32 629.829L1606.09 644.933L1612.16 659.458C1608.53 663.835 1605.5 668.675 1603.14 673.85L1587.32 674.72L1583 700.421L1597.55 706.405C1598.08 712.058 1599.35 717.617 1601.35 722.932L1590.8 734.689L1605.91 755.909L1620.44 749.846C1624.82 753.466 1629.66 756.496 1634.83 758.861L1635.7 774.677L1661.41 779L1667.39 764.449C1673.05 763.911 1678.62 762.635 1683.95 760.653L1695.68 771.197L1716.91 756.093L1710.84 741.569C1714.46 737.185 1717.49 732.346 1719.86 727.176L1735.68 726.306L1740 700.605L1725.45 694.622C1724.91 688.962 1723.63 683.397 1721.65 678.068L1732.2 666.337L1717.09 645.25L1702.56 651.312V651.181ZM1683.69 683.524C1686.89 688.027 1688.69 693.378 1688.85 698.903C1689.02 704.427 1687.54 709.876 1684.6 714.559C1681.67 719.243 1677.41 722.952 1672.37 725.217C1667.33 727.481 1661.73 728.2 1656.28 727.282C1650.83 726.364 1645.77 723.85 1641.75 720.059C1637.73 716.267 1634.92 711.369 1633.68 705.982C1632.44 700.596 1632.83 694.963 1634.8 689.797C1636.76 684.632 1640.21 680.164 1644.72 676.961C1650.76 672.666 1658.25 670.944 1665.56 672.175C1672.87 673.406 1679.39 677.488 1683.69 683.524Z" fill="#3E54AC" fill-opacity="0.2"/>
<path opacity="0.2" d="M1710.56 932.181C1706.18 928.552 1701.34 925.52 1696.17 923.165L1695.3 907.349L1669.59 903L1663.61 917.577C1657.94 918.103 1652.38 919.379 1647.05 921.373L1635.32 910.829L1614.09 925.933L1620.16 940.458C1616.53 944.835 1613.5 949.675 1611.14 954.85L1595.32 955.72L1591 981.421L1605.55 987.405C1606.08 993.058 1607.35 998.617 1609.35 1003.93L1598.8 1015.69L1613.91 1036.91L1628.44 1030.85C1632.82 1034.47 1637.66 1037.5 1642.83 1039.86L1643.7 1055.68L1669.41 1060L1675.39 1045.45C1681.05 1044.91 1686.62 1043.63 1691.95 1041.65L1703.68 1052.2L1724.91 1037.09L1718.84 1022.57C1722.46 1018.19 1725.49 1013.35 1727.86 1008.18L1743.68 1007.31L1748 981.605L1733.45 975.622C1732.91 969.962 1731.63 964.397 1729.65 959.068L1740.2 947.337L1725.09 926.25L1710.56 932.312V932.181ZM1691.69 964.524C1694.89 969.027 1696.69 974.378 1696.85 979.903C1697.02 985.427 1695.54 990.876 1692.6 995.559C1689.67 1000.24 1685.41 1003.95 1680.37 1006.22C1675.33 1008.48 1669.73 1009.2 1664.28 1008.28C1658.83 1007.36 1653.77 1004.85 1649.75 1001.06C1645.73 997.267 1642.92 992.369 1641.68 986.982C1640.44 981.596 1640.83 975.963 1642.8 970.797C1644.76 965.632 1648.21 961.164 1652.72 957.961C1658.76 953.666 1666.25 951.944 1673.56 953.175C1680.87 954.406 1687.39 958.488 1691.69 964.524Z" fill="#E64CEC" fill-opacity="0.08"/>
<path opacity="0.37" d="M1862.08 116.033C1860.57 114.782 1858.91 113.738 1857.13 112.926L1856.83 107.516L1848.01 106L1845.95 111.001C1844 111.186 1842.09 111.629 1840.26 112.32L1836.22 108.698L1828.93 113.896L1831.02 118.897C1829.77 120.408 1828.73 122.074 1827.91 123.854L1822.51 124.157L1821 132.992L1826.01 135.054C1826.19 137.003 1826.62 138.919 1827.31 140.752L1823.71 144.784L1828.9 152.089L1833.92 150.043C1835.43 151.268 1837.09 152.287 1838.87 153.074L1839.17 158.484L1848.01 160L1850.05 154.983C1852 154.806 1853.91 154.367 1855.74 153.68L1859.78 157.287L1867.07 152.089L1864.98 147.087C1866.23 145.581 1867.28 143.915 1868.09 142.131L1873.49 141.828L1875 132.992L1869.99 130.931C1869.82 128.981 1869.38 127.064 1868.69 125.233L1872.29 121.201L1867.1 113.896L1862.12 115.988L1862.08 116.033ZM1855.57 127.127C1856.68 128.677 1857.3 130.521 1857.36 132.425C1857.42 134.329 1856.91 136.208 1855.9 137.823C1854.89 139.438 1853.43 140.717 1851.69 141.498C1849.96 142.279 1848.03 142.527 1846.16 142.21C1844.28 141.894 1842.54 141.027 1841.16 139.719C1839.78 138.412 1838.81 136.723 1838.39 134.866C1837.96 133.009 1838.1 131.068 1838.78 129.288C1839.46 127.509 1840.65 125.971 1842.2 124.869C1844.27 123.392 1846.84 122.8 1849.35 123.224C1851.86 123.647 1854.1 125.051 1855.57 127.127Z" fill="#3E54AC" fill-opacity="0.2"/>
<path opacity="0.37" d="M206.08 355.033C204.57 353.782 202.91 352.738 201.13 351.926L200.83 346.516L192.01 345L189.95 350.001C188 350.186 186.09 350.629 184.26 351.32L180.22 347.698L172.93 352.896L175.02 357.897C173.77 359.408 172.73 361.074 171.91 362.854L166.51 363.157L165 371.992L170.01 374.054C170.19 376.003 170.62 377.919 171.31 379.752L167.71 383.784L172.9 391.089L177.92 389.043C179.43 390.268 181.09 391.287 182.87 392.074L183.17 397.484L192.01 399L194.05 393.983C196 393.806 197.91 393.367 199.74 392.68L203.78 396.287L211.07 391.089L208.98 386.087C210.23 384.581 211.28 382.915 212.09 381.131L217.49 380.828L219 371.992L213.99 369.931C213.82 367.981 213.38 366.064 212.69 364.233L216.29 360.201L211.1 352.896L206.12 354.988L206.08 355.033ZM199.57 366.127C200.68 367.677 201.3 369.521 201.36 371.425C201.42 373.329 200.91 375.208 199.9 376.823C198.89 378.438 197.43 379.717 195.69 380.498C193.96 381.279 192.03 381.527 190.16 381.21C188.28 380.894 186.54 380.027 185.16 378.719C183.78 377.412 182.81 375.723 182.39 373.866C181.96 372.009 182.1 370.068 182.78 368.288C183.46 366.509 184.65 364.971 186.2 363.869C188.27 362.392 190.84 361.8 193.35 362.224C195.86 362.647 198.1 364.051 199.57 366.127Z" fill="#3E54AC" fill-opacity="0.2"/>
<path opacity="0.37" d="M1608.08 848.033C1606.57 846.782 1604.91 845.738 1603.13 844.926L1602.83 839.516L1594.01 838L1591.95 843.001C1590 843.186 1588.09 843.629 1586.26 844.32L1582.22 840.698L1574.93 845.896L1577.02 850.897C1575.77 852.408 1574.73 854.074 1573.91 855.854L1568.51 856.157L1567 864.992L1572.01 867.054C1572.19 869.003 1572.62 870.919 1573.31 872.752L1569.71 876.784L1574.9 884.089L1579.92 882.043C1581.43 883.268 1583.09 884.287 1584.87 885.074L1585.17 890.484L1594.01 892L1596.05 886.983C1598 886.806 1599.91 886.367 1601.74 885.68L1605.78 889.287L1613.07 884.089L1610.98 879.087C1612.23 877.581 1613.28 875.915 1614.09 874.131L1619.49 873.828L1621 864.992L1615.99 862.931C1615.82 860.981 1615.38 859.064 1614.69 857.233L1618.29 853.201L1613.1 845.896L1608.12 847.988L1608.08 848.033ZM1601.57 859.127C1602.68 860.677 1603.3 862.521 1603.36 864.425C1603.42 866.329 1602.91 868.208 1601.9 869.823C1600.89 871.438 1599.43 872.717 1597.69 873.498C1595.96 874.279 1594.03 874.527 1592.16 874.21C1590.28 873.894 1588.54 873.027 1587.16 871.719C1585.78 870.412 1584.81 868.723 1584.39 866.866C1583.96 865.009 1584.1 863.068 1584.78 861.288C1585.46 859.509 1586.65 857.971 1588.2 856.869C1590.27 855.392 1592.84 854.8 1595.35 855.224C1597.86 855.647 1600.1 857.051 1601.57 859.127Z" fill="#3E54AC" fill-opacity="0.2"/>
<path opacity="0.37" d="M1885.08 865.033C1883.57 863.782 1881.91 862.738 1880.13 861.926L1879.83 856.516L1871.01 855L1868.95 860.001C1867 860.186 1865.09 860.629 1863.26 861.32L1859.22 857.698L1851.93 862.896L1854.02 867.897C1852.77 869.408 1851.73 871.074 1850.91 872.854L1845.51 873.157L1844 881.992L1849.01 884.054C1849.19 886.003 1849.62 887.919 1850.31 889.752L1846.71 893.784L1851.9 901.089L1856.92 899.043C1858.43 900.268 1860.09 901.287 1861.87 902.074L1862.17 907.484L1871.01 909L1873.05 903.983C1875 903.806 1876.91 903.367 1878.74 902.68L1882.78 906.287L1890.07 901.089L1887.98 896.087C1889.23 894.581 1890.28 892.915 1891.09 891.131L1896.49 890.828L1898 881.992L1892.99 879.931C1892.82 877.981 1892.38 876.064 1891.69 874.233L1895.29 870.201L1890.1 862.896L1885.12 864.988L1885.08 865.033ZM1878.57 876.127C1879.68 877.677 1880.3 879.521 1880.36 881.425C1880.42 883.329 1879.91 885.208 1878.9 886.823C1877.89 888.438 1876.43 889.717 1874.69 890.498C1872.96 891.279 1871.03 891.527 1869.16 891.21C1867.28 890.894 1865.54 890.027 1864.16 888.719C1862.78 887.412 1861.81 885.723 1861.39 883.866C1860.96 882.009 1861.1 880.068 1861.78 878.288C1862.46 876.509 1863.65 874.971 1865.2 873.869C1867.27 872.392 1869.84 871.8 1872.35 872.224C1874.86 872.647 1877.1 874.051 1878.57 876.127Z" fill="#CE2A2A" fill-opacity="0.07"/>
</g>
</g>
</g>
</g>
<g clip-path="url(#clip1_4_154)">
<mask id="mask3_4_154" style="mask-type:luminance" maskUnits="userSpaceOnUse" x="4" y="1080" width="1920" height="1080">
<path d="M1924 1080H4V2160H1924V1080Z" fill="white"/>
</mask>
<g mask="url(#mask3_4_154)">
<mask id="mask4_4_154" style="mask-type:luminance" maskUnits="userSpaceOnUse" x="4" y="1080" width="1920" height="1080">
<path d="M1924 1080H4V2160H1924V1080Z" fill="white"/>
</mask>
<g mask="url(#mask4_4_154)">
<mask id="mask5_4_154" style="mask-type:alpha" maskUnits="userSpaceOnUse" x="4" y="1080" width="1920" height="1080">
<path d="M1924 1080H4V2160H1924V1080Z" fill="#EEEEEE"/>
</mask>
<g mask="url(#mask5_4_154)">
<path opacity="0.2" d="M255.3 2085.91C252.76 2083.81 249.96 2082.05 246.96 2080.69L246.45 2071.52L231.55 2069L228.08 2077.45C224.8 2077.75 221.58 2078.49 218.49 2079.65L211.69 2073.54L199.39 2082.29L202.9 2090.71C200.8 2093.25 199.04 2096.05 197.67 2099.05L188.51 2099.56L186 2114.45L194.44 2117.92C194.74 2121.2 195.48 2124.42 196.64 2127.5L190.52 2134.32L199.28 2146.62L207.7 2143.1C210.24 2145.2 213.05 2146.96 216.04 2148.33L216.55 2157.49L231.45 2160L234.92 2151.57C238.2 2151.25 241.42 2150.51 244.51 2149.37L251.31 2155.48L263.61 2146.72L260.1 2138.3C262.2 2135.76 263.95 2132.96 265.33 2129.96L274.49 2129.46L277 2114.56L268.56 2111.09C268.25 2107.81 267.51 2104.59 266.36 2101.5L272.48 2094.7L263.72 2082.48L255.3 2085.99V2085.91ZM244.36 2104.66C246.22 2107.27 247.26 2110.37 247.35 2113.57C247.45 2116.78 246.59 2119.93 244.89 2122.65C243.19 2125.36 240.72 2127.51 237.8 2128.83C234.88 2130.14 231.63 2130.56 228.47 2130.02C225.31 2129.49 222.38 2128.03 220.05 2125.84C217.72 2123.64 216.09 2120.8 215.38 2117.68C214.66 2114.56 214.88 2111.29 216.02 2108.3C217.16 2105.3 219.16 2102.71 221.77 2100.86C225.27 2098.37 229.62 2097.37 233.85 2098.08C238.09 2098.8 241.87 2101.16 244.36 2104.66Z" fill="#667BD0" fill-opacity="0.2"/>
<path opacity="0.2" d="M73.3 1739.91C70.76 1737.81 67.96 1736.05 64.96 1734.69L64.45 1725.52L49.55 1723L46.08 1731.45C42.8 1731.75 39.58 1732.49 36.49 1733.65L29.6899 1727.54L17.39 1736.29L20.9 1744.71C18.8 1747.25 17.04 1750.05 15.67 1753.05L6.51001 1753.56L4 1768.45L12.4399 1771.92C12.7399 1775.2 13.48 1778.42 14.64 1781.5L8.52002 1788.32L17.28 1800.62L25.7 1797.1C28.24 1799.2 31.05 1800.96 34.04 1802.33L34.55 1811.49L49.45 1814L52.92 1805.57C56.2 1805.25 59.42 1804.51 62.51 1803.37L69.3101 1809.48L81.61 1800.72L78.1 1792.3C80.2 1789.76 81.95 1786.96 83.33 1783.96L92.49 1783.46L95 1768.56L86.5601 1765.09C86.2501 1761.81 85.51 1758.59 84.36 1755.5L90.48 1748.7L81.72 1736.48L73.3 1739.99V1739.91ZM62.36 1758.66C64.22 1761.27 65.26 1764.37 65.35 1767.57C65.45 1770.78 64.59 1773.93 62.89 1776.65C61.19 1779.36 58.72 1781.51 55.8 1782.83C52.88 1784.14 49.63 1784.56 46.47 1784.02C43.31 1783.49 40.38 1782.03 38.05 1779.84C35.72 1777.64 34.09 1774.8 33.38 1771.68C32.66 1768.56 32.88 1765.29 34.02 1762.3C35.16 1759.3 37.16 1756.71 39.77 1754.86C43.27 1752.37 47.62 1751.37 51.85 1752.08C56.09 1752.8 59.87 1755.16 62.36 1758.66Z" fill="#667BD0" fill-opacity="0.2"/>
<path opacity="0.2" d="M1548.3 1096.91C1545.76 1094.81 1542.96 1093.05 1539.96 1091.69L1539.45 1082.52L1524.55 1080L1521.08 1088.45C1517.8 1088.75 1514.58 1089.49 1511.49 1090.65L1504.69 1084.54L1492.39 1093.29L1495.9 1101.71C1493.8 1104.25 1492.04 1107.05 1490.67 1110.05L1481.51 1110.56L1479 1125.45L1487.44 1128.92C1487.74 1132.2 1488.48 1135.42 1489.64 1138.5L1483.52 1145.32L1492.28 1157.62L1500.7 1154.1C1503.24 1156.2 1506.05 1157.96 1509.04 1159.33L1509.55 1168.49L1524.45 1171L1527.92 1162.57C1531.2 1162.25 1534.42 1161.51 1537.51 1160.37L1544.31 1166.48L1556.61 1157.72L1553.1 1149.3C1555.2 1146.76 1556.95 1143.96 1558.33 1140.96L1567.49 1140.46L1570 1125.56L1561.56 1122.09C1561.25 1118.81 1560.51 1115.59 1559.36 1112.5L1565.48 1105.7L1556.72 1093.48L1548.3 1096.99V1096.91ZM1537.36 1115.66C1539.22 1118.27 1540.26 1121.37 1540.35 1124.57C1540.45 1127.78 1539.59 1130.93 1537.89 1133.65C1536.19 1136.36 1533.72 1138.51 1530.8 1139.83C1527.88 1141.14 1524.63 1141.56 1521.47 1141.02C1518.31 1140.49 1515.38 1139.03 1513.05 1136.84C1510.72 1134.64 1509.09 1131.8 1508.38 1128.68C1507.66 1125.56 1507.88 1122.29 1509.02 1119.3C1510.16 1116.3 1512.16 1113.71 1514.77 1111.86C1518.27 1109.37 1522.62 1108.37 1526.85 1109.08C1531.09 1109.8 1534.87 1112.16 1537.36 1115.66Z" fill="#667BD0" fill-opacity="0.2"/>
<path opacity="0.2" d="M1685.3 1504.91C1682.76 1502.81 1679.96 1501.05 1676.96 1499.69L1676.45 1490.52L1661.55 1488L1658.08 1496.45C1654.8 1496.75 1651.58 1497.49 1648.49 1498.65L1641.69 1492.54L1629.39 1501.29L1632.9 1509.71C1630.8 1512.25 1629.04 1515.05 1627.67 1518.05L1618.51 1518.56L1616 1533.45L1624.44 1536.92C1624.74 1540.2 1625.48 1543.42 1626.64 1546.5L1620.52 1553.32L1629.28 1565.62L1637.7 1562.1C1640.24 1564.2 1643.05 1565.96 1646.04 1567.33L1646.55 1576.49L1661.45 1579L1664.92 1570.57C1668.2 1570.25 1671.42 1569.51 1674.51 1568.37L1681.31 1574.48L1693.61 1565.72L1690.1 1557.3C1692.2 1554.76 1693.95 1551.96 1695.33 1548.96L1704.49 1548.46L1707 1533.56L1698.56 1530.09C1698.25 1526.81 1697.51 1523.59 1696.36 1520.5L1702.48 1513.7L1693.72 1501.48L1685.3 1504.99V1504.91ZM1674.36 1523.66C1676.22 1526.27 1677.26 1529.37 1677.35 1532.57C1677.45 1535.78 1676.59 1538.93 1674.89 1541.65C1673.19 1544.36 1670.72 1546.51 1667.8 1547.83C1664.88 1549.14 1661.63 1549.56 1658.47 1549.02C1655.31 1548.49 1652.38 1547.03 1650.05 1544.84C1647.72 1542.64 1646.09 1539.8 1645.38 1536.68C1644.66 1533.56 1644.88 1530.29 1646.02 1527.3C1647.16 1524.3 1649.16 1521.71 1651.77 1519.86C1655.27 1517.37 1659.62 1516.37 1663.85 1517.08C1668.09 1517.8 1671.87 1520.16 1674.36 1523.66Z" fill="#667BD0" fill-opacity="0.2"/>
<path opacity="0.2" d="M1947.3 1392.91C1944.76 1390.81 1941.96 1389.05 1938.96 1387.69L1938.45 1378.52L1923.55 1376L1920.08 1384.45C1916.8 1384.75 1913.58 1385.49 1910.49 1386.65L1903.69 1380.54L1891.39 1389.29L1894.9 1397.71C1892.8 1400.25 1891.04 1403.05 1889.67 1406.05L1880.51 1406.56L1878 1421.45L1886.44 1424.92C1886.74 1428.2 1887.48 1431.42 1888.64 1434.5L1882.52 1441.32L1891.28 1453.62L1899.7 1450.1C1902.24 1452.2 1905.05 1453.96 1908.04 1455.33L1908.55 1464.49L1923.45 1467L1926.92 1458.57C1930.2 1458.25 1933.42 1457.51 1936.51 1456.37L1943.31 1462.48L1955.61 1453.72L1952.1 1445.3C1954.2 1442.76 1955.95 1439.96 1957.33 1436.96L1966.49 1436.46L1969 1421.56L1960.56 1418.09C1960.25 1414.81 1959.51 1411.59 1958.36 1408.5L1964.48 1401.7L1955.72 1389.48L1947.3 1392.99V1392.91ZM1936.36 1411.66C1938.22 1414.27 1939.26 1417.37 1939.35 1420.57C1939.45 1423.78 1938.59 1426.93 1936.89 1429.65C1935.19 1432.36 1932.72 1434.51 1929.8 1435.83C1926.88 1437.14 1923.63 1437.56 1920.47 1437.02C1917.31 1436.49 1914.38 1435.03 1912.05 1432.84C1909.72 1430.64 1908.09 1427.8 1907.38 1424.68C1906.66 1421.56 1906.88 1418.29 1908.02 1415.3C1909.16 1412.3 1911.16 1409.71 1913.77 1407.86C1917.27 1405.37 1921.62 1404.37 1925.85 1405.08C1930.09 1405.8 1933.87 1408.16 1936.36 1411.66Z" fill="#667BD0" fill-opacity="0.2"/>
<path opacity="0.2" d="M517.562 1331.18C513.183 1327.55 508.343 1324.52 503.167 1322.16L502.297 1306.35L476.591 1302L470.607 1316.58C464.944 1317.1 459.376 1318.38 454.05 1320.37L442.318 1309.83L421.094 1324.93L427.158 1339.46C423.529 1343.84 420.497 1348.68 418.141 1353.85L402.323 1354.72L397.999 1380.42L412.552 1386.4C413.075 1392.06 414.352 1397.62 416.349 1402.93L405.803 1414.69L420.91 1435.91L435.436 1429.85C439.821 1433.47 444.66 1436.5 449.831 1438.86L450.701 1454.68L476.407 1459L482.391 1444.45C488.052 1443.91 493.618 1442.64 498.948 1440.65L510.68 1451.2L531.904 1436.09L525.84 1421.57C529.46 1417.19 532.492 1412.35 534.857 1407.18L550.675 1406.31L554.999 1380.61L540.446 1374.62C539.907 1368.96 538.631 1363.4 536.649 1358.07L547.195 1346.34L532.088 1325.25L517.562 1331.31V1331.18ZM498.685 1363.52C501.89 1368.03 503.689 1373.38 503.852 1378.9C504.015 1384.43 502.537 1389.88 499.603 1394.56C496.669 1399.24 492.411 1402.95 487.369 1405.22C482.327 1407.48 476.726 1408.2 471.275 1407.28C465.824 1406.36 460.768 1403.85 456.747 1400.06C452.725 1396.27 449.918 1391.37 448.681 1385.98C447.443 1380.6 447.832 1374.96 449.796 1369.8C451.761 1364.63 455.214 1360.16 459.718 1356.96C465.756 1352.67 473.253 1350.94 480.561 1352.17C487.868 1353.41 494.387 1357.49 498.685 1363.52Z" fill="#667BD0" fill-opacity="0.2"/>
<path opacity="0.2" d="M517.562 1331.18C513.183 1327.55 508.343 1324.52 503.167 1322.16L502.297 1306.35L476.591 1302L470.607 1316.58C464.944 1317.1 459.376 1318.38 454.05 1320.37L442.318 1309.83L421.094 1324.93L427.158 1339.46C423.529 1343.84 420.497 1348.68 418.141 1353.85L402.323 1354.72L397.999 1380.42L412.552 1386.4C413.075 1392.06 414.352 1397.62 416.349 1402.93L405.803 1414.69L420.91 1435.91L435.436 1429.85C439.821 1433.47 444.66 1436.5 449.831 1438.86L450.701 1454.68L476.407 1459L482.391 1444.45C488.052 1443.91 493.618 1442.64 498.948 1440.65L510.68 1451.2L531.904 1436.09L525.84 1421.57C529.46 1417.19 532.492 1412.35 534.857 1407.18L550.675 1406.31L554.999 1380.61L540.446 1374.62C539.907 1368.96 538.631 1363.4 536.649 1358.07L547.195 1346.34L532.088 1325.25L517.562 1331.31V1331.18ZM498.685 1363.52C501.89 1368.03 503.689 1373.38 503.852 1378.9C504.015 1384.43 502.537 1389.88 499.603 1394.56C496.669 1399.24 492.411 1402.95 487.369 1405.22C482.327 1407.48 476.726 1408.2 471.275 1407.28C465.824 1406.36 460.768 1403.85 456.747 1400.06C452.725 1396.27 449.918 1391.37 448.681 1385.98C447.443 1380.6 447.832 1374.96 449.796 1369.8C451.761 1364.63 455.214 1360.16 459.718 1356.96C465.756 1352.67 473.253 1350.94 480.561 1352.17C487.868 1353.41 494.387 1357.49 498.685 1363.52Z" fill="#667BD0" fill-opacity="0.2"/>
<path opacity="0.2" d="M696.563 2032.18C692.184 2028.55 687.344 2025.52 682.168 2023.16L681.298 2007.35L655.592 2003L649.608 2017.58C643.945 2018.1 638.377 2019.38 633.051 2021.37L621.319 2010.83L600.095 2025.93L606.159 2040.46C602.53 2044.84 599.498 2049.68 597.142 2054.85L581.324 2055.72L577 2081.42L591.553 2087.4C592.076 2093.06 593.353 2098.62 595.35 2103.93L584.804 2115.69L599.911 2136.91L614.437 2130.85C618.822 2134.47 623.661 2137.5 628.832 2139.86L629.702 2155.68L655.408 2160L661.392 2145.45C667.053 2144.91 672.619 2143.64 677.949 2141.65L689.681 2152.2L710.905 2137.09L704.841 2122.57C708.461 2118.19 711.493 2113.35 713.858 2108.18L729.676 2107.31L734 2081.61L719.447 2075.62C718.908 2069.96 717.632 2064.4 715.65 2059.07L726.196 2047.34L711.089 2026.25L696.563 2032.31V2032.18ZM677.686 2064.52C680.891 2069.03 682.69 2074.38 682.853 2079.9C683.016 2085.43 681.538 2090.88 678.604 2095.56C675.67 2100.24 671.412 2103.95 666.37 2106.22C661.328 2108.48 655.727 2109.2 650.276 2108.28C644.825 2107.36 639.769 2104.85 635.748 2101.06C631.726 2097.27 628.919 2092.37 627.682 2086.98C626.444 2081.6 626.833 2075.96 628.797 2070.8C630.762 2065.63 634.215 2061.16 638.719 2057.96C644.757 2053.67 652.254 2051.94 659.562 2053.17C666.869 2054.41 673.388 2058.49 677.686 2064.52Z" fill="#667BD0" fill-opacity="0.2"/>
<path opacity="0.2" d="M1153.56 2032.18C1149.18 2028.55 1144.34 2025.52 1139.17 2023.16L1138.3 2007.35L1112.59 2003L1106.61 2017.58C1100.95 2018.1 1095.38 2019.38 1090.05 2021.37L1078.32 2010.83L1057.1 2025.93L1063.16 2040.46C1059.53 2044.84 1056.5 2049.68 1054.14 2054.85L1038.32 2055.72L1034 2081.42L1048.55 2087.4C1049.08 2093.06 1050.35 2098.62 1052.35 2103.93L1041.8 2115.69L1056.91 2136.91L1071.44 2130.85C1075.82 2134.47 1080.66 2137.5 1085.83 2139.86L1086.7 2155.68L1112.41 2160L1118.39 2145.45C1124.05 2144.91 1129.62 2143.64 1134.95 2141.65L1146.68 2152.2L1167.9 2137.09L1161.84 2122.57C1165.46 2118.19 1168.49 2113.35 1170.86 2108.18L1186.68 2107.31L1191 2081.61L1176.45 2075.62C1175.91 2069.96 1174.63 2064.4 1172.65 2059.07L1183.2 2047.34L1168.09 2026.25L1153.56 2032.31V2032.18ZM1134.69 2064.52C1137.89 2069.03 1139.69 2074.38 1139.85 2079.9C1140.02 2085.43 1138.54 2090.88 1135.6 2095.56C1132.67 2100.24 1128.41 2103.95 1123.37 2106.22C1118.33 2108.48 1112.73 2109.2 1107.28 2108.28C1101.83 2107.36 1096.77 2104.85 1092.75 2101.06C1088.73 2097.27 1085.92 2092.37 1084.68 2086.98C1083.44 2081.6 1083.83 2075.96 1085.8 2070.8C1087.76 2065.63 1091.21 2061.16 1095.72 2057.96C1101.76 2053.67 1109.25 2051.94 1116.56 2053.17C1123.87 2054.41 1130.39 2058.49 1134.69 2064.52Z" fill="#667BD0" fill-opacity="0.2"/>
<path opacity="0.2" d="M1386.56 1718.18C1382.18 1714.55 1377.34 1711.52 1372.17 1709.16L1371.3 1693.35L1345.59 1689L1339.61 1703.58C1333.95 1704.1 1328.38 1705.38 1323.05 1707.37L1311.32 1696.83L1290.1 1711.93L1296.16 1726.46C1292.53 1730.84 1289.5 1735.68 1287.14 1740.85L1271.32 1741.72L1267 1767.42L1281.55 1773.4C1282.08 1779.06 1283.35 1784.62 1285.35 1789.93L1274.8 1801.69L1289.91 1822.91L1304.44 1816.85C1308.82 1820.47 1313.66 1823.5 1318.83 1825.86L1319.7 1841.68L1345.41 1846L1351.39 1831.45C1357.05 1830.91 1362.62 1829.64 1367.95 1827.65L1379.68 1838.2L1400.9 1823.09L1394.84 1808.57C1398.46 1804.19 1401.49 1799.35 1403.86 1794.18L1419.68 1793.31L1424 1767.61L1409.45 1761.62C1408.91 1755.96 1407.63 1750.4 1405.65 1745.07L1416.2 1733.34L1401.09 1712.25L1386.56 1718.31V1718.18ZM1367.69 1750.52C1370.89 1755.03 1372.69 1760.38 1372.85 1765.9C1373.02 1771.43 1371.54 1776.88 1368.6 1781.56C1365.67 1786.24 1361.41 1789.95 1356.37 1792.22C1351.33 1794.48 1345.73 1795.2 1340.28 1794.28C1334.83 1793.36 1329.77 1790.85 1325.75 1787.06C1321.73 1783.27 1318.92 1778.37 1317.68 1772.98C1316.44 1767.6 1316.83 1761.96 1318.8 1756.8C1320.76 1751.63 1324.21 1747.16 1328.72 1743.96C1334.76 1739.67 1342.25 1737.94 1349.56 1739.17C1356.87 1740.41 1363.39 1744.49 1367.69 1750.52Z" fill="#667BD0" fill-opacity="0.2"/>
<path opacity="0.2" d="M1736.56 1269.18C1732.18 1265.55 1727.34 1262.52 1722.17 1260.16L1721.3 1244.35L1695.59 1240L1689.61 1254.58C1683.95 1255.1 1678.38 1256.38 1673.05 1258.37L1661.32 1247.83L1640.1 1262.93L1646.16 1277.46C1642.53 1281.84 1639.5 1286.68 1637.14 1291.85L1621.32 1292.72L1617 1318.42L1631.55 1324.4C1632.08 1330.06 1633.35 1335.62 1635.35 1340.93L1624.8 1352.69L1639.91 1373.91L1654.44 1367.85C1658.82 1371.47 1663.66 1374.5 1668.83 1376.86L1669.7 1392.68L1695.41 1397L1701.39 1382.45C1707.05 1381.91 1712.62 1380.64 1717.95 1378.65L1729.68 1389.2L1750.9 1374.09L1744.84 1359.57C1748.46 1355.19 1751.49 1350.35 1753.86 1345.18L1769.68 1344.31L1774 1318.61L1759.45 1312.62C1758.91 1306.96 1757.63 1301.4 1755.65 1296.07L1766.2 1284.34L1751.09 1263.25L1736.56 1269.31V1269.18ZM1717.69 1301.52C1720.89 1306.03 1722.69 1311.38 1722.85 1316.9C1723.02 1322.43 1721.54 1327.88 1718.6 1332.56C1715.67 1337.24 1711.41 1340.95 1706.37 1343.22C1701.33 1345.48 1695.73 1346.2 1690.28 1345.28C1684.83 1344.36 1679.77 1341.85 1675.75 1338.06C1671.73 1334.27 1668.92 1329.37 1667.68 1323.98C1666.44 1318.6 1666.83 1312.96 1668.8 1307.8C1670.76 1302.63 1674.21 1298.16 1678.72 1294.96C1684.76 1290.67 1692.25 1288.94 1699.56 1290.17C1706.87 1291.41 1713.39 1295.49 1717.69 1301.52Z" fill="#667BD0" fill-opacity="0.2"/>
<path opacity="0.2" d="M206.563 1156.18C202.184 1152.55 197.344 1149.52 192.168 1147.16L191.298 1131.35L165.592 1127L159.608 1141.58C153.945 1142.1 148.377 1143.38 143.051 1145.37L131.319 1134.83L110.095 1149.93L116.159 1164.46C112.53 1168.84 109.498 1173.68 107.142 1178.85L91.324 1179.72L87 1205.42L101.553 1211.4C102.076 1217.06 103.353 1222.62 105.35 1227.93L94.804 1239.69L109.911 1260.91L124.437 1254.85C128.822 1258.47 133.661 1261.5 138.832 1263.86L139.702 1279.68L165.408 1284L171.392 1269.45C177.053 1268.91 182.619 1267.64 187.949 1265.65L199.681 1276.2L220.905 1261.09L214.841 1246.57C218.461 1242.19 221.493 1237.35 223.858 1232.18L239.676 1231.31L244 1205.61L229.447 1199.62C228.908 1193.96 227.632 1188.4 225.65 1183.07L236.196 1171.34L221.089 1150.25L206.563 1156.31V1156.18ZM187.686 1188.52C190.891 1193.03 192.69 1198.38 192.853 1203.9C193.016 1209.43 191.538 1214.88 188.604 1219.56C185.67 1224.24 181.412 1227.95 176.37 1230.22C171.328 1232.48 165.727 1233.2 160.276 1232.28C154.825 1231.36 149.769 1228.85 145.748 1225.06C141.726 1221.27 138.919 1216.37 137.682 1210.98C136.444 1205.6 136.833 1199.96 138.797 1194.8C140.762 1189.63 144.215 1185.16 148.719 1181.96C154.757 1177.67 162.254 1175.94 169.562 1177.17C176.869 1178.41 183.388 1182.49 187.686 1188.52Z" fill="#667BD0" fill-opacity="0.2"/>
<path opacity="0.2" d="M321.563 1649.18C317.184 1645.55 312.344 1642.52 307.168 1640.16L306.298 1624.35L280.592 1620L274.608 1634.58C268.945 1635.1 263.377 1636.38 258.051 1638.37L246.319 1627.83L225.095 1642.93L231.159 1657.46C227.53 1661.84 224.498 1666.67 222.142 1671.85L206.324 1672.72L202 1698.42L216.553 1704.41C217.076 1710.06 218.353 1715.62 220.35 1720.93L209.804 1732.69L224.911 1753.91L239.437 1747.85C243.822 1751.47 248.661 1754.5 253.832 1756.86L254.702 1772.68L280.408 1777L286.392 1762.45C292.053 1761.91 297.619 1760.64 302.949 1758.65L314.681 1769.2L335.905 1754.09L329.841 1739.57C333.461 1735.18 336.493 1730.35 338.858 1725.18L354.676 1724.31L359 1698.6L344.447 1692.62C343.908 1686.96 342.632 1681.4 340.65 1676.07L351.196 1664.34L336.089 1643.25L321.563 1649.31V1649.18ZM302.686 1681.52C305.891 1686.03 307.69 1691.38 307.853 1696.9C308.016 1702.43 306.538 1707.88 303.604 1712.56C300.67 1717.24 296.412 1720.95 291.37 1723.22C286.328 1725.48 280.727 1726.2 275.276 1725.28C269.825 1724.36 264.769 1721.85 260.748 1718.06C256.726 1714.27 253.919 1709.37 252.682 1703.98C251.444 1698.6 251.833 1692.96 253.797 1687.8C255.762 1682.63 259.215 1678.16 263.719 1674.96C269.757 1670.67 277.254 1668.94 284.562 1670.17C291.869 1671.41 298.388 1675.49 302.686 1681.52Z" fill="#667BD0" fill-opacity="0.2"/>
<path opacity="0.2" d="M1695.56 2110.18C1691.18 2106.55 1686.34 2103.52 1681.17 2101.17L1680.3 2085.35L1654.59 2081L1648.61 2095.58C1642.94 2096.1 1637.38 2097.38 1632.05 2099.37L1620.32 2088.83L1599.09 2103.93L1605.16 2118.46C1601.53 2122.83 1598.5 2127.67 1596.14 2132.85L1580.32 2133.72L1576 2159.42L1590.55 2165.4C1591.08 2171.06 1592.35 2176.62 1594.35 2181.93L1583.8 2193.69L1598.91 2214.91L1613.44 2208.85C1617.82 2212.47 1622.66 2215.5 1627.83 2217.86L1628.7 2233.68L1654.41 2238L1660.39 2223.45C1666.05 2222.91 1671.62 2221.63 1676.95 2219.65L1688.68 2230.2L1709.91 2215.09L1703.84 2200.57C1707.46 2196.19 1710.49 2191.35 1712.86 2186.18L1728.68 2185.31L1733 2159.61L1718.45 2153.62C1717.91 2147.96 1716.63 2142.4 1714.65 2137.07L1725.2 2125.34L1710.09 2104.25L1695.56 2110.31V2110.18ZM1676.69 2142.52C1679.89 2147.03 1681.69 2152.38 1681.85 2157.9C1682.02 2163.43 1680.54 2168.88 1677.6 2173.56C1674.67 2178.24 1670.41 2181.95 1665.37 2184.22C1660.33 2186.48 1654.73 2187.2 1649.28 2186.28C1643.83 2185.36 1638.77 2182.85 1634.75 2179.06C1630.73 2175.27 1627.92 2170.37 1626.68 2164.98C1625.44 2159.6 1625.83 2153.96 1627.8 2148.8C1629.76 2143.63 1633.21 2139.16 1637.72 2135.96C1643.76 2131.67 1651.25 2129.94 1658.56 2131.18C1665.87 2132.41 1672.39 2136.49 1676.69 2142.52Z" fill="#667BD0" fill-opacity="0.2"/>
<path opacity="0.2" d="M1930.56 1798.18C1926.18 1794.55 1921.34 1791.52 1916.17 1789.16L1915.3 1773.35L1889.59 1769L1883.61 1783.58C1877.94 1784.1 1872.38 1785.38 1867.05 1787.37L1855.32 1776.83L1834.09 1791.93L1840.16 1806.46C1836.53 1810.84 1833.5 1815.67 1831.14 1820.85L1815.32 1821.72L1811 1847.42L1825.55 1853.41C1826.08 1859.06 1827.35 1864.62 1829.35 1869.93L1818.8 1881.69L1833.91 1902.91L1848.44 1896.85C1852.82 1900.47 1857.66 1903.5 1862.83 1905.86L1863.7 1921.68L1889.41 1926L1895.39 1911.45C1901.05 1910.91 1906.62 1909.64 1911.95 1907.65L1923.68 1918.2L1944.91 1903.09L1938.84 1888.57C1942.46 1884.18 1945.49 1879.35 1947.86 1874.18L1963.68 1873.31L1968 1847.6L1953.45 1841.62C1952.91 1835.96 1951.63 1830.4 1949.65 1825.07L1960.2 1813.34L1945.09 1792.25L1930.56 1798.31V1798.18ZM1911.69 1830.52C1914.89 1835.03 1916.69 1840.38 1916.85 1845.9C1917.02 1851.43 1915.54 1856.88 1912.6 1861.56C1909.67 1866.24 1905.41 1869.95 1900.37 1872.22C1895.33 1874.48 1889.73 1875.2 1884.28 1874.28C1878.83 1873.36 1873.77 1870.85 1869.75 1867.06C1865.73 1863.27 1862.92 1858.37 1861.68 1852.98C1860.44 1847.6 1860.83 1841.96 1862.8 1836.8C1864.76 1831.63 1868.21 1827.16 1872.72 1823.96C1878.76 1819.67 1886.25 1817.94 1893.56 1819.17C1900.87 1820.41 1907.39 1824.49 1911.69 1830.52Z" fill="#667BD0" fill-opacity="0.2"/>
<path opacity="0.2" d="M1702.56 1731.18C1698.18 1727.55 1693.34 1724.52 1688.17 1722.16L1687.3 1706.35L1661.59 1702L1655.61 1716.58C1649.94 1717.1 1644.38 1718.38 1639.05 1720.37L1627.32 1709.83L1606.09 1724.93L1612.16 1739.46C1608.53 1743.84 1605.5 1748.67 1603.14 1753.85L1587.32 1754.72L1583 1780.42L1597.55 1786.41C1598.08 1792.06 1599.35 1797.62 1601.35 1802.93L1590.8 1814.69L1605.91 1835.91L1620.44 1829.85C1624.82 1833.47 1629.66 1836.5 1634.83 1838.86L1635.7 1854.68L1661.41 1859L1667.39 1844.45C1673.05 1843.91 1678.62 1842.64 1683.95 1840.65L1695.68 1851.2L1716.91 1836.09L1710.84 1821.57C1714.46 1817.18 1717.49 1812.35 1719.86 1807.18L1735.68 1806.31L1740 1780.6L1725.45 1774.62C1724.91 1768.96 1723.63 1763.4 1721.65 1758.07L1732.2 1746.34L1717.09 1725.25L1702.56 1731.31V1731.18ZM1683.69 1763.52C1686.89 1768.03 1688.69 1773.38 1688.85 1778.9C1689.02 1784.43 1687.54 1789.88 1684.6 1794.56C1681.67 1799.24 1677.41 1802.95 1672.37 1805.22C1667.33 1807.48 1661.73 1808.2 1656.28 1807.28C1650.83 1806.36 1645.77 1803.85 1641.75 1800.06C1637.73 1796.27 1634.92 1791.37 1633.68 1785.98C1632.44 1780.6 1632.83 1774.96 1634.8 1769.8C1636.76 1764.63 1640.21 1760.16 1644.72 1756.96C1650.76 1752.67 1658.25 1750.94 1665.56 1752.17C1672.87 1753.41 1679.39 1757.49 1683.69 1763.52Z" fill="#667BD0" fill-opacity="0.2"/>
<path opacity="0.37" d="M1862.08 1196.03C1860.57 1194.78 1858.91 1193.74 1857.13 1192.93L1856.83 1187.52L1848.01 1186L1845.95 1191C1844 1191.19 1842.09 1191.63 1840.26 1192.32L1836.22 1188.7L1828.93 1193.9L1831.02 1198.9C1829.77 1200.41 1828.73 1202.07 1827.91 1203.85L1822.51 1204.16L1821 1212.99L1826.01 1215.05C1826.19 1217 1826.62 1218.92 1827.31 1220.75L1823.71 1224.78L1828.9 1232.09L1833.92 1230.04C1835.43 1231.27 1837.09 1232.29 1838.87 1233.07L1839.17 1238.48L1848.01 1240L1850.05 1234.98C1852 1234.81 1853.91 1234.37 1855.74 1233.68L1859.78 1237.29L1867.07 1232.09L1864.98 1227.09C1866.23 1225.58 1867.28 1223.91 1868.09 1222.13L1873.49 1221.83L1875 1212.99L1869.99 1210.93C1869.82 1208.98 1869.38 1207.06 1868.69 1205.23L1872.29 1201.2L1867.1 1193.9L1862.12 1195.99L1862.08 1196.03ZM1855.57 1207.13C1856.68 1208.68 1857.3 1210.52 1857.36 1212.43C1857.42 1214.33 1856.91 1216.21 1855.9 1217.82C1854.89 1219.44 1853.43 1220.72 1851.69 1221.5C1849.96 1222.28 1848.03 1222.53 1846.16 1222.21C1844.28 1221.89 1842.54 1221.03 1841.16 1219.72C1839.78 1218.41 1838.81 1216.72 1838.39 1214.87C1837.96 1213.01 1838.1 1211.07 1838.78 1209.29C1839.46 1207.51 1840.65 1205.97 1842.2 1204.87C1844.27 1203.39 1846.84 1202.8 1849.35 1203.22C1851.86 1203.65 1854.1 1205.05 1855.57 1207.13Z" fill="#667BD0" fill-opacity="0.2"/>
<path opacity="0.37" d="M206.08 1435.03C204.57 1433.78 202.91 1432.74 201.13 1431.93L200.83 1426.52L192.01 1425L189.95 1430C188 1430.19 186.09 1430.63 184.26 1431.32L180.22 1427.7L172.93 1432.9L175.02 1437.9C173.77 1439.41 172.73 1441.07 171.91 1442.85L166.51 1443.16L165 1451.99L170.01 1454.05C170.19 1456 170.62 1457.92 171.31 1459.75L167.71 1463.78L172.9 1471.09L177.92 1469.04C179.43 1470.27 181.09 1471.29 182.87 1472.07L183.17 1477.48L192.01 1479L194.05 1473.98C196 1473.81 197.91 1473.37 199.74 1472.68L203.78 1476.29L211.07 1471.09L208.98 1466.09C210.23 1464.58 211.28 1462.92 212.09 1461.13L217.49 1460.83L219 1451.99L213.99 1449.93C213.82 1447.98 213.38 1446.06 212.69 1444.23L216.29 1440.2L211.1 1432.9L206.12 1434.99L206.08 1435.03ZM199.57 1446.13C200.68 1447.68 201.3 1449.52 201.36 1451.42C201.42 1453.33 200.91 1455.21 199.9 1456.82C198.89 1458.44 197.43 1459.72 195.69 1460.5C193.96 1461.28 192.03 1461.53 190.16 1461.21C188.28 1460.89 186.54 1460.03 185.16 1458.72C183.78 1457.41 182.81 1455.72 182.39 1453.87C181.96 1452.01 182.1 1450.07 182.78 1448.29C183.46 1446.51 184.65 1444.97 186.2 1443.87C188.27 1442.39 190.84 1441.8 193.35 1442.22C195.86 1442.65 198.1 1444.05 199.57 1446.13Z" fill="#667BD0" fill-opacity="0.2"/>
<path opacity="0.37" d="M1608.08 1928.03C1606.57 1926.78 1604.91 1925.74 1603.13 1924.93L1602.83 1919.52L1594.01 1918L1591.95 1923C1590 1923.19 1588.09 1923.63 1586.26 1924.32L1582.22 1920.7L1574.93 1925.9L1577.02 1930.9C1575.77 1932.41 1574.73 1934.07 1573.91 1935.85L1568.51 1936.16L1567 1944.99L1572.01 1947.05C1572.19 1949 1572.62 1950.92 1573.31 1952.75L1569.71 1956.78L1574.9 1964.09L1579.92 1962.04C1581.43 1963.27 1583.09 1964.29 1584.87 1965.07L1585.17 1970.48L1594.01 1972L1596.05 1966.98C1598 1966.81 1599.91 1966.37 1601.74 1965.68L1605.78 1969.29L1613.07 1964.09L1610.98 1959.09C1612.23 1957.58 1613.28 1955.91 1614.09 1954.13L1619.49 1953.83L1621 1944.99L1615.99 1942.93C1615.82 1940.98 1615.38 1939.06 1614.69 1937.23L1618.29 1933.2L1613.1 1925.9L1608.12 1927.99L1608.08 1928.03ZM1601.57 1939.13C1602.68 1940.68 1603.3 1942.52 1603.36 1944.42C1603.42 1946.33 1602.91 1948.21 1601.9 1949.82C1600.89 1951.44 1599.43 1952.72 1597.69 1953.5C1595.96 1954.28 1594.03 1954.53 1592.16 1954.21C1590.28 1953.89 1588.54 1953.03 1587.16 1951.72C1585.78 1950.41 1584.81 1948.72 1584.39 1946.87C1583.96 1945.01 1584.1 1943.07 1584.78 1941.29C1585.46 1939.51 1586.65 1937.97 1588.2 1936.87C1590.27 1935.39 1592.84 1934.8 1595.35 1935.22C1597.86 1935.65 1600.1 1937.05 1601.57 1939.13Z" fill="#667BD0" fill-opacity="0.2"/>
</g>
</g>
</g>
</g>
<mask id="mask6_4_154" style="mask-type:luminance" maskUnits="userSpaceOnUse" x="4" y="2160" width="1920" height="1080">
<path d="M1924 2160H4V3240H1924V2160Z" fill="white"/>
</mask>
<g mask="url(#mask6_4_154)">
<mask id="mask7_4_154" style="mask-type:luminance" maskUnits="userSpaceOnUse" x="4" y="2160" width="1920" height="1080">
<path d="M1924 2160H4V3240H1924V2160Z" fill="white"/>
</mask>
<g mask="url(#mask7_4_154)">
<mask id="mask8_4_154" style="mask-type:alpha" maskUnits="userSpaceOnUse" x="4" y="2160" width="1920" height="1080">
<path d="M1924 2160H4V3240H1924V2160Z" fill="#EEEEEE"/>
</mask>
<g mask="url(#mask8_4_154)">
<path opacity="0.2" d="M255.3 3165.91C252.76 3163.81 249.96 3162.05 246.96 3160.69L246.45 3151.52L231.55 3149L228.08 3157.45C224.8 3157.75 221.58 3158.49 218.49 3159.65L211.69 3153.54L199.39 3162.29L202.9 3170.71C200.8 3173.25 199.04 3176.05 197.67 3179.05L188.51 3179.56L186 3194.45L194.44 3197.92C194.74 3201.2 195.48 3204.42 196.64 3207.5L190.52 3214.32L199.28 3226.62L207.7 3223.1C210.24 3225.2 213.05 3226.96 216.04 3228.33L216.55 3237.49L231.45 3240L234.92 3231.57C238.2 3231.25 241.42 3230.51 244.51 3229.37L251.31 3235.48L263.61 3226.72L260.1 3218.3C262.2 3215.76 263.95 3212.96 265.33 3209.96L274.49 3209.46L277 3194.56L268.56 3191.09C268.25 3187.81 267.51 3184.59 266.36 3181.5L272.48 3174.7L263.72 3162.48L255.3 3165.99V3165.91ZM244.36 3184.66C246.22 3187.27 247.26 3190.37 247.35 3193.57C247.45 3196.78 246.59 3199.93 244.89 3202.65C243.19 3205.36 240.72 3207.51 237.8 3208.83C234.88 3210.14 231.63 3210.56 228.47 3210.02C225.31 3209.49 222.38 3208.03 220.05 3205.84C217.72 3203.64 216.09 3200.8 215.38 3197.68C214.66 3194.56 214.88 3191.29 216.02 3188.3C217.16 3185.3 219.16 3182.71 221.77 3180.86C225.27 3178.37 229.62 3177.37 233.85 3178.08C238.09 3178.8 241.87 3181.16 244.36 3184.66Z" fill="#667BD0" fill-opacity="0.2"/>
<path opacity="0.2" d="M73.3 2819.91C70.76 2817.81 67.96 2816.05 64.96 2814.69L64.45 2805.52L49.55 2803L46.08 2811.45C42.8 2811.75 39.58 2812.49 36.49 2813.65L29.6899 2807.54L17.39 2816.29L20.9 2824.71C18.8 2827.25 17.04 2830.05 15.67 2833.05L6.51001 2833.56L4 2848.45L12.4399 2851.92C12.7399 2855.2 13.48 2858.42 14.64 2861.5L8.52002 2868.32L17.28 2880.62L25.7 2877.1C28.24 2879.2 31.05 2880.96 34.04 2882.33L34.55 2891.49L49.45 2894L52.92 2885.57C56.2 2885.25 59.42 2884.51 62.51 2883.37L69.3101 2889.48L81.61 2880.72L78.1 2872.3C80.2 2869.76 81.95 2866.96 83.33 2863.96L92.49 2863.46L95 2848.56L86.5601 2845.09C86.2501 2841.81 85.51 2838.59 84.36 2835.5L90.48 2828.7L81.72 2816.48L73.3 2819.99V2819.91ZM62.36 2838.66C64.22 2841.27 65.26 2844.37 65.35 2847.57C65.45 2850.78 64.59 2853.93 62.89 2856.65C61.19 2859.36 58.72 2861.51 55.8 2862.83C52.88 2864.14 49.63 2864.56 46.47 2864.02C43.31 2863.49 40.38 2862.03 38.05 2859.84C35.72 2857.64 34.09 2854.8 33.38 2851.68C32.66 2848.56 32.88 2845.29 34.02 2842.3C35.16 2839.3 37.16 2836.71 39.77 2834.86C43.27 2832.37 47.62 2831.37 51.85 2832.08C56.09 2832.8 59.87 2835.16 62.36 2838.66Z" fill="#667BD0" fill-opacity="0.2"/>
<path opacity="0.2" d="M1548.3 2176.91C1545.76 2174.81 1542.96 2173.05 1539.96 2171.69L1539.45 2162.52L1524.55 2160L1521.08 2168.45C1517.8 2168.75 1514.58 2169.49 1511.49 2170.65L1504.69 2164.54L1492.39 2173.29L1495.9 2181.71C1493.8 2184.25 1492.04 2187.05 1490.67 2190.05L1481.51 2190.56L1479 2205.45L1487.44 2208.92C1487.74 2212.2 1488.48 2215.42 1489.64 2218.5L1483.52 2225.32L1492.28 2237.62L1500.7 2234.1C1503.24 2236.2 1506.05 2237.96 1509.04 2239.33L1509.55 2248.49L1524.45 2251L1527.92 2242.57C1531.2 2242.25 1534.42 2241.51 1537.51 2240.37L1544.31 2246.48L1556.61 2237.72L1553.1 2229.3C1555.2 2226.76 1556.95 2223.96 1558.33 2220.96L1567.49 2220.46L1570 2205.56L1561.56 2202.09C1561.25 2198.81 1560.51 2195.59 1559.36 2192.5L1565.48 2185.7L1556.72 2173.48L1548.3 2176.99V2176.91ZM1537.36 2195.66C1539.22 2198.27 1540.26 2201.37 1540.35 2204.57C1540.45 2207.78 1539.59 2210.93 1537.89 2213.65C1536.19 2216.36 1533.72 2218.51 1530.8 2219.83C1527.88 2221.14 1524.63 2221.56 1521.47 2221.02C1518.31 2220.49 1515.38 2219.03 1513.05 2216.84C1510.72 2214.64 1509.09 2211.8 1508.38 2208.68C1507.66 2205.56 1507.88 2202.29 1509.02 2199.3C1510.16 2196.3 1512.16 2193.71 1514.77 2191.86C1518.27 2189.37 1522.62 2188.37 1526.85 2189.08C1531.09 2189.8 1534.87 2192.16 1537.36 2195.66Z" fill="#667BD0" fill-opacity="0.2"/>
<path opacity="0.2" d="M1685.3 2584.91C1682.76 2582.81 1679.96 2581.05 1676.96 2579.69L1676.45 2570.52L1661.55 2568L1658.08 2576.45C1654.8 2576.75 1651.58 2577.49 1648.49 2578.65L1641.69 2572.54L1629.39 2581.29L1632.9 2589.71C1630.8 2592.25 1629.04 2595.05 1627.67 2598.05L1618.51 2598.56L1616 2613.45L1624.44 2616.92C1624.74 2620.2 1625.48 2623.42 1626.64 2626.5L1620.52 2633.32L1629.28 2645.62L1637.7 2642.1C1640.24 2644.2 1643.05 2645.96 1646.04 2647.33L1646.55 2656.49L1661.45 2659L1664.92 2650.57C1668.2 2650.25 1671.42 2649.51 1674.51 2648.37L1681.31 2654.48L1693.61 2645.72L1690.1 2637.3C1692.2 2634.76 1693.95 2631.96 1695.33 2628.96L1704.49 2628.46L1707 2613.56L1698.56 2610.09C1698.25 2606.81 1697.51 2603.59 1696.36 2600.5L1702.48 2593.7L1693.72 2581.48L1685.3 2584.99V2584.91ZM1674.36 2603.66C1676.22 2606.27 1677.26 2609.37 1677.35 2612.57C1677.45 2615.78 1676.59 2618.93 1674.89 2621.65C1673.19 2624.36 1670.72 2626.51 1667.8 2627.83C1664.88 2629.14 1661.63 2629.56 1658.47 2629.02C1655.31 2628.49 1652.38 2627.03 1650.05 2624.84C1647.72 2622.64 1646.09 2619.8 1645.38 2616.68C1644.66 2613.56 1644.88 2610.29 1646.02 2607.3C1647.16 2604.3 1649.16 2601.71 1651.77 2599.86C1655.27 2597.37 1659.62 2596.37 1663.85 2597.08C1668.09 2597.8 1671.87 2600.16 1674.36 2603.66Z" fill="#667BD0" fill-opacity="0.2"/>
<path opacity="0.2" d="M1947.3 2472.91C1944.76 2470.81 1941.96 2469.05 1938.96 2467.69L1938.45 2458.52L1923.55 2456L1920.08 2464.45C1916.8 2464.75 1913.58 2465.49 1910.49 2466.65L1903.69 2460.54L1891.39 2469.29L1894.9 2477.71C1892.8 2480.25 1891.04 2483.05 1889.67 2486.05L1880.51 2486.56L1878 2501.45L1886.44 2504.92C1886.74 2508.2 1887.48 2511.42 1888.64 2514.5L1882.52 2521.32L1891.28 2533.62L1899.7 2530.1C1902.24 2532.2 1905.05 2533.96 1908.04 2535.33L1908.55 2544.49L1923.45 2547L1926.92 2538.57C1930.2 2538.25 1933.42 2537.51 1936.51 2536.37L1943.31 2542.48L1955.61 2533.72L1952.1 2525.3C1954.2 2522.76 1955.95 2519.96 1957.33 2516.96L1966.49 2516.46L1969 2501.56L1960.56 2498.09C1960.25 2494.81 1959.51 2491.59 1958.36 2488.5L1964.48 2481.7L1955.72 2469.48L1947.3 2472.99V2472.91ZM1936.36 2491.66C1938.22 2494.27 1939.26 2497.37 1939.35 2500.57C1939.45 2503.78 1938.59 2506.93 1936.89 2509.65C1935.19 2512.36 1932.72 2514.51 1929.8 2515.83C1926.88 2517.14 1923.63 2517.56 1920.47 2517.02C1917.31 2516.49 1914.38 2515.03 1912.05 2512.84C1909.72 2510.64 1908.09 2507.8 1907.38 2504.68C1906.66 2501.56 1906.88 2498.29 1908.02 2495.3C1909.16 2492.3 1911.16 2489.71 1913.77 2487.86C1917.27 2485.37 1921.62 2484.37 1925.85 2485.08C1930.09 2485.8 1933.87 2488.16 1936.36 2491.66Z" fill="#667BD0" fill-opacity="0.2"/>
<path opacity="0.2" d="M517.562 2411.18C513.183 2407.55 508.343 2404.52 503.167 2402.16L502.297 2386.35L476.591 2382L470.607 2396.58C464.944 2397.1 459.376 2398.38 454.05 2400.37L442.318 2389.83L421.094 2404.93L427.158 2419.46C423.529 2423.84 420.497 2428.68 418.141 2433.85L402.323 2434.72L397.999 2460.42L412.552 2466.4C413.075 2472.06 414.352 2477.62 416.349 2482.93L405.803 2494.69L420.91 2515.91L435.436 2509.85C439.821 2513.47 444.66 2516.5 449.831 2518.86L450.701 2534.68L476.407 2539L482.391 2524.45C488.052 2523.91 493.618 2522.64 498.948 2520.65L510.68 2531.2L531.904 2516.09L525.84 2501.57C529.46 2497.19 532.492 2492.35 534.857 2487.18L550.675 2486.31L554.999 2460.61L540.446 2454.62C539.907 2448.96 538.631 2443.4 536.649 2438.07L547.195 2426.34L532.088 2405.25L517.562 2411.31V2411.18ZM498.685 2443.52C501.89 2448.03 503.689 2453.38 503.852 2458.9C504.015 2464.43 502.537 2469.88 499.603 2474.56C496.669 2479.24 492.411 2482.95 487.369 2485.22C482.327 2487.48 476.726 2488.2 471.275 2487.28C465.824 2486.36 460.768 2483.85 456.747 2480.06C452.725 2476.27 449.918 2471.37 448.681 2465.98C447.443 2460.6 447.832 2454.96 449.796 2449.8C451.761 2444.63 455.214 2440.16 459.718 2436.96C465.756 2432.67 473.253 2430.94 480.561 2432.17C487.868 2433.41 494.387 2437.49 498.685 2443.52Z" fill="#667BD0" fill-opacity="0.2"/>
<path opacity="0.2" d="M696.563 3112.18C692.184 3108.55 687.344 3105.52 682.168 3103.16L681.298 3087.35L655.592 3083L649.608 3097.58C643.945 3098.1 638.377 3099.38 633.051 3101.37L621.319 3090.83L600.095 3105.93L606.159 3120.46C602.53 3124.84 599.498 3129.68 597.142 3134.85L581.324 3135.72L577 3161.42L591.553 3167.4C592.076 3173.06 593.353 3178.62 595.35 3183.93L584.804 3195.69L599.911 3216.91L614.437 3210.85C618.822 3214.47 623.661 3217.5 628.832 3219.86L629.702 3235.68L655.408 3240L661.392 3225.45C667.053 3224.91 672.619 3223.64 677.949 3221.65L689.681 3232.2L710.905 3217.09L704.841 3202.57C708.461 3198.19 711.493 3193.35 713.858 3188.18L729.676 3187.31L734 3161.61L719.447 3155.62C718.908 3149.96 717.632 3144.4 715.65 3139.07L726.196 3127.34L711.089 3106.25L696.563 3112.31V3112.18ZM677.686 3144.52C680.891 3149.03 682.69 3154.38 682.853 3159.9C683.016 3165.43 681.538 3170.88 678.604 3175.56C675.67 3180.24 671.412 3183.95 666.37 3186.22C661.328 3188.48 655.727 3189.2 650.276 3188.28C644.825 3187.36 639.769 3184.85 635.748 3181.06C631.726 3177.27 628.919 3172.37 627.682 3166.98C626.444 3161.6 626.833 3155.96 628.797 3150.8C630.762 3145.63 634.215 3141.16 638.719 3137.96C644.757 3133.67 652.254 3131.94 659.562 3133.17C666.869 3134.41 673.388 3138.49 677.686 3144.52Z" fill="#667BD0" fill-opacity="0.2"/>
<path opacity="0.2" d="M1736.56 2349.18C1732.18 2345.55 1727.34 2342.52 1722.17 2340.16L1721.3 2324.35L1695.59 2320L1689.61 2334.58C1683.95 2335.1 1678.38 2336.38 1673.05 2338.37L1661.32 2327.83L1640.1 2342.93L1646.16 2357.46C1642.53 2361.84 1639.5 2366.68 1637.14 2371.85L1621.32 2372.72L1617 2398.42L1631.55 2404.4C1632.08 2410.06 1633.35 2415.62 1635.35 2420.93L1624.8 2432.69L1639.91 2453.91L1654.44 2447.85C1658.82 2451.47 1663.66 2454.5 1668.83 2456.86L1669.7 2472.68L1695.41 2477L1701.39 2462.45C1707.05 2461.91 1712.62 2460.64 1717.95 2458.65L1729.68 2469.2L1750.9 2454.09L1744.84 2439.57C1748.46 2435.19 1751.49 2430.35 1753.86 2425.18L1769.68 2424.31L1774 2398.61L1759.45 2392.62C1758.91 2386.96 1757.63 2381.4 1755.65 2376.07L1766.2 2364.34L1751.09 2343.25L1736.56 2349.31V2349.18ZM1717.69 2381.52C1720.89 2386.03 1722.69 2391.38 1722.85 2396.9C1723.02 2402.43 1721.54 2407.88 1718.6 2412.56C1715.67 2417.24 1711.41 2420.95 1706.37 2423.22C1701.33 2425.48 1695.73 2426.2 1690.28 2425.28C1684.83 2424.36 1679.77 2421.85 1675.75 2418.06C1671.73 2414.27 1668.92 2409.37 1667.68 2403.98C1666.44 2398.6 1666.83 2392.96 1668.8 2387.8C1670.76 2382.63 1674.21 2378.16 1678.72 2374.96C1684.76 2370.67 1692.25 2368.94 1699.56 2370.17C1706.87 2371.41 1713.39 2375.49 1717.69 2381.52Z" fill="#667BD0" fill-opacity="0.2"/>
<path opacity="0.2" d="M206.563 2236.18C202.184 2232.55 197.344 2229.52 192.168 2227.16L191.298 2211.35L165.592 2207L159.608 2221.58C153.945 2222.1 148.377 2223.38 143.051 2225.37L131.319 2214.83L110.095 2229.93L116.159 2244.46C112.53 2248.84 109.498 2253.68 107.142 2258.85L91.324 2259.72L87 2285.42L101.553 2291.4C102.076 2297.06 103.353 2302.62 105.35 2307.93L94.804 2319.69L109.911 2340.91L124.437 2334.85C128.822 2338.47 133.661 2341.5 138.832 2343.86L139.702 2359.68L165.408 2364L171.392 2349.45C177.053 2348.91 182.619 2347.64 187.949 2345.65L199.681 2356.2L220.905 2341.09L214.841 2326.57C218.461 2322.19 221.493 2317.35 223.858 2312.18L239.676 2311.31L244 2285.61L229.447 2279.62C228.908 2273.96 227.632 2268.4 225.65 2263.07L236.196 2251.34L221.089 2230.25L206.563 2236.31V2236.18ZM187.686 2268.52C190.891 2273.03 192.69 2278.38 192.853 2283.9C193.016 2289.43 191.538 2294.88 188.604 2299.56C185.67 2304.24 181.412 2307.95 176.37 2310.22C171.328 2312.48 165.727 2313.2 160.276 2312.28C154.825 2311.36 149.769 2308.85 145.748 2305.06C141.726 2301.27 138.919 2296.37 137.682 2290.98C136.444 2285.6 136.833 2279.96 138.797 2274.8C140.762 2269.63 144.215 2265.16 148.719 2261.96C154.757 2257.67 162.254 2255.94 169.562 2257.17C176.869 2258.41 183.388 2262.49 187.686 2268.52Z" fill="#667BD0" fill-opacity="0.2"/>
<path opacity="0.2" d="M321.563 2729.18C317.184 2725.55 312.344 2722.52 307.168 2720.16L306.298 2704.35L280.592 2700L274.608 2714.58C268.945 2715.1 263.377 2716.38 258.051 2718.37L246.319 2707.83L225.095 2722.93L231.159 2737.46C227.53 2741.84 224.498 2746.67 222.142 2751.85L206.324 2752.72L202 2778.42L216.553 2784.41C217.076 2790.06 218.353 2795.62 220.35 2800.93L209.804 2812.69L224.911 2833.91L239.437 2827.85C243.822 2831.47 248.661 2834.5 253.832 2836.86L254.702 2852.68L280.408 2857L286.392 2842.45C292.053 2841.91 297.619 2840.64 302.949 2838.65L314.681 2849.2L335.905 2834.09L329.841 2819.57C333.461 2815.18 336.493 2810.35 338.858 2805.18L354.676 2804.31L359 2778.6L344.447 2772.62C343.908 2766.96 342.632 2761.4 340.65 2756.07L351.196 2744.34L336.089 2723.25L321.563 2729.31V2729.18ZM302.686 2761.52C305.891 2766.03 307.69 2771.38 307.853 2776.9C308.016 2782.43 306.538 2787.88 303.604 2792.56C300.67 2797.24 296.412 2800.95 291.37 2803.22C286.328 2805.48 280.727 2806.2 275.276 2805.28C269.825 2804.36 264.769 2801.85 260.748 2798.06C256.726 2794.27 253.919 2789.37 252.682 2783.98C251.444 2778.6 251.833 2772.96 253.797 2767.8C255.762 2762.63 259.215 2758.16 263.719 2754.96C269.757 2750.67 277.254 2748.94 284.562 2750.17C291.869 2751.41 298.388 2755.49 302.686 2761.52Z" fill="#667BD0" fill-opacity="0.2"/>
<path opacity="0.2" d="M1695.56 3190.18C1691.18 3186.55 1686.34 3183.52 1681.17 3181.17L1680.3 3165.35L1654.59 3161L1648.61 3175.58C1642.94 3176.1 1637.38 3177.38 1632.05 3179.37L1620.32 3168.83L1599.09 3183.93L1605.16 3198.46C1601.53 3202.83 1598.5 3207.67 1596.14 3212.85L1580.32 3213.72L1576 3239.42L1590.55 3245.4C1591.08 3251.06 1592.35 3256.62 1594.35 3261.93L1583.8 3273.69L1598.91 3294.91L1613.44 3288.85C1617.82 3292.47 1622.66 3295.5 1627.83 3297.86L1628.7 3313.68L1654.41 3318L1660.39 3303.45C1666.05 3302.91 1671.62 3301.63 1676.95 3299.65L1688.68 3310.2L1709.91 3295.09L1703.84 3280.57C1707.46 3276.19 1710.49 3271.35 1712.86 3266.18L1728.68 3265.31L1733 3239.61L1718.45 3233.62C1717.91 3227.96 1716.63 3222.4 1714.65 3217.07L1725.2 3205.34L1710.09 3184.25L1695.56 3190.31V3190.18ZM1676.69 3222.52C1679.89 3227.03 1681.69 3232.38 1681.85 3237.9C1682.02 3243.43 1680.54 3248.88 1677.6 3253.56C1674.67 3258.24 1670.41 3261.95 1665.37 3264.22C1660.33 3266.48 1654.73 3267.2 1649.28 3266.28C1643.83 3265.36 1638.77 3262.85 1634.75 3259.06C1630.73 3255.27 1627.92 3250.37 1626.68 3244.98C1625.44 3239.6 1625.83 3233.96 1627.8 3228.8C1629.76 3223.63 1633.21 3219.16 1637.72 3215.96C1643.76 3211.67 1651.25 3209.94 1658.56 3211.18C1665.87 3212.41 1672.39 3216.49 1676.69 3222.52Z" fill="#667BD0" fill-opacity="0.2"/>
<path opacity="0.2" d="M1930.56 2878.18C1926.18 2874.55 1921.34 2871.52 1916.17 2869.16L1915.3 2853.35L1889.59 2849L1883.61 2863.58C1877.94 2864.1 1872.38 2865.38 1867.05 2867.37L1855.32 2856.83L1834.09 2871.93L1840.16 2886.46C1836.53 2890.84 1833.5 2895.67 1831.14 2900.85L1815.32 2901.72L1811 2927.42L1825.55 2933.41C1826.08 2939.06 1827.35 2944.62 1829.35 2949.93L1818.8 2961.69L1833.91 2982.91L1848.44 2976.85C1852.82 2980.47 1857.66 2983.5 1862.83 2985.86L1863.7 3001.68L1889.41 3006L1895.39 2991.45C1901.05 2990.91 1906.62 2989.64 1911.95 2987.65L1923.68 2998.2L1944.91 2983.09L1938.84 2968.57C1942.46 2964.18 1945.49 2959.35 1947.86 2954.18L1963.68 2953.31L1968 2927.6L1953.45 2921.62C1952.91 2915.96 1951.63 2910.4 1949.65 2905.07L1960.2 2893.34L1945.09 2872.25L1930.56 2878.31V2878.18ZM1911.69 2910.52C1914.89 2915.03 1916.69 2920.38 1916.85 2925.9C1917.02 2931.43 1915.54 2936.88 1912.6 2941.56C1909.67 2946.24 1905.41 2949.95 1900.37 2952.22C1895.33 2954.48 1889.73 2955.2 1884.28 2954.28C1878.83 2953.36 1873.77 2950.85 1869.75 2947.06C1865.73 2943.27 1862.92 2938.37 1861.68 2932.98C1860.44 2927.6 1860.83 2921.96 1862.8 2916.8C1864.76 2911.63 1868.21 2907.16 1872.72 2903.96C1878.76 2899.67 1886.25 2897.94 1893.56 2899.17C1900.87 2900.41 1907.39 2904.49 1911.69 2910.52Z" fill="#667BD0" fill-opacity="0.2"/>
<path opacity="0.2" d="M1702.56 2811.18C1698.18 2807.55 1693.34 2804.52 1688.17 2802.16L1687.3 2786.35L1661.59 2782L1655.61 2796.58C1649.94 2797.1 1644.38 2798.38 1639.05 2800.37L1627.32 2789.83L1606.09 2804.93L1612.16 2819.46C1608.53 2823.84 1605.5 2828.67 1603.14 2833.85L1587.32 2834.72L1583 2860.42L1597.55 2866.41C1598.08 2872.06 1599.35 2877.62 1601.35 2882.93L1590.8 2894.69L1605.91 2915.91L1620.44 2909.85C1624.82 2913.47 1629.66 2916.5 1634.83 2918.86L1635.7 2934.68L1661.41 2939L1667.39 2924.45C1673.05 2923.91 1678.62 2922.64 1683.95 2920.65L1695.68 2931.2L1716.91 2916.09L1710.84 2901.57C1714.46 2897.18 1717.49 2892.35 1719.86 2887.18L1735.68 2886.31L1740 2860.6L1725.45 2854.62C1724.91 2848.96 1723.63 2843.4 1721.65 2838.07L1732.2 2826.34L1717.09 2805.25L1702.56 2811.31V2811.18ZM1683.69 2843.52C1686.89 2848.03 1688.69 2853.38 1688.85 2858.9C1689.02 2864.43 1687.54 2869.88 1684.6 2874.56C1681.67 2879.24 1677.41 2882.95 1672.37 2885.22C1667.33 2887.48 1661.73 2888.2 1656.28 2887.28C1650.83 2886.36 1645.77 2883.85 1641.75 2880.06C1637.73 2876.27 1634.92 2871.37 1633.68 2865.98C1632.44 2860.6 1632.83 2854.96 1634.8 2849.8C1636.76 2844.63 1640.21 2840.16 1644.72 2836.96C1650.76 2832.67 1658.25 2830.94 1665.56 2832.17C1672.87 2833.41 1679.39 2837.49 1683.69 2843.52Z" fill="#667BD0" fill-opacity="0.2"/>
<path opacity="0.37" d="M1862.08 2276.03C1860.57 2274.78 1858.91 2273.74 1857.13 2272.93L1856.83 2267.52L1848.01 2266L1845.95 2271C1844 2271.19 1842.09 2271.63 1840.26 2272.32L1836.22 2268.7L1828.93 2273.9L1831.02 2278.9C1829.77 2280.41 1828.73 2282.07 1827.91 2283.85L1822.51 2284.16L1821 2292.99L1826.01 2295.05C1826.19 2297 1826.62 2298.92 1827.31 2300.75L1823.71 2304.78L1828.9 2312.09L1833.92 2310.04C1835.43 2311.27 1837.09 2312.29 1838.87 2313.07L1839.17 2318.48L1848.01 2320L1850.05 2314.98C1852 2314.81 1853.91 2314.37 1855.74 2313.68L1859.78 2317.29L1867.07 2312.09L1864.98 2307.09C1866.23 2305.58 1867.28 2303.91 1868.09 2302.13L1873.49 2301.83L1875 2292.99L1869.99 2290.93C1869.82 2288.98 1869.38 2287.06 1868.69 2285.23L1872.29 2281.2L1867.1 2273.9L1862.12 2275.99L1862.08 2276.03ZM1855.57 2287.13C1856.68 2288.68 1857.3 2290.52 1857.36 2292.43C1857.42 2294.33 1856.91 2296.21 1855.9 2297.82C1854.89 2299.44 1853.43 2300.72 1851.69 2301.5C1849.96 2302.28 1848.03 2302.53 1846.16 2302.21C1844.28 2301.89 1842.54 2301.03 1841.16 2299.72C1839.78 2298.41 1838.81 2296.72 1838.39 2294.87C1837.96 2293.01 1838.1 2291.07 1838.78 2289.29C1839.46 2287.51 1840.65 2285.97 1842.2 2284.87C1844.27 2283.39 1846.84 2282.8 1849.35 2283.22C1851.86 2283.65 1854.1 2285.05 1855.57 2287.13Z" fill="#667BD0" fill-opacity="0.2"/>
<path opacity="0.37" d="M206.08 2515.03C204.57 2513.78 202.91 2512.74 201.13 2511.93L200.83 2506.52L192.01 2505L189.95 2510C188 2510.19 186.09 2510.63 184.26 2511.32L180.22 2507.7L172.93 2512.9L175.02 2517.9C173.77 2519.41 172.73 2521.07 171.91 2522.85L166.51 2523.16L165 2531.99L170.01 2534.05C170.19 2536 170.62 2537.92 171.31 2539.75L167.71 2543.78L172.9 2551.09L177.92 2549.04C179.43 2550.27 181.09 2551.29 182.87 2552.07L183.17 2557.48L192.01 2559L194.05 2553.98C196 2553.81 197.91 2553.37 199.74 2552.68L203.78 2556.29L211.07 2551.09L208.98 2546.09C210.23 2544.58 211.28 2542.92 212.09 2541.13L217.49 2540.83L219 2531.99L213.99 2529.93C213.82 2527.98 213.38 2526.06 212.69 2524.23L216.29 2520.2L211.1 2512.9L206.12 2514.99L206.08 2515.03ZM199.57 2526.13C200.68 2527.68 201.3 2529.52 201.36 2531.42C201.42 2533.33 200.91 2535.21 199.9 2536.82C198.89 2538.44 197.43 2539.72 195.69 2540.5C193.96 2541.28 192.03 2541.53 190.16 2541.21C188.28 2540.89 186.54 2540.03 185.16 2538.72C183.78 2537.41 182.81 2535.72 182.39 2533.87C181.96 2532.01 182.1 2530.07 182.78 2528.29C183.46 2526.51 184.65 2524.97 186.2 2523.87C188.27 2522.39 190.84 2521.8 193.35 2522.22C195.86 2522.65 198.1 2524.05 199.57 2526.13Z" fill="#667BD0" fill-opacity="0.2"/>
<path opacity="0.37" d="M1608.08 3008.03C1606.57 3006.78 1604.91 3005.74 1603.13 3004.93L1602.83 2999.52L1594.01 2998L1591.95 3003C1590 3003.19 1588.09 3003.63 1586.26 3004.32L1582.22 3000.7L1574.93 3005.9L1577.02 3010.9C1575.77 3012.41 1574.73 3014.07 1573.91 3015.85L1568.51 3016.16L1567 3024.99L1572.01 3027.05C1572.19 3029 1572.62 3030.92 1573.31 3032.75L1569.71 3036.78L1574.9 3044.09L1579.92 3042.04C1581.43 3043.27 1583.09 3044.29 1584.87 3045.07L1585.17 3050.48L1594.01 3052L1596.05 3046.98C1598 3046.81 1599.91 3046.37 1601.74 3045.68L1605.78 3049.29L1613.07 3044.09L1610.98 3039.09C1612.23 3037.58 1613.28 3035.91 1614.09 3034.13L1619.49 3033.83L1621 3024.99L1615.99 3022.93C1615.82 3020.98 1615.38 3019.06 1614.69 3017.23L1618.29 3013.2L1613.1 3005.9L1608.12 3007.99L1608.08 3008.03ZM1601.57 3019.13C1602.68 3020.68 1603.3 3022.52 1603.36 3024.42C1603.42 3026.33 1602.91 3028.21 1601.9 3029.82C1600.89 3031.44 1599.43 3032.72 1597.69 3033.5C1595.96 3034.28 1594.03 3034.53 1592.16 3034.21C1590.28 3033.89 1588.54 3033.03 1587.16 3031.72C1585.78 3030.41 1584.81 3028.72 1584.39 3026.87C1583.96 3025.01 1584.1 3023.07 1584.78 3021.29C1585.46 3019.51 1586.65 3017.97 1588.2 3016.87C1590.27 3015.39 1592.84 3014.8 1595.35 3015.22C1597.86 3015.65 1600.1 3017.05 1601.57 3019.13Z" fill="#667BD0" fill-opacity="0.2"/>
</g>
</g>
</g>
<defs>
<filter id="filter0_d_4_154" x="0" y="0" width="1928" height="1088" filterUnits="userSpaceOnUse" color-interpolation-filters="sRGB">
<feFlood flood-opacity="0" result="BackgroundImageFix"/>
<feColorMatrix in="SourceAlpha" type="matrix" values="0 0 0 0 0 0 0 0 0 0 0 0 0 0 0 0 0 0 127 0" result="hardAlpha"/>
<feOffset dy="4"/>
<feGaussianBlur stdDeviation="2"/>
<feComposite in2="hardAlpha" operator="out"/>
<feColorMatrix type="matrix" values="0 0 0 0 0 0 0 0 0 0 0 0 0 0 0 0 0 0 0.25 0"/>
<feBlend mode="normal" in2="BackgroundImageFix" result="effect1_dropShadow_4_154"/>
<feBlend mode="normal" in="SourceGraphic" in2="effect1_dropShadow_4_154" result="shape"/>
</filter>
<clipPath id="clip0_4_154">
<rect width="1920" height="1080" fill="white" transform="translate(4)"/>
</clipPath>
<clipPath id="clip1_4_154">
<rect width="1920" height="1080" fill="white" transform="translate(4 1080)"/>
</clipPath>
</defs>
</svg>
